<?xml version="1.0" standalone="no"?>
<!DOCTYPE svg PUBLIC "-//W3C//DTD SVG 1.1//EN" "http://www.w3.org/Graphics/SVG/1.1/DTD/svg11.dtd" >
<svg xmlns="http://www.w3.org/2000/svg" xmlns:xlink="http://www.w3.org/1999/xlink" version="1.1">
<metadata>
Created by FontForge 20170731 at Thu Sep 21 16:35:43 2023
 By Aleksey,,,
Copyright 2018 The Manrope Project Authors (https://github.com/sharanda/manrope)
</metadata>
<defs>
<font id="Manrope-Bold" horiz-adv-x="1335" >
  <font-face 
    font-family="Manrope Bold"
    font-weight="700"
    font-stretch="normal"
    units-per-em="2048"
    panose-1="0 0 8 0 0 0 0 0 0 0"
    ascent="1638"
    descent="-410"
    x-height="1152"
    cap-height="1536"
    bbox="-64 -612 2345 2127"
    underline-thickness="106"
    underline-position="-319"
    unicode-range="U+0020-FB02"
  />
<missing-glyph horiz-adv-x="1578" 
d="M1365 1536v-28h-1152v28h1152zM1365 1419v-34h-1152v34h1152zM1365 1301v-38h-1152v38h1152zM1365 1182v-45h-1152v45h1152zM1365 1062v-47h-1152v47h1152zM1365 945v-51h-1152v51h1152zM1365 828v-60h-1152v60h1152zM1365 710v-64h-1152v64h1152zM1365 593v-70h-1152v70
h1152zM1365 474v-75h-1152v75h1152zM1365 356v-79h-1152v79h1152zM1365 239v-85h-1152v85h1152zM1365 0h-1152v122h1152v-122z" />
    <glyph glyph-name="fl" unicode="fl" horiz-adv-x="1452" 
d="M1047 1568h256v-1568h-256v951h-524v-951h-256v951h-246v201h246q0 199 106 305q81 79 196 100.5t267 6.5v-222q-97 16 -173 0q-80 -12 -110 -54t-30 -117v-19h524v416z" />
    <glyph glyph-name="f_f" unicode="ff" horiz-adv-x="1649" 
d="M1457 1342q-80 -12 -110.5 -54t-30.5 -117v-19h312v-201h-312v-951h-258v951h-535v-951h-256v951h-246v201h246q0 199 106 305q81 79 196 100.5t267 6.5v-222q-97 16 -173 0q-80 -12 -110 -54t-30 -117v-19h535q0 198 107 305q81 79 196.5 100.5t266.5 6.5v-222
q-97 16 -171 0z" />
    <glyph glyph-name="f_f_l" unicode="ffl" horiz-adv-x="2178" 
d="M1773 1568h256v-1568h-256v951h-525v-951h-256v951h-469v-951h-256v951h-246v201h246q0 199 106 305q81 79 196 100.5t267 6.5v-222q-97 16 -173 0q-80 -12 -110 -54t-30 -117v-19h469q0 198 107 305q81 79 196 100.5t267 6.5v-222q-97 16 -171 0q-81 -12 -112 -54
t-31 -117v-19h525v416z" />
    <glyph glyph-name="t_t" unicode="tt" horiz-adv-x="1719" 
d="M1282 951v-467v-36.5v-37t0.5 -30.5t2 -32t4.5 -25t7 -26t10 -20q37 -63 125 -70q91 -6 190 8v-215q-63 -17 -159 -19t-156 10q-81 13 -135 46t-96 100q-15 22 -24.5 48.5t-15 47t-7.5 57.5t-2.5 54.5t0 64t0.5 62.5v480h-540v-467v-36.5v-37t0.5 -30.5t2 -32t4.5 -25
t7 -26t10 -20q37 -62 126 -70q91 -6 190 8v-215q-63 -17 -159.5 -19t-156.5 10q-81 13 -135 46t-98 100q-14 22 -23.5 48.5t-14.5 47.5t-7 57t-2.5 54t0 64t0.5 63v480h-209v201h209v320h256v-320h540v320h256v-320h339v-201h-339z" />
    <glyph glyph-name="hyphen_greater.liga" unicode="&#x2d;&#x3e;" horiz-adv-x="2158" 
d="M1346 1184l514 -512l-514 -512l-121 124l290 288h-1216v202l1216 -2l-290 288z" />
    <glyph glyph-name="parenleft_greater_parenright.liga" unicode="&#x28;&#x3e;&#x29;" horiz-adv-x="2282" 
d="M1141 -288q216 0 411.5 83.5t336.5 224.5t224.5 336.5t83.5 411.5t-83.5 411.5t-224.5 336.5t-336.5 224.5t-411.5 83.5t-411.5 -83.5t-336.5 -224.5t-224.5 -336.5t-83.5 -411.5t83.5 -411.5t224.5 -336.5t336.5 -224.5t411.5 -83.5zM1141 -47q-167 0 -318 64.5
t-259.5 173t-173 259.5t-64.5 318t64.5 318t173 259.5t259.5 173t318 64.5t318 -64.5t259.5 -173t173 -259.5t64.5 -318t-64.5 -318t-173 -259.5t-259.5 -173t-318 -64.5zM992 1141l448 -373l-448 -373v746z" />
    <glyph glyph-name="parenleft_c_parenright.liga" unicode="&#x28;c&#x29;" horiz-adv-x="1932" 
d="M966 -145q180 0 343.5 70t281 188t187 281t69.5 342t-69.5 342t-187 281t-281 188t-343.5 70q-179 0 -342 -70t-281 -188t-188 -281t-70 -342t70 -342t188 -281t281 -188t342 -70zM966 96q-130 0 -248.5 50.5t-204.5 136.5t-136.5 204.5t-50.5 248.5t50.5 248.5
t136.5 204.5t204.5 136.5t248.5 50.5t248.5 -50.5t204.5 -136.5t136.5 -204.5t50.5 -248.5t-50.5 -248.5t-136.5 -204.5t-204.5 -136.5t-248.5 -50.5zM1370 913l-197 -51q-23 68 -70 104q-50 41 -120 41q-102 0 -162 -77q-51 -66 -51 -194q0 -126 51 -192q54 -77 162 -77
q81 0 124 36q37 32 62 96l201 -42q-44 -134 -141 -203q-56 -40 -111 -56t-135 -16q-208 0 -317 140q-105 132 -105 314q0 192 105 311q118 143 322 143q70 0 119.5 -12t102.5 -43q127 -77 160 -222z" />
    <glyph glyph-name="space_less_three_space.liga" unicode="&#x20;&#x3c;&#x33;&#x20;" horiz-adv-x="2566" 
d="M1502 1184q175 0 301 -137q123 -129 123 -311q0 -180 -123 -309l-374 -395q-59 -64 -147 -64q-86 0 -145 64l-373 395q-124 133 -124 307q0 179 124 313q130 137 301 137q113 0 217 -64q106 64 220 64zM1502 983q-110 0 -220 -119q-110 119 -217 119q-86 0 -154 -74
q-68 -68 -68 -171q0 -105 68 -173l371 -394l376 394q66 69 66 173q0 102 -66 171q-71 74 -156 74z" />
    <glyph glyph-name="less_hyphen.liga" unicode="&#x3c;&#x2d;" horiz-adv-x="2158" 
d="M1860 774v-202h-1216l288 -288l-121 -124l-512 512l512 512l121 -124l-288 -288z" />
    <glyph glyph-name=".notdef" horiz-adv-x="1578" 
d="M1365 1536v-28h-1152v28h1152zM1365 1419v-34h-1152v34h1152zM1365 1301v-38h-1152v38h1152zM1365 1182v-45h-1152v45h1152zM1365 1062v-47h-1152v47h1152zM1365 945v-51h-1152v51h1152zM1365 828v-60h-1152v60h1152zM1365 710v-64h-1152v64h1152zM1365 593v-70h-1152v70
h1152zM1365 474v-75h-1152v75h1152zM1365 356v-79h-1152v79h1152zM1365 239v-85h-1152v85h1152zM1365 0h-1152v122h1152v-122z" />
    <glyph glyph-name=".null" horiz-adv-x="1066" 
 />
    <glyph glyph-name="nonmarkingreturn" horiz-adv-x="1461" 
 />
    <glyph glyph-name="space" unicode=" " horiz-adv-x="426" 
 />
    <glyph glyph-name="exclam" unicode="!" horiz-adv-x="768" 
d="M256 1536h256v-1152h-256v1152zM256 237h256v-237h-256v237z" />
    <glyph glyph-name="quotedbl" unicode="&#x22;" horiz-adv-x="996" 
d="M128 1536h256v-384h-256v384zM527 1536h256v-384h-256v384z" />
    <glyph glyph-name="numbersign" unicode="#" horiz-adv-x="1986" 
d="M1794 911h-386l-68 -250h386l-64 -243h-386l-111 -416h-250l111 416h-262l-111 -416h-250l111 416h-386l64 243h388l66 250h-388l66 241h386l105 384h250l-105 -384h262l105 384h250l-105 -384h386zM1090 661l68 250h-262l-66 -250h260z" />
    <glyph glyph-name="dollar" unicode="$" horiz-adv-x="1280" 
d="M1035 687q117 -117 117 -288q0 -106 -56.5 -204.5t-154.5 -153.5q-71 -43 -173 -60v-194h-256v196q-204 49 -299 207q-85 128 -85 277h260q0 -33 12 -72t33 -66q36 -54 89 -85t114 -31q108 0 175 52q70 51 70 142q0 42 -17.5 74t-63.5 63q-57 41 -179.5 90t-163.5 72
q-151 72 -229 179q-35 46 -56 110.5t-21 130.5q0 88 37.5 174t101.5 144q96 85 222 111v192h256v-196q162 -45 256 -173q95 -127 98 -281h-271q0 68 -40 132q-74 96 -177 96q-100 0 -160 -68q-52 -49 -52 -128q0 -56 28 -99q23 -37 68.5 -64.5t123.5 -60.5
q134 -57 180 -77.5t107 -58t106 -82.5z" />
    <glyph glyph-name="percent" unicode="%" horiz-adv-x="1920" 
d="M512 800q-159 0 -271.5 112.5t-112.5 271.5q0 156 115 270t269 114q159 0 271.5 -112.5t112.5 -271.5t-112.5 -271.5t-271.5 -112.5zM363 0l-171 171l1365 1365l171 -173zM512 1020q68 0 116 48t48 116t-48 116t-116 48t-116 -48t-48 -116t48 -116t116 -48zM1408 -32
q-159 0 -271.5 112.5t-112.5 271.5q0 156 115 270t269 114q159 0 271.5 -112.5t112.5 -271.5t-112.5 -271.5t-271.5 -112.5zM1408 188q68 0 117 48.5t49 115.5t-49 115.5t-117 48.5q-66 0 -115 -48.5t-49 -115.5t49 -115.5t115 -48.5z" />
    <glyph glyph-name="ampersand" unicode="&#x26;" horiz-adv-x="1425" 
d="M1229 661v-219q0 -64 -15 -116l190 -175l-165 -177l-149 141q-103 -96 -252 -126q-84 -21 -179 -21q-133 0 -246 39.5t-187 118.5q-113 125 -119 318q0 195 106 318q36 44 96 81q-66 75 -96 141t-30 151q0 135 72.5 242t196.5 153q89 34 220 34q231 0 352 -128
q80 -80 111 -190l-254 -56q-18 52 -53 84q-56 51 -162 51q-67 0 -122 -26q-52 -26 -77 -65.5t-25 -100.5q0 -79 70 -152q39 -42 105 -100l384 -356q2 19 2 51v305h373v-220h-147zM905 290l-406 373q-55 -22 -89 -64q-43 -54 -43 -142q0 -86 53 -154q37 -45 106.5 -67.5
t141.5 -22.5q77 0 121 15q68 23 116 62z" />
    <glyph glyph-name="quotesingle" unicode="'" horiz-adv-x="554" 
d="M128 1536h256v-384h-256v384z" />
    <glyph glyph-name="parenleft" unicode="(" horiz-adv-x="966" 
d="M879 1673l-190 140q-185 -216 -289.5 -513t-100.5 -596q-5 -298 100 -595.5t290 -513.5l190 140q-184 221 -265 460t-83 509q2 271 83 509.5t265 459.5z" />
    <glyph glyph-name="parenright" unicode=")" horiz-adv-x="966" 
d="M87 1673q185 -220 265.5 -458.5t82.5 -510.5q-2 -270 -83 -509t-265 -460l190 -140q187 215 291.5 512.5t99.5 596.5q5 300 -99.5 597t-291.5 512z" />
    <glyph glyph-name="asterisk" unicode="*" horiz-adv-x="992" 
d="M864 1163l-243 -64l160 -190l-184 -132l-134 206l-132 -206l-186 132l160 190l-241 64l70 217l231 -96l-15 252h228l-17 -252l233 96z" />
    <glyph glyph-name="plus" unicode="+" horiz-adv-x="1220" 
d="M1092 870v-202h-379v-382h-203v382h-382v202h382v380h203v-380h379z" />
    <glyph glyph-name="comma" unicode="," horiz-adv-x="646" 
d="M390 -11q0 -143 -66 -212.5t-196 -47.5l15 109q71 -4 101.5 41t20.5 121h-137v273h262v-284z" />
    <glyph glyph-name="hyphen" unicode="-" horiz-adv-x="896" 
d="M128 774h640v-202h-640v202z" />
    <glyph glyph-name="period" unicode="." horiz-adv-x="646" 
d="M192 262h262v-262h-262v262z" />
    <glyph glyph-name="slash" unicode="/" horiz-adv-x="923" 
d="M538 1536h258l-410 -1536h-258z" />
    <glyph glyph-name="zero" unicode="0" horiz-adv-x="1403" 
d="M702 -30q126 0 235 45.5t187 133.5q76 87 103 182t27 226v424q0 136 -27 229t-103 181q-79 90 -190 135t-232 42q-124 3 -236.5 -44.5t-186.5 -132.5q-76 -94 -103 -186t-27 -224v-424q0 -132 27.5 -224t102.5 -184q76 -89 188 -134t235 -45zM702 1325q76 1 145.5 -38.5
t106.5 -104.5q18 -33 26.5 -68t10 -59t1.5 -74v-424q0 -79 -7.5 -122.5t-37.5 -86.5q-39 -63 -105 -99.5t-140 -35.5q-72 -1 -137.5 35t-105.5 98q-30 43 -38.5 91.5t-8.5 119.5v424q0 135 40 203q39 64 107.5 103t142.5 38z" />
    <glyph glyph-name="one" unicode="1" horiz-adv-x="934" 
d="M416 1536h262v-1536h-262v1257l-288 -178v284z" />
    <glyph glyph-name="two" unicode="2" horiz-adv-x="1275" 
d="M115 1060q0 240 173 389q137 119 365 119q111 0 212.5 -42t175.5 -122q63 -67 95.5 -158.5t32.5 -189.5q0 -65 -12 -119t-29.5 -94t-55 -85t-71.5 -78t-96 -87l-395 -348h659v-243h-1056v224l657 587q135 122 135 245q0 111 -67 184q-70 83 -192 83q-109 0 -181 -66
q-40 -37 -63.5 -90t-23.5 -109h-263z" />
    <glyph glyph-name="three" unicode="3" horiz-adv-x="1241" 
d="M1015 796q102 -139 99 -316q-5 -110 -48.5 -209.5t-120.5 -168.5q-143 -127 -356 -130q-95 -3 -188.5 32t-167.5 101q-108 92 -148 232l250 68q21 -76 72 -121q77 -71 182 -71q108 3 179 71q83 77 83 196q0 122 -79 198q-74 71 -185 71q-63 0 -133 -36l-117 202l442 378
h-634v243h943v-243l-348 -333q165 -33 275 -164z" />
    <glyph glyph-name="four" unicode="4" horiz-adv-x="1299" 
d="M1047 495h146v-241h-146v-254h-260v254h-680v241l492 1041h293l-491 -1041h386v399h260v-399z" />
    <glyph glyph-name="five" unicode="5" horiz-adv-x="1250" 
d="M207 1536h834v-241h-608l-21 -380q110 71 239 71q89 0 177 -32.5t158 -91.5q160 -144 157 -378q-1 -104 -43.5 -201t-116.5 -168q-72 -69 -168 -105t-201 -38q-99 -3 -195.5 34.5t-168.5 106.5q-102 93 -143 235l247 66q21 -75 73 -124q81 -75 187 -75q112 0 192 77
q79 79 79 192q0 114 -83 194q-75 72 -188 75q-145 2 -234 -100l-220 70z" />
    <glyph glyph-name="six" unicode="6" horiz-adv-x="1326" 
d="M1116 1404l-186 -182q-41 48 -99.5 75.5t-120.5 27.5q-83 0 -154.5 -44t-105.5 -116q-38 -69 -38 -190v-107q133 120 307 120q91 0 179.5 -33.5t159.5 -94.5q157 -150 154 -376q0 -103 -43 -200.5t-117 -168.5q-72 -70 -170 -108t-201 -35q-102 -3 -200.5 35.5
t-171.5 111.5q-92 89 -126 193.5t-34 250.5v412q0 131 30 228.5t105 185.5q151 174 426 177q244 3 406 -162zM681 213q113 0 194 84q76 73 76 187q0 117 -78 192q-82 79 -190 79q-113 0 -194 -81q-77 -77 -77 -190t77 -187q81 -81 192 -84z" />
    <glyph glyph-name="seven" unicode="7" horiz-adv-x="1139" 
d="M228 0l527 1293h-670v243h948v-243l-527 -1293h-278z" />
    <glyph glyph-name="eight" unicode="8" horiz-adv-x="1305" 
d="M169 1133q6 223 162 339q126 96 322 96q199 0 322 -96q79 -58 120.5 -148t41.5 -191q0 -112 -53 -201q-25 -48 -79 -106q75 -63 119 -154q57 -105 54 -218q-3 -236 -165 -367q-140 -119 -360 -119q-102 0 -197.5 30t-163.5 89q-79 66 -121.5 163.5t-42.5 203.5
q0 120 53 218q42 86 122 154q-59 59 -81 106q-56 95 -53 201zM653 1327q-99 -3 -156 -51q-58 -48 -58 -143q0 -96 58 -141q59 -49 156 -49q101 0 156 49q55 46 55 141q3 91 -55 143q-61 54 -156 51zM653 698q-119 0 -186 -64q-68 -62 -68 -180q0 -117 68 -179
q70 -64 186 -64q118 0 185 64q69 66 69 179q0 114 -69 180q-64 64 -185 64z" />
    <glyph glyph-name="nine" unicode="9" horiz-adv-x="1326" 
d="M211 132l186 179q41 -48 99.5 -75t120.5 -27q83 0 154.5 44t105.5 116q38 69 38 190v107q-131 -118 -307 -118q-92 0 -180.5 33t-158.5 95q-157 147 -154 374q1 104 43.5 201t116.5 168q72 70 170 108t201 35q101 3 200 -36t172 -112q92 -89 126 -193t34 -250v-412
q0 -131 -30 -228.5t-105 -185.5q-151 -174 -426 -177q-245 -3 -406 164zM646 1321q-114 3 -194 -84q-77 -74 -77 -187q0 -110 79 -192q82 -79 190 -79q113 0 194 81q77 77 77 190q0 112 -77 189q-76 79 -192 82z" />
    <glyph glyph-name="colon" unicode=":" horiz-adv-x="731" 
d="M237 1013h262v-262h-262v262zM235 401h262v-262h-262v262z" />
    <glyph glyph-name="semicolon" unicode=";" horiz-adv-x="731" 
d="M235 1152h262v-262h-262v262zM497 -11q0 -143 -66 -212.5t-196 -47.5l15 109q71 -4 101 41t20 121h-136v273h262v-284z" />
    <glyph glyph-name="less" unicode="&#x3c;" horiz-adv-x="1358" 
d="M811 160l-512 512l512 512l121 -124l-388 -388l388 -388z" />
    <glyph glyph-name="equal" unicode="=" horiz-adv-x="1600" 
d="M256 1071v-203h1088v203h-1088zM256 668v-203h1088v203h-1088z" />
    <glyph glyph-name="greater" unicode="&#x3e;" horiz-adv-x="1361" 
d="M548 160l-121 124l388 388l-388 388l121 124l512 -512z" />
    <glyph glyph-name="question" unicode="?" horiz-adv-x="1179" 
d="M1073 1139q0 -194 -166 -367q-25 -27 -62.5 -61.5t-63 -61t-41.5 -52.5q-20 -32 -28.5 -60.5t-10 -49t-1.5 -71.5h-271q0 162 62 271q24 50 58 84.5t87.5 77.5t93.5 85q41 45 56.5 91.5t15.5 107.5q0 72 -34 119q-59 73 -177 73q-101 0 -154 -47q-62 -49 -59 -145h-271
q12 108 59 198.5t124 144.5q122 90 290 90q266 0 395 -156q98 -112 98 -271zM429 0v284h271v-284h-271z" />
    <glyph glyph-name="at" unicode="@" horiz-adv-x="1954" 
d="M1783 576q-7 -258 -140 -373q-36 -33 -87 -52t-101 -19q-106 0 -184 51q-49 29 -78 75q-98 -75 -237 -75q-71 0 -139.5 24t-118.5 68q-121 107 -128 301q6 191 128 301q112 92 262 92q56 0 115 -17.5t103 -49.5v37h157l-2 -455q0 -75 28 -113q27 -36 85 -36q47 0 75 38
q49 64 45 203q3 221 -98 373q-78 110 -208 167t-281 57q-234 0 -394 -121q-105 -77 -154.5 -210t-44.5 -289q7 -242 128 -384q84 -98 206 -145t263 -47q137 0 256 51l69 -192q-149 -60 -333 -60q-409 0 -625 262q-172 198 -179 508q-9 201 66.5 382t223.5 290
q99 75 233 116.5t268 41.5q220 0 393 -77t283 -230q138 -202 145 -493zM1143 576q0 75 -23 119q-19 33 -58.5 52t-84.5 19q-85 3 -139 -45q-54 -54 -51 -145q-3 -92 51 -143q50 -47 133 -47q108 0 149 71q23 44 23 119z" />
    <glyph glyph-name="A" unicode="A" horiz-adv-x="1431" 
d="M1124 0l-106 333h-606l-105 -333h-264l484 1536h378l484 -1536h-265zM489 574h452l-228 712z" />
    <glyph glyph-name="B" unicode="B" horiz-adv-x="1363" 
d="M1167 738q55 -49 86 -124.5t29 -154.5q0 -221 -126 -340q-69 -67 -149 -93t-220 -26h-638v1536h608q103 0 181.5 -26.5t143.5 -88.5q127 -117 130 -314q1 -76 -28 -144.5t-77 -111.5q-14 -14 -55 -42q63 -25 115 -71zM755 1295h-345v-371h345q100 0 156 64q38 43 38 123
q0 82 -51 133t-143 51zM960 307q62 59 62 152q0 95 -53 155q-64 69 -173 69h-386v-440h379q104 0 171 64z" />
    <glyph glyph-name="C" unicode="C" horiz-adv-x="1559" 
d="M1231 516l252 -62q-61 -206 -209 -332q-177 -154 -470 -154q-168 0 -309 64.5t-235 185.5q-175 226 -175 550q0 346 173 553q99 123 239 185t307 62q290 0 467 -156q166 -141 222 -371l-258 -36q-25 87 -77 158q-121 159 -337 162q-108 2 -202 -40t-152 -122
q-115 -144 -111 -395q4 -258 111 -395q57 -79 150.5 -119.5t203.5 -42.5q214 -3 337 162q46 62 73 143z" />
    <glyph glyph-name="D" unicode="D" horiz-adv-x="1493" 
d="M1391 766q0 166 -50 312t-151 253q-186 205 -505 205h-536v-1536h532q153 0 286.5 52t227.5 155q96 103 146 250.5t50 308.5zM1120 766q-3 -257 -124 -395q-112 -123 -315 -130l-269 2v1048l271 2q102 -3 178 -32t137 -98q122 -142 122 -397z" />
    <glyph glyph-name="E" unicode="E" horiz-adv-x="1290" 
d="M1141 1295h-736v-380h608v-239h-608v-435h736v-241h-992v1536h992v-241z" />
    <glyph glyph-name="F" unicode="F" horiz-adv-x="1115" 
d="M1073 1280h-668v-384h540v-256h-540v-640h-256v1536h924v-256z" />
    <glyph glyph-name="G" unicode="G" horiz-adv-x="1610" 
d="M1523 806l2 -81q0 -314 -181 -529q-193 -228 -540 -228q-169 0 -310.5 65t-235.5 187q-173 230 -173 548q0 342 173 553q199 247 546 247q293 0 467 -156q159 -131 212 -345l-280 -43q-34 107 -100 171q-108 108 -282 108q-104 0 -194.5 -40t-146.5 -117
q-101 -131 -105 -378q4 -244 105 -378q56 -77 147 -117t194 -38q171 -3 282 108q101 97 122 261h-320v202h618z" />
    <glyph glyph-name="H" unicode="H" horiz-adv-x="1540" 
d="M1133 1536h258v-1536h-258v649h-728v-649h-256v1536h256v-646h728v646z" />
    <glyph glyph-name="I" unicode="I" horiz-adv-x="597" 
d="M171 1536h256v-1536h-256v1536z" />
    <glyph glyph-name="J" unicode="J" horiz-adv-x="1068" 
d="M898 1536h-264v-1035q0 -86 -3 -120.5t-17 -69.5q-20 -47 -68.5 -74.5t-99.5 -27.5q-62 0 -115 38q-64 50 -77 122l-254 -62q25 -87 79.5 -160t131.5 -117q96 -62 235 -62q262 0 392 215q42 76 51 134t9 184v1035z" />
    <glyph glyph-name="K" unicode="K" horiz-adv-x="1403" 
d="M1404 0h-327l-514 653h-153v-653h-261v1536h261v-642h151l469 642h318l-550 -759z" />
    <glyph glyph-name="L" unicode="L" horiz-adv-x="1137" 
d="M427 1536h-256v-1536h934v241h-678v1295z" />
    <glyph glyph-name="M" unicode="M" horiz-adv-x="1824" 
d="M1675 1536v-1536h-241v986l-470 -986h-102l-472 983v-983h-241v1536h231l533 -1088l531 1088h231z" />
    <glyph glyph-name="N" unicode="N" horiz-adv-x="1531" 
d="M410 1536l712 -1082v1082h260v-1536h-260l-712 1084v-1084h-261v1536h261z" />
    <glyph glyph-name="O" unicode="O" horiz-adv-x="1640" 
d="M821 -32q-169 0 -316.5 64t-242.5 186q-177 216 -177 550q0 337 177 553q97 122 243.5 184.5t315.5 62.5q168 0 314 -63t245 -184q172 -215 175 -553q-3 -337 -175 -550q-100 -123 -247 -186.5t-312 -63.5zM821 211q107 -2 201 40t153 122q109 147 109 395
q0 251 -109 395q-59 80 -152.5 121t-201.5 41q-108 2 -202 -40t-154 -122q-113 -145 -109 -395q0 -252 109 -395q59 -80 153 -121t203 -41z" />
    <glyph glyph-name="P" unicode="P" horiz-adv-x="1363" 
d="M1143 1406q81 -76 117.5 -164t38.5 -205q0 -104 -36.5 -196.5t-99.5 -157.5q-139 -145 -378 -145h-380v-538h-256v1536h636q123 0 207 -32.5t151 -97.5zM981 868q56 66 56 169q0 115 -62 185q-62 71 -184 71h-386v-514h386q52 0 103.5 23t86.5 66z" />
    <glyph glyph-name="Q" unicode="Q" horiz-adv-x="1640" 
d="M1555 768q-3 -319 -156 -527l111 -111l-157 -162l-118 117q-181 -117 -414 -117q-169 0 -316.5 64t-242.5 186q-177 216 -177 550q0 337 177 553q97 122 243.5 184.5t315.5 62.5q168 0 314 -63t245 -184q172 -215 175 -553zM821 211q125 -3 231 56l-139 138l162 160
l137 -136q72 136 72 339q0 251 -109 395q-59 80 -152.5 121t-201.5 41q-108 2 -202 -40t-154 -122q-113 -145 -109 -395q0 -252 109 -395q59 -80 153 -121t203 -41z" />
    <glyph glyph-name="R" unicode="R" horiz-adv-x="1365" 
d="M1033 0l-261 538h-367v-538h-256v1536h636q123 0 207 -32.5t151 -97.5q81 -76 117.5 -164t38.5 -205q0 -104 -36.5 -196.5t-99.5 -157.5q-61 -61 -128 -94l288 -589h-290zM405 1293v-514h386q52 0 103.5 23t86.5 66q56 66 56 169q0 115 -62 185q-62 71 -184 71h-386z" />
    <glyph glyph-name="S" unicode="S" horiz-adv-x="1403" 
d="M1308 1148l-258 -71q-35 71 -69 115t-87 75q-96 58 -196 58q-114 3 -195 -43q-44 -26 -67.5 -65.5t-23.5 -81.5q0 -56 36 -92q46 -46 186 -87l268 -77q187 -55 282 -147q139 -133 139 -316q0 -99 -52 -194t-140 -156q-146 -98 -414 -98q-324 0 -497 205q-96 112 -139 290
l260 70q24 -120 84 -194q47 -63 129.5 -96.5t170.5 -33.5q69 0 140 18t114 50q71 55 71 148q0 72 -52 121q-59 53 -153 77l-284 83q-191 54 -292 143q-63 54 -95.5 132t-32.5 160q0 117 68.5 217.5t174.5 149.5q126 60 318 60q189 -4 320 -77q194 -105 286 -343z" />
    <glyph glyph-name="T" unicode="T" horiz-adv-x="1294" 
d="M1274 1536v-241h-497v-1295h-259v1295h-497v241h1253z" />
    <glyph glyph-name="U" unicode="U" horiz-adv-x="1536" 
d="M1387 1536v-966q0 -226 -130 -389q-82 -105 -211 -159t-276 -54q-146 0 -276.5 54.5t-214.5 158.5q-61 79 -95.5 183t-34.5 206v964l261 2v-943q0 -144 74 -245q45 -66 122.5 -102.5t163.5 -36.5q82 0 157.5 37t126.5 102q72 98 72 245v943h261z" />
    <glyph glyph-name="V" unicode="V" horiz-adv-x="1367" 
d="M495 0l-484 1536h264l406 -1286l411 1286h265l-484 -1536h-378z" />
    <glyph glyph-name="W" unicode="W" horiz-adv-x="2082" 
d="M1788 1536h269l-448 -1536h-254l-316 1092l-312 -1092h-253l-448 1536h268l305 -1109l306 1107l268 2l308 -1109z" />
    <glyph glyph-name="X" unicode="X" horiz-adv-x="1399" 
d="M860 777l518 -777h-316l-360 559l-365 -559h-316l521 777l-506 759h314l352 -540l345 540h318z" />
    <glyph glyph-name="Y" unicode="Y" horiz-adv-x="1305" 
d="M1005 1536h301l-523 -907v-629h-260v629l-523 907h301l352 -612z" />
    <glyph glyph-name="Z" unicode="Z" horiz-adv-x="1386" 
d="M457 243h802v-243h-1131v243l802 1052h-802v241h1131v-243z" />
    <glyph glyph-name="bracketleft" unicode="[" horiz-adv-x="904" 
d="M766 1685h-239v-1909h239v-228h-467v2366h467v-229z" />
    <glyph glyph-name="backslash" unicode="\" horiz-adv-x="923" 
d="M386 1536l410 -1536h-258l-410 1536h258z" />
    <glyph glyph-name="bracketright" unicode="]" horiz-adv-x="904" 
d="M606 1914v-2366h-465v228h237v1909h-237v229h465z" />
    <glyph glyph-name="asciicircum" unicode="^" horiz-adv-x="1450" 
d="M224 1056l512 512l514 -512l-124 -122l-390 389l-388 -389z" />
    <glyph glyph-name="underscore" unicode="_" horiz-adv-x="1408" 
d="M0 -58h1408v-202h-1408v202z" />
    <glyph glyph-name="a" unicode="a" horiz-adv-x="1228" 
d="M1101 0h-224v151q-83 -102 -177.5 -142.5t-234.5 -40.5q-173 0 -276.5 96.5t-103.5 257.5q0 234 203 329q41 19 93 34.5t118.5 27.5t112 19.5t125.5 18.5t108 15q-11 83 -73 129t-168 46q-179 0 -299 -120l-151 171q189 192 471 192q90 0 178 -34t151 -88
q147 -124 147 -369v-693zM806 333q19 32 28.5 74.5t11 72t1.5 83.5q-186 -32 -318 -62q-84 -17 -137 -57t-53 -103q0 -69 53 -113.5t133 -44.5q91 0 165 40.5t116 109.5z" />
    <glyph glyph-name="b" unicode="b" horiz-adv-x="1341" 
d="M1124 1001q133 -170 133 -425q0 -256 -133 -425q-71 -87 -177 -135t-222 -48q-212 0 -347 119v-87h-229v1536h258v-448q139 96 310 96q121 0 228 -46.5t179 -136.5zM919 309q64 90 64 267q0 172 -68 267q-74 111 -237 111q-141 0 -217 -92q-83 -100 -83 -286
q0 -190 83 -284q81 -94 226 -94q158 0 232 111z" />
    <glyph glyph-name="c" unicode="c" horiz-adv-x="1228" 
d="M1163 817l-256 -70q-30 92 -96 143q-69 53 -160 53q-145 0 -222 -105q-71 -90 -71 -262q0 -170 71 -260q78 -107 222 -107q101 0 164 51q57 45 85 130l263 -57q-24 -81 -72.5 -152t-113.5 -119q-74 -52 -147.5 -73t-178.5 -21q-281 0 -427 190q-139 176 -139 418
q0 251 139 418q81 97 185 143.5t244 46.5q94 0 161 -16.5t137 -60.5q169 -105 212 -290z" />
    <glyph glyph-name="d" unicode="d" horiz-adv-x="1341" 
d="M934 1536h259v-1536h-227v90q-135 -122 -349 -122q-116 0 -222 48t-177 135q-133 169 -133 425q0 255 133 425q72 90 179 136.5t228 46.5q170 0 309 -96v448zM881 292q83 94 83 284q0 186 -83 286q-76 92 -218 92q-162 0 -236 -111q-69 -97 -69 -267q0 -177 64 -267
q38 -56 99.5 -83.5t133.5 -27.5q145 0 226 94z" />
    <glyph glyph-name="e" unicode="e" horiz-adv-x="1284" 
d="M363 503q11 -121 64 -187q81 -107 232 -107q108 0 177 53q64 49 92 111l254 -76q-66 -153 -203 -242q-138 -87 -307 -87q-132 0 -252.5 50t-195.5 142q-139 170 -139 403q0 264 139 431q77 93 190.5 141.5t244.5 48.5q259 0 410 -181q151 -179 126 -500h-832zM659 960
q-145 0 -230 -105q-48 -64 -62 -149h570q-6 92 -54 158q-37 47 -97 71.5t-127 24.5z" />
    <glyph glyph-name="f" unicode="f" horiz-adv-x="857" 
d="M663 1342q-80 -12 -110 -54t-30 -117v-19h313v-201h-313v-951h-256v951h-246v201h246q0 199 106 305q81 79 196 100.5t267 6.5v-222q-97 16 -173 0z" />
    <glyph glyph-name="g" unicode="g" horiz-adv-x="1339" 
d="M964 1152h226v-1207q0 -145 -48.5 -243t-153.5 -161q-139 -83 -337 -83q-69 0 -142 20t-127 55q-57 28 -107 73t-81 100l237 115q18 -31 58 -64q30 -27 76 -41.5t88 -14.5q128 0 200 60q46 36 63.5 78.5t15.5 109.5v113q-128 -94 -318 -94q-115 0 -220.5 48t-175.5 135
q-133 166 -133 425q0 255 133 425q70 90 177 136.5t230 46.5q94 0 182.5 -32t156.5 -90v90zM655 198q145 0 226 94q83 94 83 284q0 186 -83 286q-79 92 -218 92q-162 0 -236 -111q-69 -97 -69 -267q0 -177 64 -267q38 -56 99.5 -83.5t133.5 -27.5z" />
    <glyph glyph-name="h" unicode="h" 
d="M1067 1067q48 -44 78 -102t42.5 -132.5t16 -131.5t3.5 -144v-557h-260v546q0 245 -92 331q-72 69 -192 66q-91 -3 -151 -53q-68 -52 -92 -160q-13 -65 -13 -229v-501h-258v1536h229v-512q10 15 23 28q55 62 133.5 94.5t160.5 35.5q235 16 372 -115z" />
    <glyph glyph-name="i" unicode="i" horiz-adv-x="597" 
d="M171 1559h256v-236h-256v236zM171 1152h256v-1152h-256v1152z" />
    <glyph glyph-name="j" unicode="j" horiz-adv-x="614" 
d="M205 1532h258v-235h-258v235zM0 -303v-241q250 -17 369 130q52 64 73 140.5t21 188.5v1237h-258v-1207q0 -82 -10.5 -127t-47.5 -80q-28 -27 -73 -36t-74 -5z" />
    <glyph glyph-name="k" unicode="k" horiz-adv-x="1173" 
d="M412 467v-467h-263l2 1536h261v-828h134l303 444h288l-382 -563l418 -589h-294l-333 467h-134z" />
    <glyph glyph-name="l" unicode="l" horiz-adv-x="554" 
d="M149 0h256v1568h-256v-1568z" />
    <glyph glyph-name="m" unicode="m" horiz-adv-x="1926" 
d="M1681 1079q73 -72 95 -157t22 -218l-2 -704h-258v687q0 74 -14 120t-52 83q-57 61 -151 61q-48 0 -91.5 -19t-71.5 -53q-55 -62 -55 -171v-4v-704h-260v687q0 74 -13.5 120t-50.5 83q-57 61 -154 61q-99 0 -162 -72q-56 -63 -56 -171v-708h-258v1152h229v-122
q59 70 146 110t182 40q78 0 154.5 -25t127.5 -76q40 -40 62 -81q59 86 152.5 134t199.5 48q78 0 154 -25t125 -76z" />
    <glyph glyph-name="n" unicode="n" 
d="M1069 1067q39 -35 66 -83.5t40.5 -93.5t21 -110t9 -109t1.5 -114v-557h-260v546q0 248 -92 331q-69 69 -192 66q-88 -3 -151 -53q-70 -56 -90 -160q-12 -51 -12 -227v-2v-501h-259v1152h227v-130q3 3 25 30q53 62 132 94.5t163 35.5q233 16 371 -115z" />
    <glyph glyph-name="o" unicode="o" horiz-adv-x="1318" 
d="M659 -32q-130 0 -243.5 49.5t-191.5 142.5q-139 169 -139 416q0 251 139 418q75 91 190.5 140.5t244.5 49.5t243.5 -48.5t191.5 -141.5q139 -170 139 -418q0 -243 -139 -416q-79 -94 -191.5 -143t-243.5 -49zM962 576q0 167 -72 262q-37 51 -98.5 78t-132.5 27
q-153 0 -230 -105q-71 -90 -71 -262q0 -170 71 -260q38 -52 98 -79.5t132 -27.5q71 0 132 28t99 79q72 95 72 260z" />
    <glyph glyph-name="p" unicode="p" horiz-adv-x="1341" 
d="M1124 1001q133 -170 133 -425q0 -256 -133 -425q-71 -87 -177 -135t-222 -48q-187 0 -318 96v-576h-258v1664h229v-87q146 119 339 119q121 0 228 -46.5t179 -136.5zM919 309q64 90 64 267q0 172 -68 267q-74 111 -237 111q-141 0 -217 -92q-83 -100 -83 -286
q0 -190 83 -284q81 -94 226 -94q158 0 232 111z" />
    <glyph glyph-name="q" unicode="q" horiz-adv-x="1341" 
d="M966 1152h227v-1664h-259v576q-131 -96 -317 -96q-116 0 -222 48t-177 135q-133 169 -133 425q0 255 133 425q72 90 179 136.5t228 46.5q195 0 341 -122v90zM655 198q145 0 226 94q83 94 83 284q0 186 -83 286q-76 92 -218 92q-162 0 -236 -111q-69 -97 -69 -267
q0 -177 64 -267q38 -56 99.5 -83.5t133.5 -27.5z" />
    <glyph glyph-name="r" unicode="r" horiz-adv-x="947" 
d="M713 1182q88 6 181 -30v-239q-87 36 -207 30q-125 -9 -194 -81q-86 -89 -86 -265v-597h-258v1152h229v-160q46 77 115 122q95 65 220 68z" />
    <glyph glyph-name="s" unicode="s" horiz-adv-x="1160" 
d="M1067 849l-241 -60q-66 166 -261 173q-80 3 -143.5 -28.5t-63.5 -82.5q0 -42 34 -62.5t107 -39.5l220 -62q166 -46 261 -136.5t95 -224.5q0 -85 -43 -160.5t-117 -120.5q-119 -77 -305 -77q-267 0 -401 149q-89 96 -124 235l231 62q27 -91 74 -141q81 -81 224 -81
q45 0 97 11t78 32q54 35 54 89q0 27 -13 47.5t-40 34.5t-51.5 22.5t-64.5 19.5q-10 3 -15 4q-256 73 -279 81q-138 58 -192 122q-31 35 -46.5 88.5t-15.5 99.5q0 101 56.5 179.5t146.5 118.5q98 43 249 43q133 0 245 -58q83 -39 148 -113.5t96 -163.5z" />
    <glyph glyph-name="t" unicode="t" horiz-adv-x="923" 
d="M486 951v-467v-36.5v-37t0.5 -30.5t2 -32t4.5 -25t7 -26t10 -20q37 -62 126 -70q91 -6 190 8v-215q-63 -17 -159.5 -19t-156.5 10q-81 13 -135 46t-98 100q-14 22 -23.5 48.5t-14.5 47.5t-7 57t-2.5 54t0 64t0.5 63v480h-209v201h209v320h256v-320h340v-201h-340z" />
    <glyph glyph-name="u" unicode="u" 
d="M926 1152h260v-1152h-228v130q-8 -8 -26 -30q-53 -62 -131.5 -94.5t-162.5 -35.5q-231 -16 -371 115q-48 44 -78 102t-42 132.5t-15.5 131t-3.5 144.5v557h260v-546q0 -248 92 -331q69 -69 192 -66q84 3 151 53q70 56 90 160q13 55 13 227v2v501z" />
    <glyph glyph-name="v" unicode="v" horiz-adv-x="1181" 
d="M881 1152h258l-420 -1152h-256l-420 1152h258l290 -834z" />
    <glyph glyph-name="w" unicode="w" horiz-adv-x="1710" 
d="M1417 1152h251l-352 -1152h-215l-246 794l-260 -794h-200l-352 1154l254 -2l226 -738l226 738h215l229 -738z" />
    <glyph glyph-name="x" unicode="x" horiz-adv-x="1198" 
d="M1167 1152l-412 -570l423 -582h-312l-264 382l-269 -382h-312l423 582l-414 570h311l261 -369l253 369h312z" />
    <glyph glyph-name="y" unicode="y" horiz-adv-x="1209" 
d="M932 1152h256l-499 -1325q-40 -107 -79 -176t-94 -110q-48 -35 -106.5 -44t-174.5 -9v245q106 -3 149 28q32 23 57 66t60 139l-458 1186h258l318 -858z" />
    <glyph glyph-name="z" unicode="z" horiz-adv-x="1228" 
d="M1079 226v-226h-930v220l593 706h-593v226h930v-226l-590 -700h590z" />
    <glyph glyph-name="braceleft" unicode="{" horiz-adv-x="957" 
d="M870 -452v241h-125q-32 0 -53.5 21t-21.5 53v623q0 101 -58 182l-47 64l47 62q58 81 58 181v623q0 31 21.5 51.5t53.5 20.5h125v244h-145q-137 0 -217.5 -81t-80.5 -218v-640q0 -24 -13 -43l-94 -132q-21 -32 -21 -69t21 -68l94 -134q13 -16 13 -43v-640
q0 -137 80.5 -217.5t217.5 -80.5h145z" />
    <glyph glyph-name="bar" unicode="|" horiz-adv-x="640" 
d="M192 1536h256v-1536h-256v1536z" />
    <glyph glyph-name="braceright" unicode="}" horiz-adv-x="957" 
d="M87 -452h146q137 0 217.5 80.5t80.5 217.5v640q0 27 13 43l94 134q22 31 22 68t-22 69l-94 132q-13 19 -13 43v640q0 137 -80.5 218t-217.5 81h-146v-244h128q31 0 52 -20.5t21 -51.5v-623q0 -97 60 -181l45 -62l-45 -64q-60 -84 -60 -182v-623q0 -32 -21 -53t-52 -21
h-128v-241z" />
    <glyph glyph-name="asciitilde" unicode="~" horiz-adv-x="1527" 
d="M1263 845q13 -58 5.5 -125.5t-33.5 -113.5q-29 -47 -74 -80t-96 -44q-139 -32 -297 49q-18 8 -72 36t-87 39t-65 8q-49 -4 -64.5 -38t0.5 -75h-215q-13 57 -6 124.5t33 114.5q28 47 73.5 80t97.5 44q138 32 296 -49q20 -9 57 -28t59.5 -30t53.5 -19t57 -6q47 4 61.5 39
t-2.5 74h218z" />
    <glyph glyph-name="uni00A0" unicode="&#xa0;" horiz-adv-x="426" 
 />
    <glyph glyph-name="exclamdown" unicode="&#xa1;" horiz-adv-x="768" 
d="M256 915v237h256v-237h-256zM256 -384v1152h256v-1152h-256z" />
    <glyph glyph-name="cent" unicode="&#xa2;" horiz-adv-x="1228" 
d="M815 420q57 45 85 130l263 -57q-24 -81 -72.5 -152t-113.5 -119q-104 -73 -215 -88v-196h-201v194q-215 26 -337 186q-139 176 -139 418q0 251 139 418q129 159 337 184v198h201v-198q99 -13 189 -71q169 -105 212 -290l-256 -70q-30 92 -96 143q-69 53 -160 53
q-145 0 -222 -105q-71 -90 -71 -262q0 -170 71 -260q78 -107 222 -107q101 0 164 51z" />
    <glyph glyph-name="sterling" unicode="&#xa3;" horiz-adv-x="1309" 
d="M576 651v-410h506v-241h-954v241h30q64 0 111 48t47 112v250h-188v241h188v266q0 175 126 292.5t309 117.5q295 0 431 -388l-231 -77q-35 112 -81 167t-121 55q-76 0 -124.5 -50t-48.5 -129v-254h324v-241h-324z" />
    <glyph glyph-name="yen" unicode="&#xa5;" horiz-adv-x="1305" 
d="M1306 1536l-406 -704h190v-203h-307v-213h307v-203h-307v-213h-260v213h-308v203h308v213h-308v203h190l-405 704h301l352 -612l352 612h301z" />
    <glyph glyph-name="copyright" unicode="&#xa9;" horiz-adv-x="1932" 
d="M966 -145q180 0 343.5 70t281 188t187 281t69.5 342t-69.5 342t-187 281t-281 188t-343.5 70q-179 0 -342 -70t-281 -188t-188 -281t-70 -342t70 -342t188 -281t281 -188t342 -70zM966 96q-130 0 -248.5 50.5t-204.5 136.5t-136.5 204.5t-50.5 248.5t50.5 248.5
t136.5 204.5t204.5 136.5t248.5 50.5t248.5 -50.5t204.5 -136.5t136.5 -204.5t50.5 -248.5t-50.5 -248.5t-136.5 -204.5t-204.5 -136.5t-248.5 -50.5zM1370 913l-197 -51q-23 68 -70 104q-50 41 -120 41q-102 0 -162 -77q-51 -66 -51 -194q0 -126 51 -192q54 -77 162 -77
q81 0 124 36q37 32 62 96l201 -42q-44 -134 -141 -203q-56 -40 -111 -56t-135 -16q-208 0 -317 140q-105 132 -105 314q0 192 105 311q118 143 322 143q70 0 119.5 -12t102.5 -43q127 -77 160 -222z" />
    <glyph glyph-name="guillemotleft" unicode="&#xab;" horiz-adv-x="1250" 
d="M546 201l137 106l-290 365l290 365l-137 109l-375 -474zM981 201l139 106l-292 365l292 365l-139 109l-375 -474z" />
    <glyph glyph-name="registered" unicode="&#xae;" horiz-adv-x="1397" 
d="M698 1681q112 0 213.5 -43.5t175.5 -117t117.5 -175t43.5 -212.5q0 -112 -43.5 -214t-117.5 -175.5t-175.5 -117.5t-213.5 -44q-148 0 -274.5 74t-200.5 201t-74 276q0 148 74 274.5t200.5 200t274.5 73.5zM700 1510q-157 0 -268.5 -110.5t-111.5 -266.5t112 -268
t268 -112q155 0 267 112.5t112 267.5q0 156 -111.5 266.5t-267.5 110.5zM523 1387h213q78 0 124 -46.5t49 -122.5q0 -99 -90 -147l94 -190h-104l-84 173h-111v-173h-91v506zM614 1297v-156h124q32 0 53.5 21.5t21.5 55.5q0 38 -19.5 58.5t-55.5 20.5h-124z" />
    <glyph glyph-name="degree" unicode="&#xb0;" horiz-adv-x="960" 
d="M448 800q-159 0 -271.5 112.5t-112.5 271.5q0 156 115 270t269 114q159 0 271.5 -112.5t112.5 -271.5t-112.5 -271.5t-271.5 -112.5zM448 1020q68 0 116 48t48 116t-48 116t-116 48t-116 -48t-48 -116t48 -116t116 -48z" />
    <glyph glyph-name="plusminus" unicode="&#xb1;" horiz-adv-x="1280" 
d="M742 913h410v-203h-410v-241h-202v241h-412v203h412v239h202v-239zM128 139v200h1024v-200h-1024z" />
    <glyph glyph-name="periodcentered" unicode="&#xb7;" horiz-adv-x="1337" 
d="M672 516q-68 0 -114 44.5t-46 111.5t46 111.5t114 44.5q63 0 108.5 -45t45.5 -111t-45.5 -111t-108.5 -45z" />
    <glyph glyph-name="guillemotright" unicode="&#xbb;" horiz-adv-x="1250" 
d="M269 201l375 471l-375 474l-137 -109l290 -365l-290 -365zM704 201l375 471l-375 474l-137 -109l291 -365l-291 -365z" />
    <glyph glyph-name="questiondown" unicode="&#xbf;" horiz-adv-x="1179" 
d="M751 1152v-282h-271v282h271zM107 13q0 196 168 367q19 22 81.5 81.5t82.5 93.5q29 46 35 78.5t6 102.5h273q0 -162 -62 -271q-26 -49 -60 -83.5t-87.5 -78.5t-93.5 -85q-70 -81 -70 -199q0 -77 34 -119q54 -73 177 -73q98 0 151 47q63 50 60 145h271
q-10 -107 -57.5 -198t-125.5 -145q-122 -90 -291 -90q-265 0 -394 156q-46 55 -72 126t-26 145z" />
    <glyph glyph-name="Agrave" unicode="&#xc0;" horiz-adv-x="1431" 
d="M1054 1862l-68 -187l-570 204l64 188zM1124 0l-104 333h-604l-107 -333h-266l484 1536h378l484 -1536h-265zM493 574h450l-224 712z" />
    <glyph glyph-name="Aacute" unicode="&#xc1;" horiz-adv-x="1431" 
d="M1015 1879l-569 -204l-66 187l571 205zM1124 0l-106 333h-606l-105 -333h-264l484 1536h378l484 -1536h-265zM489 574h452l-228 712z" />
    <glyph glyph-name="Acircumflex" unicode="&#xc2;" horiz-adv-x="1431" 
d="M717 1824l-271 -147l-94 177l365 198l362 -198l-91 -177zM1124 0l-106 333h-606l-105 -333h-264l484 1536h378l484 -1536h-265zM489 574h452l-228 712z" />
    <glyph glyph-name="Atilde" unicode="&#xc3;" horiz-adv-x="1431" 
d="M516 1807h-153q-10 41 -5 88t24 80q44 71 121 88q98 24 210 -34q14 -6 51.5 -26t61.5 -28t47 -6q34 3 45 28.5t-1 52.5h154q9 -40 4 -88.5t-25 -79.5q-42 -72 -120 -90q-93 -22 -211 34q-9 4 -39 20.5t-43 22.5t-35.5 12t-40.5 5q-35 -3 -46 -27t1 -52zM1124 0l-106 333
h-606l-105 -333h-264l484 1536h378l484 -1536h-265zM489 574h452l-228 712z" />
    <glyph glyph-name="Adieresis" unicode="&#xc4;" horiz-adv-x="1431" 
d="M614 2027v-235h-234v235h234zM1054 2027v-235h-235v235h235zM1124 0l-106 333h-606l-105 -333h-264l484 1536h378l484 -1536h-265zM489 574h452l-228 712z" />
    <glyph glyph-name="Aring" unicode="&#xc5;" horiz-adv-x="1431" 
d="M1124 0l-106 333h-606l-105 -333h-264l454 1444q-92 92 -92 220t92 219.5t220 91.5t219.5 -91.5t91.5 -219.5q0 -133 -94 -222l455 -1442h-265zM717 1792q-53 0 -90.5 -38t-37.5 -90t37.5 -90t90.5 -38t90.5 38t37.5 90t-37.5 90t-90.5 38zM489 574h452l-228 712z" />
    <glyph glyph-name="AE" unicode="&#xc6;" horiz-adv-x="2043" 
d="M1894 1295h-733v-380h605v-239h-605v-435h733v-241h-992v256h-514l-81 -256h-264l484 1536h1367v-241zM465 497h437v783h-189z" />
    <glyph glyph-name="Ccedilla" unicode="&#xc7;" horiz-adv-x="1559" 
d="M1158 373q46 62 73 143l252 -62q-61 -206 -209 -332q-154 -132 -382 -150l-22 -62q69 -34 103 -91q30 -53 26.5 -119.5t-37.5 -115.5q-37 -53 -92.5 -79t-118.5 -19q-60 5 -122 38l56 152q47 -15 68 -15q40 0 56 25q16 22 8 49q-5 16 -16 28t-33 21.5t-37.5 15
t-49.5 14.5l55 156q-146 13 -269 76.5t-207 171.5q-175 226 -175 550q0 346 173 553q99 123 239 185t307 62q290 0 467 -156q166 -141 222 -371l-258 -36q-25 87 -77 158q-121 159 -337 162q-108 2 -202 -40t-152 -122q-115 -144 -111 -395q4 -258 111 -395
q57 -79 150.5 -119.5t203.5 -42.5q214 -3 337 162z" />
    <glyph glyph-name="Egrave" unicode="&#xc8;" horiz-adv-x="1290" 
d="M971 1862l-66 -187l-570 204l64 188zM1141 1295h-736v-380h608v-239h-608v-435h736v-241h-992v1536h992v-241z" />
    <glyph glyph-name="Eacute" unicode="&#xc9;" horiz-adv-x="1290" 
d="M947 1879l-569 -204l-67 187l572 205zM1141 1295h-736v-380h608v-239h-608v-435h736v-241h-992v1536h992v-241z" />
    <glyph glyph-name="Ecircumflex" unicode="&#xca;" horiz-adv-x="1290" 
d="M634 1824l-271 -147l-94 177l365 198l362 -198l-94 -177zM1141 1295h-736v-380h608v-239h-608v-435h736v-241h-992v1536h992v-241z" />
    <glyph glyph-name="Edieresis" unicode="&#xcb;" horiz-adv-x="1290" 
d="M535 2027v-235h-234v235h234zM977 2027v-235h-235v235h235zM1141 1295h-736v-380h608v-239h-608v-435h736v-241h-992v1536h992v-241z" />
    <glyph glyph-name="Igrave" unicode="&#xcc;" horiz-adv-x="597" 
d="M561 1675l66 187l-572 205l-66 -188zM171 1536h256v-1536h-256v1536z" />
    <glyph glyph-name="Iacute" unicode="&#xcd;" horiz-adv-x="597" 
d="M36 1675l570 204l-64 188l-574 -205zM171 1536h256v-1536h-256v1536z" />
    <glyph glyph-name="Icircumflex" unicode="&#xce;" horiz-adv-x="597" 
d="M28 1677l271 147l271 -147l93 177l-364 198l-363 -198zM171 1536h256v-1536h-256v1536z" />
    <glyph glyph-name="Idieresis" unicode="&#xcf;" horiz-adv-x="597" 
d="M-38 2027h234v-235h-234v235zM403 2027h235v-235h-235v235zM171 1536h256v-1536h-256v1536z" />
    <glyph glyph-name="Eth" unicode="&#xd0;" horiz-adv-x="1497" 
d="M1193 1331q202 -211 202 -565q0 -161 -50.5 -308.5t-147.5 -250.5q-93 -103 -226.5 -155t-285.5 -52h-531v668h-133v202h133v666h533q323 0 506 -205zM1001 371q121 141 121 395q0 253 -119 397q-60 68 -137 97.5t-179 32.5l-273 -2v-421h328v-202h-328v-425l271 -2
q204 7 316 130z" />
    <glyph glyph-name="Ntilde" unicode="&#xd1;" horiz-adv-x="1531" 
d="M1143 1997q10 -41 5 -89t-24 -80q-45 -72 -121 -89q-93 -22 -209 34q-13 6 -41 21t-43 22t-36.5 12.5t-39.5 4.5q-35 -3 -46 -27t1 -52h-154q-20 100 22 168q41 70 119 88q96 22 211 -35q13 -6 40 -20t42 -21.5t37 -13t41 -4.5q33 3 44 28.5t-1 52.5h153zM410 1536
l712 -1082v1082h260v-1536h-260l-712 1084v-1084h-261v1536h261z" />
    <glyph glyph-name="Ograve" unicode="&#xd2;" horiz-adv-x="1640" 
d="M1116 1675l68 187l-574 205l-64 -188zM821 -32q-169 0 -316.5 64t-242.5 186q-177 216 -177 550q0 337 177 553q97 122 243.5 184.5t315.5 62.5q168 0 314 -63t245 -184q172 -215 175 -553q-3 -337 -175 -550q-100 -123 -247 -186.5t-312 -63.5zM821 211q107 -2 201 40
t153 122q109 147 109 395q0 251 -109 395q-59 80 -152.5 121t-201.5 41q-108 2 -202 -40t-154 -122q-113 -145 -109 -395q0 -252 109 -395q59 -80 153 -121t203 -41z" />
    <glyph glyph-name="Oacute" unicode="&#xd3;" horiz-adv-x="1640" 
d="M591 1675l572 204l-66 188l-572 -205zM821 -32q-169 0 -316.5 64t-242.5 186q-177 216 -177 550q0 337 177 553q97 122 243.5 184.5t315.5 62.5q168 0 314 -63t245 -184q172 -215 175 -553q-3 -337 -175 -550q-100 -123 -247 -186.5t-312 -63.5zM821 211q107 -2 201 40
t153 122q109 147 109 395q0 251 -109 395q-59 80 -152.5 121t-201.5 41q-108 2 -202 -40t-154 -122q-113 -145 -109 -395q0 -252 109 -395q59 -80 153 -121t203 -41z" />
    <glyph glyph-name="Ocircumflex" unicode="&#xd4;" horiz-adv-x="1640" 
d="M550 1677l271 147l269 -147l94 177l-363 198l-364 -198zM821 -32q-169 0 -316.5 64t-242.5 186q-177 216 -177 550q0 337 177 553q97 122 243.5 184.5t315.5 62.5q168 0 314 -63t245 -184q172 -215 175 -553q-3 -337 -175 -550q-100 -123 -247 -186.5t-312 -63.5z
M821 211q107 -2 201 40t153 122q109 147 109 395q0 251 -109 395q-59 80 -152.5 121t-201.5 41q-108 2 -202 -40t-154 -122q-113 -145 -109 -395q0 -252 109 -395q59 -80 153 -121t203 -41z" />
    <glyph glyph-name="Otilde" unicode="&#xd5;" horiz-adv-x="1640" 
d="M1175 2050q9 -40 4 -88.5t-25 -79.5q-42 -73 -119 -90q-93 -22 -212 34q-10 5 -39 21t-42.5 22t-35.5 12t-40 5q-35 -3 -46 -27t1 -52h-154q-10 41 -5 88t24 80q44 70 122 88q97 24 209 -34q14 -6 51.5 -26t61.5 -28t47 -6q34 3 45.5 28.5t-0.5 52.5h153zM821 -32
q-169 0 -316.5 64t-242.5 186q-177 216 -177 550q0 337 177 553q97 122 243.5 184.5t315.5 62.5q168 0 314 -63t245 -184q172 -215 175 -553q-3 -337 -175 -550q-100 -123 -247 -186.5t-312 -63.5zM821 211q107 -2 201 40t153 122q109 147 109 395q0 251 -109 395
q-59 80 -152.5 121t-201.5 41q-108 2 -202 -40t-154 -122q-113 -145 -109 -395q0 -252 109 -395q59 -80 153 -121t203 -41z" />
    <glyph glyph-name="Odieresis" unicode="&#xd6;" horiz-adv-x="1640" 
d="M482 2027h235v-235h-235v235zM924 2027h234v-235h-234v235zM821 -32q-169 0 -316.5 64t-242.5 186q-177 216 -177 550q0 337 177 553q97 122 243.5 184.5t315.5 62.5q168 0 314 -63t245 -184q172 -215 175 -553q-3 -337 -175 -550q-100 -123 -247 -186.5t-312 -63.5z
M821 211q107 -2 201 40t153 122q109 147 109 395q0 251 -109 395q-59 80 -152.5 121t-201.5 41q-108 2 -202 -40t-154 -122q-113 -145 -109 -395q0 -252 109 -395q59 -80 153 -121t203 -41z" />
    <glyph glyph-name="multiply" unicode="&#xd7;" horiz-adv-x="1083" 
d="M954 1039l-269 -269l269 -271l-143 -143l-269 271l-271 -271l-143 143l271 271l-269 269l143 141l269 -269l269 269z" />
    <glyph glyph-name="Oslash" unicode="&#xd8;" horiz-adv-x="1640" 
d="M1600 1363l-149 -149q101 -180 104 -446q-3 -337 -175 -550q-100 -123 -247 -186.5t-312 -63.5q-275 0 -465 154l-121 -122l-171 171l137 136q-116 197 -116 461q0 337 177 553q97 122 243.5 184.5t315.5 62.5q283 0 476 -164l132 132zM356 768q0 -152 41 -265l721 722
q-123 100 -297 100q-108 2 -202 -40t-154 -122q-113 -145 -109 -395zM1284 768q0 131 -34 245l-715 -712q119 -90 286 -90q107 -2 201 40t153 122q109 147 109 395z" />
    <glyph glyph-name="Ugrave" unicode="&#xd9;" horiz-adv-x="1536" 
d="M1071 1675l66 187l-572 205l-64 -188zM1387 1536v-966q0 -226 -130 -389q-82 -105 -211 -159t-276 -54q-146 0 -276.5 54.5t-214.5 158.5q-61 79 -95.5 183t-34.5 206v964l261 2v-943q0 -144 74 -245q45 -66 122.5 -102.5t163.5 -36.5q82 0 157.5 37t126.5 102
q72 98 72 245v943h261z" />
    <glyph glyph-name="Uacute" unicode="&#xda;" horiz-adv-x="1536" 
d="M550 1675l570 204l-64 188l-574 -205zM1387 1536v-966q0 -226 -130 -389q-82 -105 -211 -159t-276 -54q-146 0 -276.5 54.5t-214.5 158.5q-61 79 -95.5 183t-34.5 206v964l261 2v-943q0 -144 74 -245q45 -66 122.5 -102.5t163.5 -36.5q82 0 157.5 37t126.5 102
q72 98 72 245v943h261z" />
    <glyph glyph-name="Ucircumflex" unicode="&#xdb;" horiz-adv-x="1536" 
d="M529 1677l271 147l269 -147l94 177l-363 198l-365 -198zM1387 1536v-966q0 -226 -130 -389q-82 -105 -211 -159t-276 -54q-146 0 -276.5 54.5t-214.5 158.5q-61 79 -95.5 183t-34.5 206v964l261 2v-943q0 -144 74 -245q45 -66 122.5 -102.5t163.5 -36.5q82 0 157.5 37
t126.5 102q72 98 72 245v943h261z" />
    <glyph glyph-name="Udieresis" unicode="&#xdc;" horiz-adv-x="1536" 
d="M431 2027h235v-235h-235v235zM870 2027h235v-235h-235v235zM1387 1536v-966q0 -226 -130 -389q-82 -105 -211 -159t-276 -54q-146 0 -276.5 54.5t-214.5 158.5q-61 79 -95.5 183t-34.5 206v964l261 2v-943q0 -144 74 -245q45 -66 122.5 -102.5t163.5 -36.5q82 0 157.5 37
t126.5 102q72 98 72 245v943h261z" />
    <glyph glyph-name="Yacute" unicode="&#xdd;" horiz-adv-x="1305" 
d="M422 1675l572 204l-66 188l-572 -205zM1005 1536h301l-523 -907v-629h-260v629l-523 907h301l352 -612z" />
    <glyph glyph-name="Thorn" unicode="&#xde;" horiz-adv-x="1344" 
d="M1280 768q3 -164 -105 -303q-69 -89 -175 -141.5t-226 -52.5h-364v-271h-261v1536h261v-269h364q83 0 158 -23q146 -47 239 -169q51 -63 79 -144t30 -163zM966 610q57 75 54 158q-3 105 -66 171q-35 38 -84 62.5t-96 24.5h-364v-516h364q49 0 102.5 27t89.5 73z" />
    <glyph glyph-name="germandbls" unicode="&#xdf;" horiz-adv-x="1354" 
d="M149 0v1152q0 94 47 183t128 146q124 87 301 87q175 0 301 -92q82 -60 129.5 -152.5t47.5 -188.5q0 -93 -43 -171q-30 -64 -87 -115q98 -54 162 -126q92 -111 92 -271q0 -226 -167 -347q-85 -60 -190 -82.5t-241 -22.5h-89v252h89q167 0 248 55q83 53 83 158
q0 121 -105 181q-81 49 -230 56v224q113 23 169 81q49 52 49 124q0 45 -22 85.5t-57 67.5q-63 43 -139 43q-80 0 -139 -43q-35 -24 -55.5 -64t-20.5 -77v-1143h-261z" />
    <glyph glyph-name="agrave" unicode="&#xe0;" horiz-adv-x="1228" 
d="M958 1291l66 187l-572 205l-64 -188zM1101 0h-224v151q-83 -102 -177.5 -142.5t-234.5 -40.5q-173 0 -276.5 96.5t-103.5 257.5q0 234 203 329q41 19 93 34.5t118.5 27.5t112 19.5t125.5 18.5t108 15q-11 83 -73 129t-168 46q-179 0 -299 -120l-151 171q189 192 471 192
q90 0 178 -34t151 -88q147 -124 147 -369v-693zM806 333q19 32 28.5 74.5t11 72t1.5 83.5q-186 -32 -318 -62q-84 -17 -137 -57t-53 -103q0 -69 53 -113.5t133 -44.5q91 0 165 40.5t116 109.5z" />
    <glyph glyph-name="aacute" unicode="&#xe1;" horiz-adv-x="1228" 
d="M401 1291l570 204l-64 188l-572 -205zM1101 0h-224v151q-83 -102 -177.5 -142.5t-234.5 -40.5q-173 0 -276.5 96.5t-103.5 257.5q0 234 203 329q41 19 93 34.5t118.5 27.5t112 19.5t125.5 18.5t108 15q-11 83 -73 129t-168 46q-179 0 -299 -120l-151 171q189 192 471 192
q90 0 178 -34t151 -88q147 -124 147 -369v-693zM806 333q19 32 28.5 74.5t11 72t1.5 83.5q-186 -32 -318 -62q-84 -17 -137 -57t-53 -103q0 -69 53 -113.5t133 -44.5q91 0 165 40.5t116 109.5z" />
    <glyph glyph-name="acircumflex" unicode="&#xe2;" horiz-adv-x="1228" 
d="M365 1293l271 147l271 -147l94 177l-365 198l-363 -198zM1101 0h-224v151q-83 -102 -177.5 -142.5t-234.5 -40.5q-173 0 -276.5 96.5t-103.5 257.5q0 234 203 329q41 19 93 34.5t118.5 27.5t112 19.5t125.5 18.5t108 15q-11 83 -73 129t-168 46q-179 0 -299 -120
l-151 171q189 192 471 192q90 0 178 -34t151 -88q147 -124 147 -369v-693zM806 333q19 32 28.5 74.5t11 72t1.5 83.5q-186 -32 -318 -62q-84 -17 -137 -57t-53 -103q0 -69 53 -113.5t133 -44.5q91 0 165 40.5t116 109.5z" />
    <glyph glyph-name="atilde" unicode="&#xe3;" horiz-adv-x="1228" 
d="M992 1613q9 -40 4.5 -89t-23.5 -80q-45 -72 -122 -89q-93 -22 -209 34q-13 6 -41 21t-43 22t-36.5 12.5t-39.5 4.5q-35 -3 -46 -27t1 -52h-153q-20 100 19 168q44 70 122 88q96 23 209 -35q15 -7 41.5 -20.5t42.5 -21t37.5 -13t40.5 -4.5q33 3 43.5 28.5t-1.5 52.5h154z
M1101 0h-224v151q-83 -102 -177.5 -142.5t-234.5 -40.5q-173 0 -276.5 96.5t-103.5 257.5q0 234 203 329q41 19 93 34.5t118.5 27.5t112 19.5t125.5 18.5t108 15q-11 83 -73 129t-168 46q-179 0 -299 -120l-151 171q189 192 471 192q90 0 178 -34t151 -88q147 -124 147 -369
v-693zM806 333q19 32 28.5 74.5t11 72t1.5 83.5q-186 -32 -318 -62q-84 -17 -137 -57t-53 -103q0 -69 53 -113.5t133 -44.5q91 0 165 40.5t116 109.5z" />
    <glyph glyph-name="adieresis" unicode="&#xe4;" horiz-adv-x="1228" 
d="M297 1564h234v-235h-234v235zM738 1564h235v-235h-235v235zM1101 0h-224v151q-83 -102 -177.5 -142.5t-234.5 -40.5q-173 0 -276.5 96.5t-103.5 257.5q0 234 203 329q41 19 93 34.5t118.5 27.5t112 19.5t125.5 18.5t108 15q-11 83 -73 129t-168 46q-179 0 -299 -120
l-151 171q189 192 471 192q90 0 178 -34t151 -88q147 -124 147 -369v-693zM806 333q19 32 28.5 74.5t11 72t1.5 83.5q-186 -32 -318 -62q-84 -17 -137 -57t-53 -103q0 -69 53 -113.5t133 -44.5q91 0 165 40.5t116 109.5z" />
    <glyph glyph-name="aring" unicode="&#xe5;" horiz-adv-x="1228" 
d="M954 1062q147 -124 147 -369v-693h-224v151q-83 -102 -177.5 -142.5t-234.5 -40.5q-173 0 -276.5 96.5t-103.5 257.5q0 234 203 329q41 19 93 34.5t118.5 27.5t112 19.5t125.5 18.5t108 15q-11 83 -73 129t-168 46q-179 0 -299 -120l-151 171q90 93 211 145
q-56 81 -56 175q0 128 92 219.5t220 91.5t219.5 -91.5t91.5 -219.5q0 -105 -66 -190q40 -21 88 -60zM621 1440q-53 0 -90.5 -38t-37.5 -90t37.5 -90t90.5 -38t90.5 38t37.5 90t-37.5 90t-90.5 38zM806 333q19 32 28.5 74.5t11 72t1.5 83.5q-186 -32 -318 -62
q-84 -17 -137 -57t-53 -103q0 -69 53 -113.5t133 -44.5q91 0 165 40.5t116 109.5z" />
    <glyph glyph-name="ae" unicode="&#xe6;" horiz-adv-x="2003" 
d="M1126 503q10 -118 62 -187q36 -52 94 -79.5t124 -27.5q102 0 168 53q60 48 88 111l239 -76q-60 -151 -190 -242q-134 -87 -292 -87q-125 0 -239 50t-186 142q-7 8 -34 51l-13 -17q-86 -123 -207 -177q-89 -39 -205.5 -44.5t-188.5 21.5q-135 44 -195 134q-52 75 -63 163
t25 176q30 66 82.5 116t109.5 72q80 33 156.5 44t210.5 11h196q0 128 -94 188q-75 45 -189 45q-110 0 -171 -56q-27 -16 -58 -59l-234 111q25 36 27 38q70 102 185.5 153.5t256.5 51.5q175 0 309 -71q63 -38 115 -93q72 81 174.5 123.5t216.5 42.5q244 0 388 -181
q142 -178 120 -500h-788zM1406 960q-141 0 -216 -105q-44 -58 -59 -149h537q-6 96 -51 158q-34 47 -90.5 71.5t-120.5 24.5zM804 339q18 22 31 50.5t17 44t14 52.5h-143q-180 0 -209 -2q-49 -5 -92 -26t-64 -51q-17 -23 -17 -64.5t24 -73.5q22 -29 56.5 -45.5t64.5 -18.5
q36 -5 89 4t95 28q86 34 134 102z" />
    <glyph glyph-name="ccedilla" unicode="&#xe7;" horiz-adv-x="1228" 
d="M815 260q57 45 85 130l263 -57q-24 -81 -72.5 -152t-113.5 -119q-111 -75 -228 -90l-22 -62q69 -34 103 -91q30 -53 26.5 -119.5t-37.5 -115.5q-37 -53 -92.5 -79t-118.5 -19q-60 5 -122 38l56 152q50 -15 68 -15q43 0 56 25q16 22 8 49q-5 16 -16 28t-33 21.5t-37.5 15
t-49.5 14.5l55 156q-237 16 -369 188q-139 176 -139 418q0 251 139 418q81 97 185 143.5t244 46.5q94 0 161 -16.5t137 -60.5q169 -105 212 -290l-256 -70q-30 92 -96 143q-69 53 -160 53q-145 0 -222 -105q-71 -90 -71 -262q0 -170 71 -260q78 -107 222 -107q101 0 164 51z
" />
    <glyph glyph-name="egrave" unicode="&#xe8;" horiz-adv-x="1284" 
d="M1045 1478l-66 -187l-572 204l67 188zM363 503q11 -121 64 -187q81 -107 232 -107q108 0 177 53q64 49 92 111l254 -76q-66 -153 -203 -242q-138 -87 -307 -87q-132 0 -252.5 50t-195.5 142q-139 170 -139 403q0 264 139 431q77 93 190.5 141.5t244.5 48.5
q259 0 410 -181q151 -179 126 -500h-832zM659 960q-145 0 -230 -105q-48 -64 -62 -149h570q-6 92 -54 158q-37 47 -97 71.5t-127 24.5z" />
    <glyph glyph-name="eacute" unicode="&#xe9;" horiz-adv-x="1284" 
d="M977 1495l-572 -204l-66 187l572 205zM363 503q11 -121 64 -187q81 -107 232 -107q108 0 177 53q64 49 92 111l254 -76q-66 -153 -203 -242q-138 -87 -307 -87q-132 0 -252.5 50t-195.5 142q-139 170 -139 403q0 264 139 431q77 93 190.5 141.5t244.5 48.5
q259 0 410 -181q151 -179 126 -500h-832zM659 960q-145 0 -230 -105q-48 -64 -62 -149h570q-6 92 -54 158q-37 47 -97 71.5t-127 24.5z" />
    <glyph glyph-name="ecircumflex" unicode="&#xea;" horiz-adv-x="1284" 
d="M642 1440l-271 -147l-92 177l363 198l365 -198l-94 -177zM363 503q11 -121 64 -187q81 -107 232 -107q108 0 177 53q64 49 92 111l254 -76q-66 -153 -203 -242q-138 -87 -307 -87q-132 0 -252.5 50t-195.5 142q-139 170 -139 403q0 264 139 431q77 93 190.5 141.5
t244.5 48.5q259 0 410 -181q151 -179 126 -500h-832zM659 960q-145 0 -230 -105q-48 -64 -62 -149h570q-6 92 -54 158q-37 47 -97 71.5t-127 24.5z" />
    <glyph glyph-name="edieresis" unicode="&#xeb;" horiz-adv-x="1284" 
d="M555 1564v-235h-235v235h235zM996 1564v-235h-234v235h234zM363 503q11 -121 64 -187q81 -107 232 -107q108 0 177 53q64 49 92 111l254 -76q-66 -153 -203 -242q-138 -87 -307 -87q-132 0 -252.5 50t-195.5 142q-139 170 -139 403q0 264 139 431q77 93 190.5 141.5
t244.5 48.5q259 0 410 -181q151 -179 126 -500h-832zM659 960q-145 0 -230 -105q-48 -64 -62 -149h570q-6 92 -54 158q-37 47 -97 71.5t-127 24.5z" />
    <glyph glyph-name="igrave" unicode="&#xec;" horiz-adv-x="597" 
d="M553 1291l66 187l-572 205l-66 -188zM171 1152h256v-1152h-256v1152z" />
    <glyph glyph-name="iacute" unicode="&#xed;" horiz-adv-x="597" 
d="M47 1291l570 204l-64 188l-574 -205zM171 1152h256v-1152h-256v1152z" />
    <glyph glyph-name="icircumflex" unicode="&#xee;" horiz-adv-x="597" 
d="M47 1293l271 147l269 -147l94 177l-363 198l-365 -198zM171 1152h256v-1152h-256v1152z" />
    <glyph glyph-name="idieresis" unicode="&#xef;" horiz-adv-x="597" 
d="M-38 1564h234v-235h-234v235zM403 1564h235v-235h-235v235zM171 1152h256v-1152h-256v1152z" />
    <glyph glyph-name="eth" unicode="&#xf0;" horiz-adv-x="1271" 
d="M992 1363q117 -151 155.5 -342.5t38.5 -476.5q0 -254 -141 -405q-113 -171 -407 -171q-123 0 -231 44.5t-181 126.5q-141 154 -141 396q0 245 141 399q73 84 181.5 127.5t230.5 43.5q153 0 241 -58q53 -31 64 -38q-16 115 -100 205q-33 36 -64 62l-98 -126l-160 126
l83 104q-75 28 -165 34l39 199q145 -6 264 -56l124 156l158 -126l-109 -138q46 -42 77 -86zM858 292q72 84 72 246q0 158 -72 245q-37 45 -96 69.5t-124 24.5q-147 0 -224 -94q-71 -86 -71 -245q0 -163 71 -246q76 -96 224 -96q66 0 124.5 24.5t95.5 71.5z" />
    <glyph glyph-name="ntilde" unicode="&#xf1;" 
d="M508 1370h-152q-11 40 -6 88t25 80q41 70 120 88q96 22 211 -35q15 -7 41.5 -20.5t42 -21t37 -13t39.5 -4.5q33 3 44 28.5t-1 52.5h153q10 -41 5 -89t-24 -80q-45 -72 -121 -89q-93 -22 -209 34q-13 6 -41 21t-42.5 22t-36 12.5t-38.5 4.5q-36 -3 -47.5 -27t0.5 -52z
M1069 1067q39 -35 66 -83.5t40.5 -93.5t21 -110t9 -109t1.5 -114v-557h-260v546q0 248 -92 331q-69 69 -192 66q-88 -3 -151 -53q-70 -56 -90 -160q-12 -51 -12 -227v-2v-501h-259v1152h227v-130q3 3 25 30q53 62 132 94.5t163 35.5q233 16 371 -115z" />
    <glyph glyph-name="ograve" unicode="&#xf2;" horiz-adv-x="1318" 
d="M934 1291l67 187l-572 205l-66 -188zM659 -32q-131 0 -243.5 49t-191.5 143q-139 177 -139 416q0 248 139 418q77 93 191.5 141.5t243.5 48.5t244.5 -49.5t190.5 -140.5q139 -167 139 -418q0 -247 -139 -416q-78 -93 -191.5 -142.5t-243.5 -49.5zM356 576q0 -164 73 -260
q38 -52 99 -79.5t131 -27.5q72 0 133.5 27.5t99.5 79.5q70 92 70 260q0 170 -70 262q-37 51 -99 78t-134 27q-71 0 -132 -27t-98 -78q-73 -96 -73 -262z" />
    <glyph glyph-name="oacute" unicode="&#xf3;" horiz-adv-x="1318" 
d="M384 1291l572 204l-66 188l-572 -205zM659 -32q-130 0 -243.5 49.5t-191.5 142.5q-139 169 -139 416q0 251 139 418q75 91 190.5 140.5t244.5 49.5t243.5 -48.5t191.5 -141.5q139 -170 139 -418q0 -243 -139 -416q-79 -94 -191.5 -143t-243.5 -49zM962 576q0 167 -72 262
q-37 51 -98.5 78t-132.5 27q-153 0 -230 -105q-71 -90 -71 -262q0 -170 71 -260q38 -52 98 -79.5t132 -27.5q71 0 132 28t99 79q72 95 72 260z" />
    <glyph glyph-name="ocircumflex" unicode="&#xf4;" horiz-adv-x="1318" 
d="M390 1293l271 147l269 -147l94 177l-363 198l-364 -198zM659 -32q-130 0 -243.5 49.5t-191.5 142.5q-139 169 -139 416q0 251 139 418q75 91 190.5 140.5t244.5 49.5t243.5 -48.5t191.5 -141.5q139 -170 139 -418q0 -243 -139 -416q-79 -94 -191.5 -143t-243.5 -49z
M962 576q0 167 -72 262q-37 51 -98.5 78t-132.5 27q-153 0 -230 -105q-71 -90 -71 -262q0 -170 71 -260q38 -52 98 -79.5t132 -27.5q71 0 132 28t99 79q72 95 72 260z" />
    <glyph glyph-name="otilde" unicode="&#xf5;" horiz-adv-x="1318" 
d="M1013 1613q11 -40 6 -89t-25 -80q-41 -72 -119 -89q-93 -22 -212 34q-14 7 -41 21.5t-42 21.5t-36 12.5t-38 4.5q-35 -3 -46 -27t1 -52h-154q-10 41 -5 88t24 80q44 70 122 88q96 23 209 -35q15 -7 41.5 -20.5t42 -21t37 -13t39.5 -4.5q34 3 45.5 28.5t-0.5 52.5h151z
M659 -32q-130 0 -243.5 49.5t-191.5 142.5q-139 169 -139 416q0 251 139 418q75 91 190.5 140.5t244.5 49.5t243.5 -48.5t191.5 -141.5q139 -170 139 -418q0 -243 -139 -416q-79 -94 -191.5 -143t-243.5 -49zM962 576q0 167 -72 262q-37 51 -98.5 78t-132.5 27
q-153 0 -230 -105q-71 -90 -71 -262q0 -170 71 -260q38 -52 98 -79.5t132 -27.5q71 0 132 28t99 79q72 95 72 260z" />
    <glyph glyph-name="odieresis" unicode="&#xf6;" horiz-adv-x="1318" 
d="M322 1564h235v-235h-235v235zM764 1564h234v-235h-234v235zM659 -32q-130 0 -243.5 49.5t-191.5 142.5q-139 169 -139 416q0 251 139 418q75 91 190.5 140.5t244.5 49.5t243.5 -48.5t191.5 -141.5q139 -170 139 -418q0 -243 -139 -416q-79 -94 -191.5 -143t-243.5 -49z
M962 576q0 167 -72 262q-37 51 -98.5 78t-132.5 27q-153 0 -230 -105q-71 -90 -71 -262q0 -170 71 -260q38 -52 98 -79.5t132 -27.5q71 0 132 28t99 79q72 95 72 260z" />
    <glyph glyph-name="oslash" unicode="&#xf8;" horiz-adv-x="1318" 
d="M1263 1007l-107 -105q77 -140 77 -326q0 -243 -139 -416q-79 -94 -191.5 -143t-243.5 -49q-192 0 -337 100l-96 -96l-171 173l107 107q-77 142 -77 324q0 251 139 418q75 91 190.5 140.5t244.5 49.5q192 0 337 -100l96 96zM358 576q0 -73 11 -119l446 448q-66 38 -156 38
q-153 0 -230 -105q-71 -90 -71 -262zM962 576q0 49 -11 119l-448 -445q66 -41 156 -41q71 0 132 28t99 79q72 95 72 260z" />
    <glyph glyph-name="ugrave" unicode="&#xf9;" 
d="M1013 1478l-66 -187l-572 204l67 188zM926 1152h260v-1152h-228v130q-8 -8 -26 -30q-53 -62 -131.5 -94.5t-162.5 -35.5q-231 -16 -371 115q-48 44 -78 102t-42 132.5t-15.5 131t-3.5 144.5v557h260v-546q0 -248 92 -331q69 -69 192 -66q84 3 151 53q70 56 90 160
q13 55 13 227v2v501z" />
    <glyph glyph-name="uacute" unicode="&#xfa;" 
d="M969 1495l-570 -204l-66 187l572 205zM926 1152h260v-1152h-228v130q-8 -8 -26 -30q-53 -62 -131.5 -94.5t-162.5 -35.5q-231 -16 -371 115q-48 44 -78 102t-42 132.5t-15.5 131t-3.5 144.5v557h260v-546q0 -248 92 -331q69 -69 192 -66q84 3 151 53q70 56 90 160
q13 55 13 227v2v501z" />
    <glyph glyph-name="ucircumflex" unicode="&#xfb;" 
d="M636 1440l-271 -147l-94 177l365 198l362 -198l-91 -177zM926 1152h260v-1152h-228v130q-8 -8 -26 -30q-53 -62 -131.5 -94.5t-162.5 -35.5q-231 -16 -371 115q-48 44 -78 102t-42 132.5t-15.5 131t-3.5 144.5v557h260v-546q0 -248 92 -331q69 -69 192 -66q84 3 151 53
q70 56 90 160q13 55 13 227v2v501z" />
    <glyph glyph-name="udieresis" unicode="&#xfc;" 
d="M531 1564v-235h-234v235h234zM973 1564v-235h-235v235h235zM926 1152h260v-1152h-228v130q-8 -8 -26 -30q-53 -62 -131.5 -94.5t-162.5 -35.5q-231 -16 -371 115q-48 44 -78 102t-42 132.5t-15.5 131t-3.5 144.5v557h260v-546q0 -248 92 -331q69 -69 192 -66q84 3 151 53
q70 56 90 160q13 55 13 227v2v501z" />
    <glyph glyph-name="yacute" unicode="&#xfd;" horiz-adv-x="1209" 
d="M390 1291l570 204l-64 188l-572 -205zM932 1152h256l-499 -1325q-40 -107 -79 -176t-94 -110q-48 -35 -106.5 -44t-174.5 -9v245q106 -3 149 28q32 23 57 66t60 139l-458 1186h258l318 -858z" />
    <glyph glyph-name="thorn" unicode="&#xfe;" horiz-adv-x="1341" 
d="M1124 1001q133 -170 133 -425q0 -256 -133 -425q-71 -87 -177 -135t-222 -48q-187 0 -318 96v-576h-258v2048h258v-448q139 96 310 96q121 0 228 -46.5t179 -136.5zM919 309q64 90 64 267q0 172 -68 267q-74 111 -237 111q-141 0 -217 -92q-83 -100 -83 -286
q0 -190 83 -284q81 -94 226 -94q158 0 232 111z" />
    <glyph glyph-name="ydieresis" unicode="&#xff;" horiz-adv-x="1209" 
d="M279 1564h235v-235h-235v235zM719 1564h235v-235h-235v235zM932 1152h256l-499 -1325q-40 -107 -79 -176t-94 -110q-48 -35 -106.5 -44t-174.5 -9v245q106 -3 149 28q32 23 57 66t60 139l-458 1186h258l318 -858z" />
    <glyph glyph-name="Amacron" unicode="&#x100;" horiz-adv-x="1431" 
d="M1001 1993v-201h-568v201h568zM1124 0l-106 333h-606l-105 -333h-264l484 1536h378l484 -1536h-265zM489 574h452l-228 712z" />
    <glyph glyph-name="amacron" unicode="&#x101;" horiz-adv-x="1228" 
d="M373 1609h570v-201h-570v201zM1101 0h-224v151q-83 -102 -177.5 -142.5t-234.5 -40.5q-173 0 -276.5 96.5t-103.5 257.5q0 234 203 329q41 19 93 34.5t118.5 27.5t112 19.5t125.5 18.5t108 15q-11 83 -73 129t-168 46q-179 0 -299 -120l-151 171q189 192 471 192
q90 0 178 -34t151 -88q147 -124 147 -369v-693zM806 333q19 32 28.5 74.5t11 72t1.5 83.5q-186 -32 -318 -62q-84 -17 -137 -57t-53 -103q0 -69 53 -113.5t133 -44.5q91 0 165 40.5t116 109.5z" />
    <glyph glyph-name="Abreve" unicode="&#x102;" horiz-adv-x="1431" 
d="M717 1664q-134 0 -229 95t-95 229h200q0 -51 36.5 -87t87.5 -36t86 36t35 87h201q0 -134 -94 -229t-228 -95zM1124 0l-106 333h-606l-105 -333h-264l484 1536h378l484 -1536h-265zM489 574h452l-228 712z" />
    <glyph glyph-name="abreve" unicode="&#x103;" horiz-adv-x="1228" 
d="M749 1604h200q0 -134 -95 -229t-229 -95q-133 0 -227.5 95t-94.5 229h200q0 -51 36 -87t86 -36q51 0 87.5 36t36.5 87zM1101 0h-224v151q-83 -102 -177.5 -142.5t-234.5 -40.5q-173 0 -276.5 96.5t-103.5 257.5q0 234 203 329q41 19 93 34.5t118.5 27.5t112 19.5
t125.5 18.5t108 15q-11 83 -73 129t-168 46q-179 0 -299 -120l-151 171q189 192 471 192q90 0 178 -34t151 -88q147 -124 147 -369v-693zM806 333q19 32 28.5 74.5t11 72t1.5 83.5q-186 -32 -318 -62q-84 -17 -137 -57t-53 -103q0 -69 53 -113.5t133 -44.5q91 0 165 40.5
t116 109.5z" />
    <glyph glyph-name="Aogonek" unicode="&#x104;" horiz-adv-x="1431" 
d="M1165 -299q13 -17 37 -18.5t47.5 8t43.5 25.5l92 -119q-35 -60 -101 -88q-73 -34 -150 -14t-127 83q-43 48 -52 122t20 146q41 103 139 186l-96 301h-606l-105 -333h-264l484 1536h378l484 -1536h-34q-72 -50 -113 -102q-58 -58 -84 -120q-15 -55 7 -77zM489 574h452
l-228 712z" />
    <glyph glyph-name="aogonek" unicode="&#x105;" horiz-adv-x="1228" 
d="M1062 -284l94 -119q-39 -62 -102 -88q-71 -34 -148.5 -14t-126.5 83q-44 47 -53 122t19 146q41 100 132 180v125q-83 -102 -177.5 -142.5t-234.5 -40.5q-173 0 -276.5 96.5t-103.5 257.5q0 234 203 329q41 19 93 34.5t118.5 27.5t112 19.5t125.5 18.5t108 15
q-11 83 -73 129t-168 46q-179 0 -299 -120l-151 171q189 192 471 192q90 0 178 -34t151 -88q147 -124 147 -369v-657l23 -36q-77 -56 -113 -102q-56 -59 -81 -120q-4 -10 -6.5 -22t0 -28.5t13.5 -26.5q13 -17 36.5 -18.5t46.5 8t42 25.5zM806 333q19 32 28.5 74.5t11 72
t1.5 83.5q-186 -32 -318 -62q-84 -17 -137 -57t-53 -103q0 -69 53 -113.5t133 -44.5q91 0 165 40.5t116 109.5z" />
    <glyph glyph-name="Cacute" unicode="&#x106;" horiz-adv-x="1559" 
d="M578 1675l570 204l-64 188l-572 -205zM1231 516l252 -62q-61 -206 -209 -332q-177 -154 -470 -154q-168 0 -309 64.5t-235 185.5q-175 226 -175 550q0 346 173 553q99 123 239 185t307 62q290 0 467 -156q166 -141 222 -371l-258 -36q-25 87 -77 158q-121 159 -337 162
q-108 2 -202 -40t-152 -122q-115 -144 -111 -395q4 -258 111 -395q57 -79 150.5 -119.5t203.5 -42.5q214 -3 337 162q46 62 73 143z" />
    <glyph glyph-name="cacute" unicode="&#x107;" horiz-adv-x="1228" 
d="M393 1291l569 204l-64 188l-574 -205zM1163 817l-256 -70q-30 92 -96 143q-69 53 -160 53q-145 0 -222 -105q-71 -90 -71 -262q0 -170 71 -260q78 -107 222 -107q101 0 164 51q57 45 85 130l263 -57q-24 -81 -72.5 -152t-113.5 -119q-74 -52 -147.5 -73t-178.5 -21
q-281 0 -427 190q-139 176 -139 418q0 251 139 418q81 97 185 143.5t244 46.5q94 0 161 -16.5t137 -60.5q169 -105 212 -290z" />
    <glyph glyph-name="Cdotaccent" unicode="&#x10a;" horiz-adv-x="1559" 
d="M678 2080h263v-262h-263v262zM1231 516l252 -62q-61 -206 -209 -332q-177 -154 -470 -154q-168 0 -309 64.5t-235 185.5q-175 226 -175 550q0 346 173 553q99 123 239 185t307 62q290 0 467 -156q166 -141 222 -371l-258 -36q-25 87 -77 158q-121 159 -337 162
q-108 2 -202 -40t-152 -122q-115 -144 -111 -395q4 -258 111 -395q57 -79 150.5 -119.5t203.5 -42.5q214 -3 337 162q46 62 73 143z" />
    <glyph glyph-name="cdotaccent" unicode="&#x10b;" horiz-adv-x="1228" 
d="M553 1643h262v-263h-262v263zM1163 817l-256 -70q-30 92 -96 143q-69 53 -160 53q-145 0 -222 -105q-71 -90 -71 -262q0 -170 71 -260q78 -107 222 -107q101 0 164 51q57 45 85 130l263 -57q-24 -81 -72.5 -152t-113.5 -119q-74 -52 -147.5 -73t-178.5 -21
q-281 0 -427 190q-139 176 -139 418q0 251 139 418q81 97 185 143.5t244 46.5q94 0 161 -16.5t137 -60.5q169 -105 212 -290z" />
    <glyph glyph-name="Ccaron" unicode="&#x10c;" horiz-adv-x="1559" 
d="M563 2052l-92 -175l363 -200l365 200l-94 175l-271 -147zM1231 516l252 -62q-61 -206 -209 -332q-177 -154 -470 -154q-168 0 -309 64.5t-235 185.5q-175 226 -175 550q0 346 173 553q99 123 239 185t307 62q290 0 467 -156q166 -141 222 -371l-258 -36q-25 87 -77 158
q-121 159 -337 162q-108 2 -202 -40t-152 -122q-115 -144 -111 -395q4 -258 111 -395q57 -79 150.5 -119.5t203.5 -42.5q214 -3 337 162q46 62 73 143z" />
    <glyph glyph-name="ccaron" unicode="&#x10d;" horiz-adv-x="1228" 
d="M399 1668l-94 -175l365 -200l363 200l-94 175l-269 -147zM1163 817l-256 -70q-30 92 -96 143q-69 53 -160 53q-145 0 -222 -105q-71 -90 -71 -262q0 -170 71 -260q78 -107 222 -107q101 0 164 51q57 45 85 130l263 -57q-24 -81 -72.5 -152t-113.5 -119
q-74 -52 -147.5 -73t-178.5 -21q-281 0 -427 190q-139 176 -139 418q0 251 139 418q81 97 185 143.5t244 46.5q94 0 161 -16.5t137 -60.5q169 -105 212 -290z" />
    <glyph glyph-name="Dcaron" unicode="&#x10e;" horiz-adv-x="1493" 
d="M352 2052l-94 -175l365 -200l363 200l-92 175l-271 -147zM1391 766q0 166 -50 312t-151 253q-186 205 -505 205h-536v-1536h532q153 0 286.5 52t227.5 155q96 103 146 250.5t50 308.5zM1120 766q-3 -257 -124 -395q-112 -123 -315 -130l-269 2v1048l271 2q102 -3 178 -32
t137 -98q122 -142 122 -397z" />
    <glyph glyph-name="dcaron" unicode="&#x10f;" horiz-adv-x="1676" 
d="M1340 1540h264v-286q0 -141 -67.5 -211.5t-196.5 -48.5l17 111q69 -6 99 39t20 121h-136v275zM934 1088v448h259v-1536h-227v90q-135 -122 -349 -122q-116 0 -222 48t-177 135q-133 169 -133 425q0 255 133 425q72 90 179 136.5t228 46.5q170 0 309 -96zM881 292
q83 94 83 284q0 186 -83 286q-76 92 -218 92q-162 0 -236 -111q-69 -97 -69 -267q0 -177 64 -267q38 -56 99.5 -83.5t133.5 -27.5q145 0 226 94z" />
    <glyph glyph-name="Dcroat" unicode="&#x110;" horiz-adv-x="1497" 
d="M1193 1331q202 -211 202 -565q0 -161 -50.5 -308.5t-147.5 -250.5q-93 -103 -226.5 -155t-285.5 -52h-531v668h-133v202h133v666h533q323 0 506 -205zM1001 371q121 141 121 395q0 253 -119 397q-60 68 -137 97.5t-179 32.5l-273 -2v-421h328v-202h-328v-425l271 -2
q204 7 316 130z" />
    <glyph glyph-name="dcroat" unicode="&#x111;" horiz-adv-x="1341" 
d="M1303 1444v-200h-110v-1244h-227v90q-135 -122 -349 -122q-116 0 -222 48t-177 135q-133 169 -133 425q0 255 133 425q72 90 179 136.5t228 46.5q170 0 309 -96v156h-200v200h200v92h259v-92h110zM881 292q83 94 83 284q0 186 -83 286q-76 92 -218 92q-162 0 -236 -111
q-69 -97 -69 -267q0 -177 64 -267q38 -56 99.5 -83.5t133.5 -27.5q145 0 226 94z" />
    <glyph glyph-name="Emacron" unicode="&#x112;" horiz-adv-x="1290" 
d="M939 1993v-201h-570v201h570zM1141 1295h-736v-380h608v-239h-608v-435h736v-241h-992v1536h992v-241z" />
    <glyph glyph-name="emacron" unicode="&#x113;" horiz-adv-x="1284" 
d="M964 1609v-201h-569v201h569zM363 503q11 -121 64 -187q81 -107 232 -107q108 0 177 53q64 49 92 111l254 -76q-66 -153 -203 -242q-138 -87 -307 -87q-132 0 -252.5 50t-195.5 142q-139 170 -139 403q0 264 139 431q77 93 190.5 141.5t244.5 48.5q259 0 410 -181
q151 -179 126 -500h-832zM659 960q-145 0 -230 -105q-48 -64 -62 -149h570q-6 92 -54 158q-37 47 -97 71.5t-127 24.5z" />
    <glyph glyph-name="Edotaccent" unicode="&#x116;" horiz-adv-x="1290" 
d="M777 2027v-263h-263v263h263zM1141 1295h-736v-380h608v-239h-608v-435h736v-241h-992v1536h992v-241z" />
    <glyph glyph-name="edotaccent" unicode="&#x117;" horiz-adv-x="1284" 
d="M791 1643v-263h-262v263h262zM363 503q11 -121 64 -187q81 -107 232 -107q108 0 177 53q64 49 92 111l254 -76q-66 -153 -203 -242q-138 -87 -307 -87q-132 0 -252.5 50t-195.5 142q-139 170 -139 403q0 264 139 431q77 93 190.5 141.5t244.5 48.5q259 0 410 -181
q151 -179 126 -500h-832zM659 960q-145 0 -230 -105q-48 -64 -62 -149h570q-6 92 -54 158q-37 47 -97 71.5t-127 24.5z" />
    <glyph glyph-name="Eogonek" unicode="&#x118;" horiz-adv-x="1290" 
d="M1079 -284l94 -119q-39 -62 -102 -88q-71 -34 -148.5 -14t-126.5 83q-44 47 -53 122t19 146q33 83 104 154h-717v1536h992v-241h-736v-380h608v-239h-608v-435h736v-241q-77 -56 -113 -102q-56 -59 -81 -120q-4 -10 -6.5 -22t0 -28.5t13.5 -26.5q13 -17 36.5 -18.5
t46.5 8t42 25.5z" />
    <glyph glyph-name="eogonek" unicode="&#x119;" horiz-adv-x="1284" 
d="M363 503q11 -121 64 -187q81 -107 232 -107q108 0 177 53q64 49 92 111l254 -76q-27 -56 -36 -71l8 -2q-36 -61 -97 -155.5t-76 -119.5q-56 -102 -76 -169q-18 -51 8 -79q27 -23 61.5 -16.5t66.5 31.5l92 -119q-35 -61 -100 -88q-74 -32 -152 -12t-126 81
q-41 51 -51 122.5t19 145.5q26 62 75 137q-59 -15 -126 -15q-132 0 -252.5 50t-195.5 142q-139 170 -139 403q0 264 139 431q77 93 190.5 141.5t244.5 48.5q259 0 410 -181q151 -179 126 -500h-832zM659 960q-145 0 -230 -105q-48 -64 -62 -149h570q-6 92 -54 158
q-37 47 -97 71.5t-127 24.5z" />
    <glyph glyph-name="Ecaron" unicode="&#x11a;" horiz-adv-x="1290" 
d="M1018 1877l-363 -200l-365 200l94 175l271 -147l269 147zM1141 1295h-736v-380h608v-239h-608v-435h736v-241h-992v1536h992v-241z" />
    <glyph glyph-name="ecaron" unicode="&#x11b;" horiz-adv-x="1284" 
d="M1058 1493l-365 -200l-362 200l94 175l268 -147l271 147zM363 503q11 -121 64 -187q81 -107 232 -107q108 0 177 53q64 49 92 111l254 -76q-66 -153 -203 -242q-138 -87 -307 -87q-132 0 -252.5 50t-195.5 142q-139 170 -139 403q0 264 139 431q77 93 190.5 141.5
t244.5 48.5q259 0 410 -181q151 -179 126 -500h-832zM659 960q-145 0 -230 -105q-48 -64 -62 -149h570q-6 92 -54 158q-37 47 -97 71.5t-127 24.5z" />
    <glyph glyph-name="Gbreve" unicode="&#x11e;" horiz-adv-x="1610" 
d="M855 1664q-134 0 -229 95t-95 229h201q0 -51 36 -87t87 -36t86.5 36t35.5 87h201q0 -134 -95 -229t-228 -95zM1523 806l2 -81q0 -314 -181 -529q-193 -228 -540 -228q-169 0 -310.5 65t-235.5 187q-173 230 -173 548q0 342 173 553q199 247 546 247q293 0 467 -156
q159 -131 212 -345l-280 -43q-34 107 -100 171q-108 108 -282 108q-104 0 -194.5 -40t-146.5 -117q-101 -131 -105 -378q4 -244 105 -378q56 -77 147 -117t194 -38q171 -3 282 108q101 97 122 261h-320v202h618z" />
    <glyph glyph-name="gbreve" unicode="&#x11f;" horiz-adv-x="1339" 
d="M721 1280q-134 0 -229 95t-95 229h200q0 -51 36.5 -87t87.5 -36t86.5 36t35.5 87h200q0 -134 -94 -229t-228 -95zM964 1152h226v-1207q0 -145 -48.5 -243t-153.5 -161q-139 -83 -337 -83q-69 0 -142 20t-127 55q-57 28 -107 73t-81 100l237 115q18 -31 58 -64
q30 -27 76 -41.5t88 -14.5q128 0 200 60q46 36 63.5 78.5t15.5 109.5v113q-128 -94 -318 -94q-115 0 -220.5 48t-175.5 135q-133 166 -133 425q0 255 133 425q70 90 177 136.5t230 46.5q94 0 182.5 -32t156.5 -90v90zM655 198q145 0 226 94q83 94 83 284q0 186 -83 286
q-79 92 -218 92q-162 0 -236 -111q-69 -97 -69 -267q0 -177 64 -267q38 -56 99.5 -83.5t133.5 -27.5z" />
    <glyph glyph-name="Gdotaccent" unicode="&#x120;" horiz-adv-x="1610" 
d="M954 2027v-263h-263v263h263zM1523 806l2 -81q0 -314 -181 -529q-193 -228 -540 -228q-169 0 -310.5 65t-235.5 187q-173 230 -173 548q0 342 173 553q199 247 546 247q293 0 467 -156q159 -131 212 -345l-280 -43q-34 107 -100 171q-108 108 -282 108q-104 0 -194.5 -40
t-146.5 -117q-101 -131 -105 -378q4 -244 105 -378q56 -77 147 -117t194 -38q171 -3 282 108q101 97 122 261h-320v202h618z" />
    <glyph glyph-name="gdotaccent" unicode="&#x121;" horiz-adv-x="1339" 
d="M836 1643v-263h-262v263h262zM964 1152h226v-1207q0 -145 -48.5 -243t-153.5 -161q-139 -83 -337 -83q-69 0 -142 20t-127 55q-57 28 -107 73t-81 100l237 115q18 -31 58 -64q30 -27 76 -41.5t88 -14.5q128 0 200 60q46 36 63.5 78.5t15.5 109.5v113q-128 -94 -318 -94
q-115 0 -220.5 48t-175.5 135q-133 166 -133 425q0 255 133 425q70 90 177 136.5t230 46.5q94 0 182.5 -32t156.5 -90v90zM655 198q145 0 226 94q83 94 83 284q0 186 -83 286q-79 92 -218 92q-162 0 -236 -111q-69 -97 -69 -267q0 -177 64 -267q38 -56 99.5 -83.5
t133.5 -27.5z" />
    <glyph glyph-name="uni0122" unicode="&#x122;" horiz-adv-x="1610" 
d="M1523 806l2 -81q0 -314 -181 -529q-193 -228 -540 -228q-169 0 -310.5 65t-235.5 187q-173 230 -173 548q0 342 173 553q199 247 546 247q293 0 467 -156q159 -131 212 -345l-280 -43q-34 107 -100 171q-108 108 -282 108q-104 0 -194.5 -40t-146.5 -117
q-101 -131 -105 -378q4 -244 105 -378q56 -77 147 -117t194 -38q171 -3 282 108q101 97 122 261h-320v202h618zM695 -388v249h248v-249q0 -100 -70 -162t-178 -62v113q16 0 35.5 4t45 14.5t41.5 34.5t15 58h-137z" />
    <glyph glyph-name="uni0123" unicode="&#x123;" horiz-adv-x="1339" 
d="M841 1530v-250h-250v250q0 99 71 161.5t179 62.5v-113q-16 0 -35.5 -4t-45 -14.5t-41.5 -34.5t-15 -58h137zM964 1152h226v-1207q0 -145 -48.5 -243t-153.5 -161q-139 -83 -337 -83q-69 0 -142 20t-127 55q-57 28 -107 73t-81 100l237 115q18 -31 58 -64q30 -27 76 -41.5
t88 -14.5q128 0 200 60q46 36 63.5 78.5t15.5 109.5v113q-128 -94 -318 -94q-115 0 -220.5 48t-175.5 135q-133 166 -133 425q0 255 133 425q70 90 177 136.5t230 46.5q94 0 182.5 -32t156.5 -90v90zM655 198q145 0 226 94q83 94 83 284q0 186 -83 286q-79 92 -218 92
q-162 0 -236 -111q-69 -97 -69 -267q0 -177 64 -267q38 -56 99.5 -83.5t133.5 -27.5z" />
    <glyph glyph-name="Hbar" unicode="&#x126;" horiz-adv-x="1582" 
d="M1562 1286v-256h-171v-1030h-258v649h-728v-649h-256v1030h-128v256h128v250h256v-250h728v250h258v-250h171zM1133 890v140h-728v-140h728z" />
    <glyph glyph-name="hbar" unicode="&#x127;" 
d="M1067 1067q48 -44 78 -102t42.5 -132.5t16 -131.5t3.5 -144v-557h-260v546q0 245 -92 331q-72 69 -192 66q-91 -3 -151 -53q-68 -52 -92 -160q-13 -65 -13 -229v-501h-258v1244h-117v200h117v92h229v-92h224v-200h-224v-220q10 15 23 28q55 62 133.5 94.5t160.5 35.5
q235 16 372 -115z" />
    <glyph glyph-name="Imacron" unicode="&#x12a;" horiz-adv-x="597" 
d="M15 1993h570v-201h-570v201zM171 1536h256v-1536h-256v1536z" />
    <glyph glyph-name="imacron" unicode="&#x12b;" horiz-adv-x="597" 
d="M15 1609h570v-201h-570v201zM171 1152h256v-1152h-256v1152z" />
    <glyph glyph-name="Iogonek" unicode="&#x12e;" horiz-adv-x="597" 
d="M365 -284l94 -119q-35 -61 -103 -88q-71 -34 -148.5 -14t-126.5 83q-43 48 -52 122t18 146q41 95 124 171v1519h256v-1536q-71 -52 -113 -102q-56 -59 -81 -120q-7 -17 -7.5 -36.5t13.5 -40.5q13 -17 37 -18.5t47 8t42 25.5z" />
    <glyph glyph-name="iogonek" unicode="&#x12f;" horiz-adv-x="597" 
d="M427 1559v-236h-256v236h256zM365 -284l94 -119q-35 -61 -103 -88q-71 -34 -148.5 -14t-126.5 83q-43 48 -52 122t18 146q41 95 124 171v1135h256v-1152q-71 -52 -113 -102q-56 -59 -81 -120q-7 -17 -7.5 -36.5t13.5 -40.5q13 -17 37 -18.5t47 8t42 25.5z" />
    <glyph glyph-name="Idotaccent" unicode="&#x130;" horiz-adv-x="597" 
d="M169 2027h262v-263h-262v263zM171 1536h256v-1536h-256v1536z" />
    <glyph glyph-name="dotlessi" unicode="&#x131;" horiz-adv-x="597" 
d="M171 1152h256v-1152h-256v1152z" />
    <glyph glyph-name="uni0136" unicode="&#x136;" horiz-adv-x="1403" 
d="M1404 0h-327l-514 653h-153v-653h-261v1536h261v-642h151l469 642h318l-550 -759zM875 -388q0 -99 -71 -161.5t-179 -62.5v113q16 0 35.5 4t45 14.5t41.5 34.5t15 58h-137v249h250v-249z" />
    <glyph glyph-name="uni0137" unicode="&#x137;" horiz-adv-x="1173" 
d="M412 467v-467h-263l2 1536h261v-828h134l303 444h288l-382 -563l418 -589h-294l-333 467h-134zM762 -388q0 -100 -70 -162t-178 -62v113q16 0 35.5 4t45 14.5t41.5 34.5t15 58h-137v249h248v-249z" />
    <glyph glyph-name="Lacute" unicode="&#x139;" horiz-adv-x="1137" 
d="M237 1675l572 204l-67 188l-571 -205zM427 1536h-256v-1536h934v241h-678v1295z" />
    <glyph glyph-name="lacute" unicode="&#x13a;" horiz-adv-x="554" 
d="M26 1675l569 204l-64 188l-574 -205zM149 0h256v1568h-256v-1568z" />
    <glyph glyph-name="uni013B" unicode="&#x13b;" horiz-adv-x="1137" 
d="M427 1536h-256v-1536h934v241h-678v1295zM764 -388q0 -99 -71 -161.5t-179 -62.5v113q16 0 35.5 4t45 14.5t41.5 34.5t15 58h-137v249h250v-249z" />
    <glyph glyph-name="uni013C" unicode="&#x13c;" horiz-adv-x="554" 
d="M149 0h256v1568h-256v-1568zM410 -388q0 -100 -70 -162t-180 -62v113q16 0 36 4t45 14.5t41.5 34.5t16.5 58h-139v249h250v-249z" />
    <glyph glyph-name="Lcaron" unicode="&#x13d;" horiz-adv-x="1137" 
d="M960 1254q0 -141 -67.5 -211.5t-197.5 -48.5l15 111q70 -6 101 39t21 121h-137v275h265v-286zM427 1536h-256v-1536h934v241h-678v1295z" />
    <glyph glyph-name="lcaron" unicode="&#x13e;" horiz-adv-x="934" 
d="M149 0h256v1568h-256v-1568zM864 1254q0 -141 -67.5 -211.5t-197.5 -48.5l15 111q70 -6 101 39t21 121h-137v275h265v-286z" />
    <glyph glyph-name="Lslash" unicode="&#x141;" horiz-adv-x="1173" 
d="M463 241h678v-241h-934v446l-139 -79v277l139 79v813h256v-666l337 195v-278l-337 -194v-352z" />
    <glyph glyph-name="lslash" unicode="&#x142;" horiz-adv-x="851" 
d="M791 1133v-278l-236 -136v-719h-258v572l-239 -137v278l239 136v719h258v-572z" />
    <glyph glyph-name="Nacute" unicode="&#x143;" horiz-adv-x="1531" 
d="M565 1675l572 204l-66 188l-572 -205zM410 1536l712 -1082v1082h260v-1536h-260l-712 1084v-1084h-261v1536h261z" />
    <glyph glyph-name="nacute" unicode="&#x144;" 
d="M1028 1495l-571 -204l-67 187l572 205zM1069 1067q39 -35 66 -83.5t40.5 -93.5t21 -110t9 -109t1.5 -114v-557h-260v546q0 248 -92 331q-69 69 -192 66q-88 -3 -151 -53q-70 -56 -90 -160q-12 -51 -12 -227v-2v-501h-259v1152h227v-130q3 3 25 30q53 62 132 94.5
t163 35.5q233 16 371 -115z" />
    <glyph glyph-name="uni0145" unicode="&#x145;" horiz-adv-x="1531" 
d="M410 1536l712 -1082v1082h260v-1536h-260l-712 1084v-1084h-261v1536h261zM913 -388q0 -99 -71 -161.5t-179 -62.5v113q16 0 35.5 4t45 14.5t41.5 34.5t15 58h-137v249h250v-249z" />
    <glyph glyph-name="uni0146" unicode="&#x146;" 
d="M1069 1067q39 -35 66 -83.5t40.5 -93.5t21 -110t9 -109t1.5 -114v-557h-260v546q0 248 -92 331q-69 69 -192 66q-88 -3 -151 -53q-70 -56 -90 -160q-12 -51 -12 -227v-2v-501h-259v1152h227v-130q3 3 25 30q53 62 132 94.5t163 35.5q233 16 371 -115zM559 -388v249h250
v-249q0 -99 -71 -161.5t-179 -62.5v113q16 0 35.5 4t44.5 14.5t41 34.5t15 58h-136z" />
    <glyph glyph-name="Ncaron" unicode="&#x147;" horiz-adv-x="1531" 
d="M518 2052l-91 -175l362 -200l365 200l-94 175l-271 -147zM410 1536l712 -1082v1082h260v-1536h-260l-712 1084v-1084h-261v1536h261z" />
    <glyph glyph-name="ncaron" unicode="&#x148;" 
d="M1071 1493l-365 -200l-363 200l92 175l271 -147l271 147zM1069 1067q39 -35 66 -83.5t40.5 -93.5t21 -110t9 -109t1.5 -114v-557h-260v546q0 248 -92 331q-69 69 -192 66q-88 -3 -151 -53q-70 -56 -90 -160q-12 -51 -12 -227v-2v-501h-259v1152h227v-130q3 3 25 30
q53 62 132 94.5t163 35.5q233 16 371 -115z" />
    <glyph glyph-name="Eng" unicode="&#x14a;" horiz-adv-x="1531" 
d="M1122 1536h260v-1726q0 -121 -50 -195.5t-142 -94.5q-117 -23 -258 11v192q104 -12 151 2q85 28 86 134q0 56 -36 141h-11l-712 1084v-1084h-261v1536h261l712 -1082v1082z" />
    <glyph glyph-name="eng" unicode="&#x14b;" 
d="M1069 1067q39 -35 66 -83.5t40.5 -93.5t21 -110t9 -109t1.5 -114v-747q0 -120 -54.5 -195t-151.5 -95q-107 -21 -246 11v183q81 -6 113 4q79 24 79 145v683q0 248 -92 331q-69 69 -192 66q-88 -3 -151 -53q-70 -56 -90 -160q-12 -51 -12 -227v-2v-501h-259v1152h227v-130
q3 3 25 30q53 62 132 94.5t163 35.5q233 16 371 -115z" />
    <glyph glyph-name="Omacron" unicode="&#x14c;" horiz-adv-x="1640" 
d="M518 1993h570v-201h-570v201zM821 -32q-169 0 -316.5 64t-242.5 186q-177 216 -177 550q0 337 177 553q97 122 243.5 184.5t315.5 62.5q168 0 314 -63t245 -184q172 -215 175 -553q-3 -337 -175 -550q-100 -123 -247 -186.5t-312 -63.5zM821 211q107 -2 201 40t153 122
q109 147 109 395q0 251 -109 395q-59 80 -152.5 121t-201.5 41q-108 2 -202 -40t-154 -122q-113 -145 -109 -395q0 -252 109 -395q59 -80 153 -121t203 -41z" />
    <glyph glyph-name="omacron" unicode="&#x14d;" horiz-adv-x="1318" 
d="M375 1609h570v-201h-570v201zM659 -32q-130 0 -243.5 49.5t-191.5 142.5q-139 169 -139 416q0 251 139 418q75 91 190.5 140.5t244.5 49.5t243.5 -48.5t191.5 -141.5q139 -170 139 -418q0 -243 -139 -416q-79 -94 -191.5 -143t-243.5 -49zM962 576q0 167 -72 262
q-37 51 -98.5 78t-132.5 27q-153 0 -230 -105q-71 -90 -71 -262q0 -170 71 -260q38 -52 98 -79.5t132 -27.5q71 0 132 28t99 79q72 95 72 260z" />
    <glyph glyph-name="Ohungarumlaut" unicode="&#x150;" horiz-adv-x="1640" 
d="M698 1687l260 256l-122 124l-260 -254zM1045 1687l258 256l-121 124l-258 -254zM821 -32q-169 0 -316.5 64t-242.5 186q-177 216 -177 550q0 337 177 553q97 122 243.5 184.5t315.5 62.5q168 0 314 -63t245 -184q172 -215 175 -553q-3 -337 -175 -550
q-100 -123 -247 -186.5t-312 -63.5zM821 211q107 -2 201 40t153 122q109 147 109 395q0 251 -109 395q-59 80 -152.5 121t-201.5 41q-108 2 -202 -40t-154 -122q-113 -145 -109 -395q0 -252 109 -395q59 -80 153 -121t203 -41z" />
    <glyph glyph-name="ohungarumlaut" unicode="&#x151;" horiz-adv-x="1318" 
d="M491 1303l258 256l-122 124l-258 -254zM836 1303l261 256l-122 124l-260 -254zM659 -32q-130 0 -243.5 49.5t-191.5 142.5q-139 169 -139 416q0 251 139 418q75 91 190.5 140.5t244.5 49.5t243.5 -48.5t191.5 -141.5q139 -170 139 -418q0 -243 -139 -416
q-79 -94 -191.5 -143t-243.5 -49zM962 576q0 167 -72 262q-37 51 -98.5 78t-132.5 27q-153 0 -230 -105q-71 -90 -71 -262q0 -170 71 -260q38 -52 98 -79.5t132 -27.5q71 0 132 28t99 79q72 95 72 260z" />
    <glyph glyph-name="OE" unicode="&#x152;" horiz-adv-x="2493" 
d="M2345 1295h-734v-380h606v-239h-606v-435h734v-241h-992v186q-100 -107 -239.5 -162.5t-292.5 -55.5q-169 0 -316.5 64t-242.5 186q-177 216 -177 550q0 337 177 553q97 122 243.5 184.5t315.5 62.5q157 0 295 -54.5t237 -160.5v183h992v-241zM1175 373q109 147 109 395
q0 251 -109 395q-59 80 -152.5 121t-201.5 41q-108 2 -202 -40t-154 -122q-113 -145 -109 -395q0 -252 109 -395q59 -80 153 -121t203 -41q107 -2 201 40t153 122z" />
    <glyph glyph-name="oe" unicode="&#x153;" horiz-adv-x="2161" 
d="M1237 503q10 -118 66 -187q38 -52 99.5 -79.5t133.5 -27.5q108 0 177 53q59 45 92 111l254 -76q-66 -153 -203 -242q-142 -87 -307 -87q-133 0 -253 50t-195 142l-4 4q0 -1 -1.5 -2t-1.5 -2q-79 -94 -191.5 -143t-243.5 -49q-130 0 -243.5 49.5t-191.5 142.5
q-139 169 -139 416q0 251 139 418q75 91 190.5 140.5t244.5 49.5t243.5 -48.5t191.5 -141.5q3 -3 3 -4l4 4q77 93 190.5 141.5t244.5 48.5q259 0 410 -181q150 -178 125 -500h-834zM1536 960q-148 0 -230 -105q-47 -62 -64 -149h571q-10 99 -55 158q-36 46 -96 71t-126 25z
M659 209q71 0 132 28t99 79q72 95 72 260q0 167 -72 262q-37 51 -98.5 78t-132.5 27q-153 0 -230 -105q-71 -90 -71 -262q0 -170 71 -260q38 -52 98 -79.5t132 -27.5z" />
    <glyph glyph-name="Racute" unicode="&#x154;" horiz-adv-x="1365" 
d="M1009 1879l-570 -204l-66 187l572 205zM1033 0l-261 538h-367v-538h-256v1536h636q123 0 207 -32.5t151 -97.5q81 -76 117.5 -164t38.5 -205q0 -104 -36.5 -196.5t-99.5 -157.5q-61 -61 -128 -94l288 -589h-290zM405 1293v-514h386q52 0 103.5 23t86.5 66q56 66 56 169
q0 115 -62 185q-62 71 -184 71h-386z" />
    <glyph glyph-name="racute" unicode="&#x155;" horiz-adv-x="947" 
d="M787 1495l-572 -204l-66 187l572 205zM713 1182q88 6 181 -30v-239q-87 36 -207 30q-125 -9 -194 -81q-86 -89 -86 -265v-597h-258v1152h229v-160q46 77 115 122q95 65 220 68z" />
    <glyph glyph-name="uni0156" unicode="&#x156;" horiz-adv-x="1365" 
d="M1035 589l288 -589h-290l-261 538h-367v-538h-256v1536h636q123 0 207 -32.5t151 -97.5q81 -76 117.5 -164t38.5 -205q0 -104 -36.5 -196.5t-99.5 -157.5q-61 -61 -128 -94zM405 1293v-514h386q52 0 103.5 23t86.5 66q56 66 56 169q0 115 -62 185q-62 71 -184 71h-386z
M576 -388v249h250v-249q0 -99 -71 -161.5t-179 -62.5v113q16 0 35.5 4t45 14.5t41.5 34.5t15 58h-137z" />
    <glyph glyph-name="uni0157" unicode="&#x157;" horiz-adv-x="947" 
d="M713 1182q88 6 181 -30v-239q-87 36 -207 30q-125 -9 -194 -81q-86 -89 -86 -265v-597h-258v1152h229v-160q46 77 115 122q95 65 220 68zM156 -388v249h247v-249q0 -100 -69.5 -162t-177.5 -62v113q16 0 35.5 4t44.5 14.5t41 34.5t15 58h-136z" />
    <glyph glyph-name="Rcaron" unicode="&#x158;" horiz-adv-x="1365" 
d="M1039 1877l-363 -200l-365 200l94 175l271 -147l271 147zM1033 0l-261 538h-367v-538h-256v1536h636q123 0 207 -32.5t151 -97.5q81 -76 117.5 -164t38.5 -205q0 -104 -36.5 -196.5t-99.5 -157.5q-61 -61 -128 -94l288 -589h-290zM405 1293v-514h386q52 0 103.5 23
t86.5 66q56 66 56 169q0 115 -62 185q-62 71 -184 71h-386z" />
    <glyph glyph-name="rcaron" unicode="&#x159;" horiz-adv-x="947" 
d="M877 1493l-363 -200l-365 200l94 175l271 -147l269 147zM713 1182q88 6 181 -30v-239q-87 36 -207 30q-125 -9 -194 -81q-86 -89 -86 -265v-597h-258v1152h229v-160q46 77 115 122q95 65 220 68z" />
    <glyph glyph-name="Sacute" unicode="&#x15a;" horiz-adv-x="1403" 
d="M427 1675l571 204l-66 188l-571 -205zM1308 1148l-258 -71q-35 71 -69 115t-87 75q-96 58 -196 58q-114 3 -195 -43q-44 -26 -67.5 -65.5t-23.5 -81.5q0 -56 36 -92q46 -46 186 -87l268 -77q187 -55 282 -147q139 -133 139 -316q0 -99 -52 -194t-140 -156
q-146 -98 -414 -98q-324 0 -497 205q-96 112 -139 290l260 70q24 -120 84 -194q47 -63 129.5 -96.5t170.5 -33.5q69 0 140 18t114 50q71 55 71 148q0 72 -52 121q-59 53 -153 77l-284 83q-191 54 -292 143q-63 54 -95.5 132t-32.5 160q0 117 68.5 217.5t174.5 149.5
q126 60 318 60q189 -4 320 -77q194 -105 286 -343z" />
    <glyph glyph-name="sacute" unicode="&#x15b;" horiz-adv-x="1160" 
d="M343 1291l570 204l-64 188l-572 -205zM1067 849l-241 -60q-66 166 -261 173q-80 3 -143.5 -28.5t-63.5 -82.5q0 -42 34 -62.5t107 -39.5l220 -62q166 -46 261 -136.5t95 -224.5q0 -85 -43 -160.5t-117 -120.5q-119 -77 -305 -77q-267 0 -401 149q-89 96 -124 235l231 62
q27 -91 74 -141q81 -81 224 -81q45 0 97 11t78 32q54 35 54 89q0 27 -13 47.5t-40 34.5t-51.5 22.5t-64.5 19.5q-10 3 -15 4q-256 73 -279 81q-138 58 -192 122q-31 35 -46.5 88.5t-15.5 99.5q0 101 56.5 179.5t146.5 118.5q98 43 249 43q133 0 245 -58q83 -39 148 -113.5
t96 -163.5z" />
    <glyph glyph-name="Scedilla" unicode="&#x15e;" horiz-adv-x="1403" 
d="M1184 732q139 -133 139 -316q0 -99 -52 -194t-140 -156q-140 -91 -382 -98l-19 -58q67 -34 102 -91q31 -53 27.5 -120t-38.5 -115q-35 -53 -91 -79t-120 -19q-59 5 -121 38l57 152q47 -15 66 -15q42 0 58 25q14 23 6 49q-4 16 -14.5 28t-32.5 21.5t-37.5 15t-49.5 14.5
l55 160q-235 30 -377 199q-96 112 -139 290l260 70q24 -120 84 -194q47 -63 129.5 -96.5t170.5 -33.5q69 0 140 18t114 50q71 55 71 148q0 72 -52 121q-59 53 -153 77l-284 83q-191 54 -292 143q-63 54 -95.5 132t-32.5 160q0 117 68.5 217.5t174.5 149.5q126 60 318 60
q189 -4 320 -77q194 -105 286 -343l-258 -71q-35 71 -69 115t-87 75q-96 58 -196 58q-114 3 -195 -43q-44 -26 -67.5 -65.5t-23.5 -81.5q0 -56 36 -92q46 -46 186 -87l268 -77q187 -55 282 -147z" />
    <glyph glyph-name="scedilla" unicode="&#x15f;" horiz-adv-x="1160" 
d="M719 687q166 -46 261 -136.5t95 -224.5q0 -85 -43 -160.5t-117 -120.5q-102 -65 -239 -75l-21 -60q71 -33 102 -91q32 -53 29 -120t-39 -115q-35 -53 -91.5 -79t-120.5 -19q-59 5 -121 38l57 152q47 -15 69 -15q39 0 55 25q17 23 9 49q-6 21 -28.5 37t-43 22.5
t-65.5 19.5l54 158q-200 21 -312 145q-89 96 -124 235l231 62q27 -91 74 -141q81 -81 224 -81q45 0 97 11t78 32q54 35 54 89q0 27 -13 47.5t-40 34.5t-51.5 22.5t-64.5 19.5q-10 3 -15 4q-256 73 -279 81q-138 58 -192 122q-31 35 -46.5 88.5t-15.5 99.5q0 101 56.5 179.5
t146.5 118.5q98 43 249 43q133 0 245 -58q83 -39 148 -113.5t96 -163.5l-241 -60q-66 166 -261 173q-80 3 -143.5 -28.5t-63.5 -82.5q0 -42 34 -62.5t107 -39.5z" />
    <glyph glyph-name="Scaron" unicode="&#x160;" horiz-adv-x="1403" 
d="M412 2052l-94 -175l365 -200l362 200l-94 175l-268 -147zM1308 1148l-258 -71q-35 71 -69 115t-87 75q-96 58 -196 58q-114 3 -195 -43q-44 -26 -67.5 -65.5t-23.5 -81.5q0 -56 36 -92q46 -46 186 -87l268 -77q187 -55 282 -147q139 -133 139 -316q0 -99 -52 -194
t-140 -156q-146 -98 -414 -98q-324 0 -497 205q-96 112 -139 290l260 70q24 -120 84 -194q47 -63 129.5 -96.5t170.5 -33.5q69 0 140 18t114 50q71 55 71 148q0 72 -52 121q-59 53 -153 77l-284 83q-191 54 -292 143q-63 54 -95.5 132t-32.5 160q0 117 68.5 217.5
t174.5 149.5q126 60 318 60q189 -4 320 -77q194 -105 286 -343z" />
    <glyph glyph-name="scaron" unicode="&#x161;" horiz-adv-x="1160" 
d="M324 1668l-91 -175l362 -200l365 200l-94 175l-271 -147zM1067 849l-241 -60q-66 166 -261 173q-80 3 -143.5 -28.5t-63.5 -82.5q0 -42 34 -62.5t107 -39.5l220 -62q166 -46 261 -136.5t95 -224.5q0 -85 -43 -160.5t-117 -120.5q-119 -77 -305 -77q-267 0 -401 149
q-89 96 -124 235l231 62q27 -91 74 -141q81 -81 224 -81q45 0 97 11t78 32q54 35 54 89q0 27 -13 47.5t-40 34.5t-51.5 22.5t-64.5 19.5q-10 3 -15 4q-256 73 -279 81q-138 58 -192 122q-31 35 -46.5 88.5t-15.5 99.5q0 101 56.5 179.5t146.5 118.5q98 43 249 43
q133 0 245 -58q83 -39 148 -113.5t96 -163.5z" />
    <glyph glyph-name="uni0162" unicode="&#x162;" horiz-adv-x="1294" 
d="M777 0h-50l-32 -90q72 -33 103 -91q32 -53 28.5 -119.5t-39.5 -115.5q-35 -53 -91 -79t-120 -19q-60 5 -122 38l58 152q47 -15 68 -15q40 0 56 25q16 22 8 49q-5 16 -16 28t-33 21.5t-37.5 15t-49.5 14.5l64 186h-54v1295h-497v241h1253v-241h-497v-1295z" />
    <glyph glyph-name="uni0163" unicode="&#x163;" horiz-adv-x="966" 
d="M486 951v-467v-36.5v-37t0.5 -30.5t2 -32t4.5 -25t7 -26t10 -20q37 -62 126 -70q91 -6 190 8v-215q-57 -15 -140.5 -18.5t-145.5 5.5l-28 -79q67 -34 102 -91q30 -53 27 -120t-37 -115q-37 -53 -92.5 -79t-118.5 -19q-60 5 -122 38l58 152q47 -15 66 -15q42 0 55 25
q17 23 9 49q-5 16 -16 28t-32.5 21.5t-37.5 15t-49 14.5l73 214q-68 31 -120 111q-14 22 -23.5 48.5t-14.5 47.5t-7 57t-2.5 54t0 64t0.5 63v480h-209v201h209v320h256v-320h340v-201h-340z" />
    <glyph glyph-name="Tcaron" unicode="&#x164;" horiz-adv-x="1294" 
d="M1011 1877l-365 -200l-362 200l94 175l268 -147l271 147zM1274 1536v-241h-497v-1295h-259v1295h-497v241h1253z" />
    <glyph glyph-name="tcaron" unicode="&#x165;" horiz-adv-x="923" 
d="M725 1833h263v-284q0 -143 -66.5 -212.5t-196.5 -47.5l15 108q71 -4 101.5 41t20.5 121h-137v274zM486 1472v-320h340v-201h-340v-467v-36.5v-37t0.5 -30.5t2 -32t4.5 -25t7 -26t10 -20q37 -62 126 -70q91 -6 190 8v-215q-63 -17 -159.5 -19t-156.5 10q-81 13 -135 46
t-98 100q-14 22 -23.5 48.5t-14.5 47.5t-7 57t-2.5 54t0 64t0.5 63v480h-209v201h209v320h256z" />
    <glyph glyph-name="Tbar" unicode="&#x166;" horiz-adv-x="1294" 
d="M1274 1295h-497v-399h371v-256h-371v-640h-259v640h-373v256h373v399h-497v241h1253v-241z" />
    <glyph glyph-name="tbar" unicode="&#x167;" horiz-adv-x="966" 
d="M486 495v-11v-36.5v-37t0.5 -30.5t2 -32t4.5 -25t7 -26t10 -20q37 -62 126 -70q91 -6 190 8v-215q-63 -17 -159.5 -19t-156.5 10q-81 13 -135 46t-98 100q-14 22 -23.5 48.5t-14.5 47.5t-7 57t-2.5 54t0 64t0.5 63v24h-209v200h209v256h-209v201h209v320h256v-320h340
v-201h-340v-256h374v-200h-374z" />
    <glyph glyph-name="Umacron" unicode="&#x16a;" horiz-adv-x="1536" 
d="M484 1993h568v-201h-568v201zM1387 1536v-966q0 -226 -130 -389q-82 -105 -211 -159t-276 -54q-146 0 -276.5 54.5t-214.5 158.5q-61 79 -95.5 183t-34.5 206v964l261 2v-943q0 -144 74 -245q45 -66 122.5 -102.5t163.5 -36.5q82 0 157.5 37t126.5 102q72 98 72 245v943
h261z" />
    <glyph glyph-name="umacron" unicode="&#x16b;" 
d="M947 1609v-201h-569v201h569zM926 1152h260v-1152h-228v130q-8 -8 -26 -30q-53 -62 -131.5 -94.5t-162.5 -35.5q-231 -16 -371 115q-48 44 -78 102t-42 132.5t-15.5 131t-3.5 144.5v557h260v-546q0 -248 92 -331q69 -69 192 -66q84 3 151 53q70 56 90 160q13 55 13 227v2
v501z" />
    <glyph glyph-name="Uring" unicode="&#x16e;" horiz-adv-x="1536" 
d="M768 2127q128 0 219.5 -92t91.5 -220t-91.5 -219.5t-219.5 -91.5t-219.5 91.5t-91.5 219.5t91.5 220t219.5 92zM768 1943q-52 0 -90 -37.5t-38 -90.5t38 -90.5t90 -37.5t90 37.5t38 90.5t-38 90.5t-90 37.5zM1387 1536v-966q0 -226 -130 -389q-82 -105 -211 -159
t-276 -54q-146 0 -276.5 54.5t-214.5 158.5q-61 79 -95.5 183t-34.5 206v964l261 2v-943q0 -144 74 -245q45 -66 122.5 -102.5t163.5 -36.5q82 0 157.5 37t126.5 102q72 98 72 245v943h261z" />
    <glyph glyph-name="uring" unicode="&#x16f;" 
d="M657 1207q-128 0 -219.5 92t-91.5 220t91.5 219.5t219.5 91.5t218.5 -91.5t90.5 -219.5q0 -129 -90.5 -220.5t-218.5 -91.5zM657 1647q-53 0 -90.5 -37.5t-37.5 -90.5t37.5 -90.5t90.5 -37.5t90.5 37.5t37.5 90.5t-37.5 90.5t-90.5 37.5zM926 1152h260v-1152h-228v130
q-8 -8 -26 -30q-53 -62 -131.5 -94.5t-162.5 -35.5q-231 -16 -371 115q-48 44 -78 102t-42 132.5t-15.5 131t-3.5 144.5v557h260v-546q0 -248 92 -331q69 -69 192 -66q84 3 151 53q70 56 90 160q13 55 13 227v2v501z" />
    <glyph glyph-name="Uhungarumlaut" unicode="&#x170;" horiz-adv-x="1536" 
d="M599 1687l259 256l-122 124l-258 -254zM945 1687l260 256l-121 124l-261 -254zM1387 1536v-966q0 -226 -130 -389q-82 -105 -211 -159t-276 -54q-146 0 -276.5 54.5t-214.5 158.5q-61 79 -95.5 183t-34.5 206v964l261 2v-943q0 -144 74 -245q45 -66 122.5 -102.5
t163.5 -36.5q82 0 157.5 37t126.5 102q72 98 72 245v943h261z" />
    <glyph glyph-name="uhungarumlaut" unicode="&#x171;" 
d="M736 1559l-260 -256l-122 126l260 254zM823 1303l-121 126l258 254l122 -124zM926 1152h260v-1152h-228v130q-8 -8 -26 -30q-53 -62 -131.5 -94.5t-162.5 -35.5q-231 -16 -371 115q-48 44 -78 102t-42 132.5t-15.5 131t-3.5 144.5v557h260v-546q0 -248 92 -331
q69 -69 192 -66q84 3 151 53q70 56 90 160q13 55 13 227v2v501z" />
    <glyph glyph-name="Uogonek" unicode="&#x172;" horiz-adv-x="1536" 
d="M1126 1536h261v-966q0 -226 -130 -389q-53 -67 -126 -113q-22 -21 -57 -53t-52 -47.5t-35.5 -34t-28.5 -31.5q-63 -90 -77 -124q-7 -17 -7.5 -36.5t13.5 -40.5q13 -17 37 -18.5t47 8t42 25.5l94 -119q-36 -61 -102 -88q-71 -34 -148.5 -14t-126.5 83q-43 48 -52.5 122
t17.5 146q27 61 75 122q-146 0 -276.5 54.5t-214.5 158.5q-61 79 -95.5 183t-34.5 206v964l261 2v-943q0 -144 74 -245q45 -66 122.5 -102.5t163.5 -36.5q82 0 157.5 37t126.5 102q72 98 72 245v943z" />
    <glyph glyph-name="uogonek" unicode="&#x173;" 
d="M1103 -284l92 -119q-35 -60 -101 -88q-73 -34 -150.5 -14t-126.5 83q-43 48 -52 122t20 146q51 125 173 212v72q-8 -8 -26 -30q-53 -62 -131.5 -94.5t-162.5 -35.5q-231 -16 -371 115q-48 44 -78 102t-42 132.5t-15.5 131t-3.5 144.5v557h260v-546q0 -248 92 -331
q69 -69 192 -66q84 3 151 53q70 56 90 160q13 55 13 227v2v501h260v-1152h-21q-71 -49 -115 -102q-56 -59 -81 -120q-15 -56 6 -77q13 -17 37 -18.5t47.5 8t43.5 25.5z" />
    <glyph glyph-name="Wcircumflex" unicode="&#x174;" horiz-adv-x="2082" 
d="M772 1677l269 147l271 -147l94 177l-365 198l-363 -198zM1788 1536h269l-448 -1536h-254l-316 1092l-312 -1092h-253l-448 1536h268l305 -1109l306 1107l268 2l308 -1109z" />
    <glyph glyph-name="wcircumflex" unicode="&#x175;" horiz-adv-x="1710" 
d="M585 1293l270 147l271 -147l94 177l-365 198l-362 -198zM1417 1152h251l-352 -1152h-215l-246 794l-260 -794h-200l-352 1154l254 -2l226 -738l226 738h215l229 -738z" />
    <glyph glyph-name="Ycircumflex" unicode="&#x176;" horiz-adv-x="1305" 
d="M382 1677l271 147l271 -147l91 177l-362 198l-365 -198zM1005 1536h301l-523 -907v-629h-260v629l-523 907h301l352 -612z" />
    <glyph glyph-name="ycircumflex" unicode="&#x177;" horiz-adv-x="1209" 
d="M356 1293l271 147l269 -147l94 177l-363 198l-365 -198zM932 1152h256l-499 -1325q-40 -107 -79 -176t-94 -110q-48 -35 -106.5 -44t-174.5 -9v245q106 -3 149 28q32 23 57 66t60 139l-458 1186h258l318 -858z" />
    <glyph glyph-name="Ydieresis" unicode="&#x178;" horiz-adv-x="1305" 
d="M316 2027h234v-235h-234v235zM755 2027h235v-235h-235v235zM1005 1536h301l-523 -907v-629h-260v629l-523 907h301l352 -612z" />
    <glyph glyph-name="Zacute" unicode="&#x179;" horiz-adv-x="1386" 
d="M495 1675l570 204l-64 188l-574 -205zM457 243h802v-243h-1131v243l802 1052h-802v241h1131v-243z" />
    <glyph glyph-name="zacute" unicode="&#x17a;" horiz-adv-x="1228" 
d="M369 1291l572 204l-66 188l-572 -205zM1079 226v-226h-930v220l593 706h-593v226h930v-226l-590 -700h590z" />
    <glyph glyph-name="Zdotaccent" unicode="&#x17b;" horiz-adv-x="1386" 
d="M612 2027h263v-263h-263v263zM457 243h802v-243h-1131v243l802 1052h-802v241h1131v-243z" />
    <glyph glyph-name="zdotaccent" unicode="&#x17c;" horiz-adv-x="1228" 
d="M518 1643h265v-263h-265v263zM1079 226v-226h-930v220l593 706h-593v226h930v-226l-590 -700h590z" />
    <glyph glyph-name="Zcaron" unicode="&#x17d;" horiz-adv-x="1386" 
d="M454 2052l-91 -175l362 -200l365 200l-94 175l-271 -147zM457 243h802v-243h-1131v243l802 1052h-802v241h1131v-243z" />
    <glyph glyph-name="zcaron" unicode="&#x17e;" horiz-adv-x="1228" 
d="M373 1668l-94 -175l365 -200l363 200l-94 175l-269 -147zM1079 226v-226h-930v220l593 706h-593v226h930v-226l-590 -700h590z" />
    <glyph glyph-name="florin" unicode="&#x192;" horiz-adv-x="1604" 
d="M1184 1568q158 0 292 -68l-117 -211q-1 3 -21 11t-58.5 16.5t-76.5 8.5q-49 0 -94 -16t-82.5 -57.5t-47.5 -101.5l-47 -280h393v-202h-427l-40 -241q-34 -222 -150.5 -340.5t-297.5 -118.5q-136 0 -282 66l109 216q27 -15 72.5 -27t85.5 -12q160 0 204 252l35 205h-308
v202h342l36 227q34 233 155.5 352t324.5 119z" />
    <glyph glyph-name="uni0218" unicode="&#x218;" horiz-adv-x="1403" 
d="M1308 1148l-258 -71q-35 71 -69 115t-87 75q-96 58 -196 58q-114 3 -195 -43q-44 -26 -67.5 -65.5t-23.5 -81.5q0 -56 36 -92q46 -46 186 -87l268 -77q187 -55 282 -147q139 -133 139 -316q0 -99 -52 -194t-140 -156q-146 -98 -414 -98q-324 0 -497 205q-96 112 -139 290
l260 70q24 -120 84 -194q47 -63 129.5 -96.5t170.5 -33.5q69 0 140 18t114 50q71 55 71 148q0 72 -52 121q-59 53 -153 77l-284 83q-191 54 -292 143q-63 54 -95.5 132t-32.5 160q0 117 68.5 217.5t174.5 149.5q126 60 318 60q189 -4 320 -77q194 -105 286 -343zM813 -388
q0 -99 -71 -161.5t-179 -62.5v113q16 0 35.5 4t45 14.5t41.5 34.5t15 58h-137v249h250v-249z" />
    <glyph glyph-name="uni0219" unicode="&#x219;" horiz-adv-x="1160" 
d="M1067 849l-241 -60q-66 166 -261 173q-80 3 -143.5 -28.5t-63.5 -82.5q0 -42 34 -62.5t107 -39.5l220 -62q166 -46 261 -136.5t95 -224.5q0 -85 -43 -160.5t-117 -120.5q-119 -77 -305 -77q-267 0 -401 149q-89 96 -124 235l231 62q27 -91 74 -141q81 -81 224 -81
q45 0 97 11t78 32q54 35 54 89q0 27 -13 47.5t-40 34.5t-51.5 22.5t-64.5 19.5q-10 3 -15 4q-256 73 -279 81q-138 58 -192 122q-31 35 -46.5 88.5t-15.5 99.5q0 101 56.5 179.5t146.5 118.5q98 43 249 43q133 0 245 -58q83 -39 148 -113.5t96 -163.5zM717 -388
q0 -100 -70 -162t-180 -62v113q16 0 36 4t45 14.5t41.5 34.5t16.5 58h-139v249h250v-249z" />
    <glyph glyph-name="uni021A" unicode="&#x21a;" horiz-adv-x="1294" 
d="M1274 1536v-241h-497v-1295h-259v1295h-497v241h1253zM523 -388v249h249v-249q0 -100 -70.5 -162t-178.5 -62v113q16 0 35.5 4t44.5 14.5t41 34.5t15 58h-136z" />
    <glyph glyph-name="uni021B" unicode="&#x21b;" horiz-adv-x="923" 
d="M486 951v-467v-36.5v-37t0.5 -30.5t2 -32t4.5 -25t7 -26t10 -20q37 -62 126 -70q91 -6 190 8v-215q-63 -17 -159.5 -19t-156.5 10q-81 13 -135 46t-98 100q-14 22 -23.5 48.5t-14.5 47.5t-7 57t-2.5 54t0 64t0.5 63v480h-209v201h209v320h256v-320h340v-201h-340z
M386 -388v249h250v-249q0 -100 -70 -162t-180 -62v113q16 0 36 4t45 14.5t41.5 34.5t16.5 58h-139z" />
    <glyph glyph-name="alpha" unicode="&#x3b1;" horiz-adv-x="1350" 
d="M1233 427q0 -28 1.5 -47.5t8 -45t18.5 -42t34.5 -30t54.5 -17.5v-245q-192 3 -288 126q-158 -158 -403 -158q-130 0 -243.5 49.5t-191.5 142.5q-139 169 -139 416q0 251 139 418q75 91 190.5 140.5t244.5 49.5q202 0 348 -109v77h226v-725zM890 316q72 95 72 260
q0 167 -72 262q-37 51 -98.5 78t-132.5 27q-153 0 -230 -105q-71 -90 -71 -262q0 -170 71 -260q38 -52 98 -79.5t132 -27.5q71 0 132 28t99 79z" />
    <glyph glyph-name="beta" unicode="&#x3b2;" horiz-adv-x="1307" 
d="M1139 721q88 -106 88 -269q0 -207 -154 -345q-152 -139 -390 -139q-154 0 -276 53v-533h-258v1664q0 94 47 183t128 146q124 87 301 87q175 0 301 -92q82 -60 129.5 -152.5t47.5 -188.5q0 -93 -43 -171q-30 -64 -87 -115q107 -59 166 -128zM907 299q62 74 62 155
q0 62 -35 112.5t-89 79.5q-100 50 -220 56v224q113 23 169 81q49 52 49 124q0 45 -22 85.5t-57 67.5q-63 43 -139 43q-80 0 -139 -43q-35 -24 -55.5 -64t-20.5 -77v-691q0 -126 68 -181q76 -64 211 -64q63 0 120.5 24.5t97.5 67.5z" />
    <glyph glyph-name="uni03BC" unicode="&#x3bc;" horiz-adv-x="1322" 
d="M1323 245v-245q-159 3 -254 87l-2 -2q-137 -131 -372 -115q-82 3 -160.5 35.5t-133.5 94.5q-13 13 -23 28v-512h-229v1536h258v-501q0 -164 13 -229q24 -108 92 -160q64 -50 151 -53q120 -3 192 66q92 86 92 331v546h260v-725q0 -29 1.5 -48t7.5 -44.5t18 -41.5t34.5 -30
t54.5 -18z" />
    <glyph glyph-name="uni0400" unicode="&#x400;" horiz-adv-x="1290" 
d="M971 1862l-66 -187l-570 204l64 188zM1141 1295h-736v-380h608v-239h-608v-435h736v-241h-992v1536h992v-241z" />
    <glyph glyph-name="uni0401" unicode="&#x401;" horiz-adv-x="1290" 
d="M535 2027v-235h-234v235h234zM977 2027v-235h-235v235h235zM1141 1295h-736v-380h608v-239h-608v-435h736v-241h-992v1536h992v-241z" />
    <glyph glyph-name="uni0402" unicode="&#x402;" horiz-adv-x="1442" 
d="M796 1184q270 0 415.5 -147.5t145.5 -409.5q0 -311 -139.5 -469t-432.5 -158v260q87 0 148.5 25.5t96.5 74t51 109.5t16 141q0 165 -88.5 246t-238.5 81q-130 0 -213 -53t-109 -142q-21 -79 -21 -185v-557h-261v1308h-166v228h736v-228h-341v-265q150 141 401 141z" />
    <glyph glyph-name="uni0403" unicode="&#x403;" horiz-adv-x="1162" 
d="M894 1879l-572 -204l-66 187l572 205zM1141 1536v-241h-736v-1295h-256v1536h992z" />
    <glyph glyph-name="uni0404" unicode="&#x404;" horiz-adv-x="1606" 
d="M1158 373q46 62 73 143l252 -62q-30 -100 -78.5 -181.5t-130.5 -150.5q-174 -154 -470 -154q-168 0 -309 64.5t-235 185.5q-175 226 -175 550q0 346 173 553q99 123 239 185t307 62q293 0 467 -156q169 -141 222 -371l-258 -36q-25 87 -77 158q-121 159 -337 162
q-108 2 -202 -40t-152 -122q-82 -103 -104 -267h546v-256h-544q23 -169 102 -267q57 -79 150.5 -119.5t203.5 -42.5q214 -3 337 162z" />
    <glyph glyph-name="uni0405" unicode="&#x405;" horiz-adv-x="1403" 
d="M1308 1148l-258 -71q-35 71 -69 115t-87 75q-96 58 -196 58q-114 3 -195 -43q-44 -26 -67.5 -65.5t-23.5 -81.5q0 -56 36 -92q46 -46 186 -87l268 -77q187 -55 282 -147q139 -133 139 -316q0 -99 -52 -194t-140 -156q-146 -98 -414 -98q-324 0 -497 205q-96 112 -139 290
l260 70q24 -120 84 -194q47 -63 129.5 -96.5t170.5 -33.5q69 0 140 18t114 50q71 55 71 148q0 72 -52 121q-59 53 -153 77l-284 83q-191 54 -292 143q-63 54 -95.5 132t-32.5 160q0 117 68.5 217.5t174.5 149.5q126 60 318 60q189 -4 320 -77q194 -105 286 -343z" />
    <glyph glyph-name="uni0406" unicode="&#x406;" horiz-adv-x="597" 
d="M171 1536h256v-1536h-256v1536z" />
    <glyph glyph-name="uni0407" unicode="&#x407;" horiz-adv-x="597" 
d="M-38 2027h234v-235h-234v235zM403 2027h235v-235h-235v235zM171 1536h256v-1536h-256v1536z" />
    <glyph glyph-name="uni0408" unicode="&#x408;" horiz-adv-x="1068" 
d="M898 1536h-264v-1035q0 -86 -3 -120.5t-17 -69.5q-20 -47 -68.5 -74.5t-99.5 -27.5q-62 0 -115 38q-64 50 -77 122l-254 -62q25 -87 79.5 -160t131.5 -117q96 -62 235 -62q262 0 392 215q42 76 51 134t9 184v1035z" />
    <glyph glyph-name="uni0409" unicode="&#x409;" horiz-adv-x="2344" 
d="M2144 853q64 -66 101 -158.5t36 -195.5q-2 -117 -38 -205t-116 -164q-69 -65 -153.5 -97.5t-207.5 -32.5h-635v1295h-549l-102 -862q-26 -236 -136.5 -347t-322.5 -86v228q110 3 160.5 67t65.5 191l128 1050h1014v-538h377q239 0 378 -145zM2018 499q3 100 -55 169
q-34 43 -86 66t-104 23h-384v-514h384q123 0 185 71q60 71 60 185z" />
    <glyph glyph-name="uni040A" unicode="&#x40a;" horiz-adv-x="2331" 
d="M2131 853q65 -65 101.5 -157.5t35.5 -196.5q-2 -117 -38 -205t-116 -164q-67 -65 -152 -97.5t-208 -32.5h-634v757h-715v-757h-256v1536h256v-538h715v538h256v-538h378q241 0 377 -145zM1946 314q57 68 61 185q0 100 -55 169q-35 43 -87.5 66t-104.5 23h-384v-514h384
q124 0 186 71z" />
    <glyph glyph-name="uni040B" unicode="&#x40b;" horiz-adv-x="1442" 
d="M1182 838q70 -89 90.5 -188t20.5 -251v-399h-260v343q0 111 -15 189t-60 138q-84 109 -258 109q-192 0 -293 -90v-689h-258v1308h-149v228h736v-228h-329v-380q132 100 331 100q135 0 251 -47t193 -143z" />
    <glyph glyph-name="uni040C" unicode="&#x40c;" horiz-adv-x="1403" 
d="M489 1675l569 204l-64 188l-572 -205zM1404 0h-327l-514 653h-153v-653h-261v1536h261v-642h151l469 642h318l-550 -759z" />
    <glyph glyph-name="uni040D" unicode="&#x40d;" horiz-adv-x="1531" 
d="M1035 1675l66 187l-572 205l-66 -188zM1122 1536h260v-1536h-260v1084l-712 -1084h-261v1536h261v-1082z" />
    <glyph glyph-name="uni040E" unicode="&#x40e;" horiz-adv-x="1388" 
d="M826 1988h200q0 -134 -95 -229t-229 -95t-228 95t-94 229h200q0 -51 35.5 -87t86.5 -36t87.5 36t36.5 87zM1103 1536h264l-595 -1263q-49 -102 -96 -163.5t-115 -98.5q-36 -20 -90 -31.5t-93 -11.5q-77 0 -175 32l83 226q47 -19 92 -19q51 0 81 17q61 36 121 162
l-537 1150h262l399 -881z" />
    <glyph glyph-name="uni040F" unicode="&#x40f;" horiz-adv-x="1638" 
d="M1233 1536h256v-1536h-542v-256h-256v256h-542v1536h256v-1295h828v1295z" />
    <glyph glyph-name="uni0410" unicode="&#x410;" horiz-adv-x="1431" 
d="M1124 0l-106 333h-606l-105 -333h-264l484 1536h378l484 -1536h-265zM489 574h452l-228 712z" />
    <glyph glyph-name="uni0411" unicode="&#x411;" horiz-adv-x="1363" 
d="M1178 836q121 -140 121 -337q-1 -100 -41 -195.5t-104 -158.5q-69 -69 -165 -107t-195 -38h-645v1536h1020v-241h-764v-318h389q265 0 384 -141zM975 324q62 68 62 175q0 108 -49 171q-34 47 -83.5 67t-121.5 20h-378v-514h386q48 0 99.5 22.5t84.5 58.5z" />
    <glyph glyph-name="uni0412" unicode="&#x412;" horiz-adv-x="1363" 
d="M1167 738q55 -49 86 -124.5t29 -154.5q0 -221 -126 -340q-69 -67 -149 -93t-220 -26h-638v1536h608q103 0 181.5 -26.5t143.5 -88.5q127 -117 130 -314q1 -76 -28 -144.5t-77 -111.5q-14 -14 -55 -42q63 -25 115 -71zM755 1295h-345v-371h345q100 0 156 64q38 43 38 123
q0 82 -51 133t-143 51zM960 307q62 59 62 152q0 95 -53 155q-64 69 -173 69h-386v-440h379q104 0 171 64z" />
    <glyph glyph-name="uni0413" unicode="&#x413;" horiz-adv-x="1162" 
d="M1141 1536v-241h-736v-1295h-256v1536h992z" />
    <glyph glyph-name="uni0414" unicode="&#x414;" horiz-adv-x="1651" 
d="M1440 241h105v-429h-244v188h-981v-188h-241v429q180 0 226 393l105 902h1030v-1295zM1199 241v1054h-572l-81 -689q-16 -132 -41.5 -221t-73.5 -144h768z" />
    <glyph glyph-name="uni0415" unicode="&#x415;" horiz-adv-x="1290" 
d="M1141 1295h-736v-380h608v-239h-608v-435h736v-241h-992v1536h992v-241z" />
    <glyph glyph-name="uni0416" unicode="&#x416;" horiz-adv-x="2178" 
d="M21 0l521 800l-203 384q-39 73 -106 98q-52 20 -137 15l-21 239q49 23 127 21t148 -34q65 -30 111.5 -83.5t86.5 -131.5l214 -408h196v636h262v-636h199l211 408q40 78 86.5 131.5t111.5 83.5q70 32 149 34t126 -21l-19 -239q-87 5 -138 -15q-64 -24 -107 -98l-203 -384
l521 -800h-312l-437 698h-188v-698h-262v698h-188l-437 -698h-312z" />
    <glyph glyph-name="uni0417" unicode="&#x417;" horiz-adv-x="1408" 
d="M143 1335q84 84 220 156q155 77 345 77q249 0 401 -113q83 -59 128 -148.5t45 -190.5q0 -45 -15 -98.5t-38 -89.5q-25 -59 -83 -124q60 -48 111 -130q66 -93 66 -243q0 -103 -55.5 -199.5t-145.5 -154.5q-82 -56 -191.5 -82.5t-217.5 -26.5q-232 0 -376 81
q-165 92 -252 248l192 147q65 -108 173 -171q115 -64 258 -64q173 0 271 81q74 65 71 143q3 111 -71 171q-84 68 -226 68h-232v243h232q118 0 190 56q68 52 64 143q0 88 -73 149q-81 64 -230 64q-114 0 -239 -60q-93 -48 -162 -117z" />
    <glyph glyph-name="uni0418" unicode="&#x418;" horiz-adv-x="1531" 
d="M1122 1536h260v-1536h-260v1084l-712 -1084h-261v1536h261v-1082z" />
    <glyph glyph-name="uni0419" unicode="&#x419;" horiz-adv-x="1531" 
d="M937 1988h200q0 -134 -94 -229t-228 -95t-229 95t-95 229h200q0 -51 36.5 -87t87.5 -36t86.5 36t35.5 87zM1122 1536h260v-1536h-260v1084l-712 -1084h-261v1536h261v-1082z" />
    <glyph glyph-name="uni041A" unicode="&#x41a;" horiz-adv-x="1403" 
d="M1404 0h-327l-514 653h-153v-653h-261v1536h261v-642h151l469 642h318l-550 -759z" />
    <glyph glyph-name="uni041B" unicode="&#x41b;" horiz-adv-x="1559" 
d="M1410 1536v-1536h-258v1295h-548l-103 -862q-26 -236 -136 -347t-322 -86v228q110 3 160.5 67t65.5 191l128 1050h1013z" />
    <glyph glyph-name="uni041C" unicode="&#x41c;" horiz-adv-x="1824" 
d="M1675 1536v-1536h-241v986l-470 -986h-102l-472 983v-983h-241v1536h231l533 -1088l531 1088h231z" />
    <glyph glyph-name="uni041D" unicode="&#x41d;" horiz-adv-x="1540" 
d="M1133 1536h258v-1536h-258v649h-728v-649h-256v1536h256v-646h728v646z" />
    <glyph glyph-name="uni041E" unicode="&#x41e;" horiz-adv-x="1640" 
d="M821 -32q-169 0 -316.5 64t-242.5 186q-177 216 -177 550q0 337 177 553q97 122 243.5 184.5t315.5 62.5q168 0 314 -63t245 -184q172 -215 175 -553q-3 -337 -175 -550q-100 -123 -247 -186.5t-312 -63.5zM821 211q107 -2 201 40t153 122q109 147 109 395
q0 251 -109 395q-59 80 -152.5 121t-201.5 41q-108 2 -202 -40t-154 -122q-113 -145 -109 -395q0 -252 109 -395q59 -80 153 -121t203 -41z" />
    <glyph glyph-name="uni041F" unicode="&#x41f;" horiz-adv-x="1638" 
d="M1489 1536v-1536h-256v1295h-828v-1295h-256v1536h1340z" />
    <glyph glyph-name="uni0420" unicode="&#x420;" horiz-adv-x="1363" 
d="M1143 1406q81 -76 117.5 -164t38.5 -205q0 -104 -36.5 -196.5t-99.5 -157.5q-139 -145 -378 -145h-380v-538h-256v1536h636q123 0 207 -32.5t151 -97.5zM981 868q56 66 56 169q0 115 -62 185q-62 71 -184 71h-386v-514h386q52 0 103.5 23t86.5 66z" />
    <glyph glyph-name="uni0421" unicode="&#x421;" horiz-adv-x="1559" 
d="M1231 516l252 -62q-61 -206 -209 -332q-177 -154 -470 -154q-168 0 -309 64.5t-235 185.5q-175 226 -175 550q0 346 173 553q99 123 239 185t307 62q290 0 467 -156q166 -141 222 -371l-258 -36q-25 87 -77 158q-121 159 -337 162q-108 2 -202 -40t-152 -122
q-115 -144 -111 -395q4 -258 111 -395q57 -79 150.5 -119.5t203.5 -42.5q214 -3 337 162q46 62 73 143z" />
    <glyph glyph-name="uni0422" unicode="&#x422;" horiz-adv-x="1294" 
d="M1274 1536v-241h-497v-1295h-259v1295h-497v241h1253z" />
    <glyph glyph-name="uni0423" unicode="&#x423;" horiz-adv-x="1388" 
d="M1103 1536h264l-595 -1263q-49 -102 -96 -163.5t-115 -98.5q-36 -20 -90 -31.5t-93 -11.5q-77 0 -175 32l83 226q47 -19 92 -19q51 0 81 17q61 36 121 162l-537 1150h262l399 -881z" />
    <glyph glyph-name="uni0424" unicode="&#x424;" horiz-adv-x="1653" 
d="M1325 1301q120 -84 182.5 -211.5t60.5 -276.5q2 -154 -60.5 -279.5t-184.5 -209.5q-154 -104 -369 -126v-198h-254v198q-214 22 -369 126q-118 84 -182 210.5t-64 278.5q0 150 62.5 277.5t181.5 210.5q156 108 371 133v102h254v-102q210 -22 371 -133zM1173 544
q124 88 124 269q0 177 -126 264q-86 63 -217 84v-702q134 21 219 85zM480 544q83 -62 220 -83v700q-138 -25 -218 -84q-124 -86 -124 -264q0 -182 122 -269z" />
    <glyph glyph-name="uni0425" unicode="&#x425;" horiz-adv-x="1399" 
d="M860 777l518 -777h-316l-360 559l-365 -559h-316l521 777l-506 759h314l352 -540l345 540h318z" />
    <glyph glyph-name="uni0426" unicode="&#x426;" horiz-adv-x="1664" 
d="M1408 228h171v-416h-256v188h-1174v1536h256v-1308h747v1272h256v-1272z" />
    <glyph glyph-name="uni0427" unicode="&#x427;" horiz-adv-x="1442" 
d="M1035 1536h258v-1536h-258v608q-129 -100 -331 -100q-135 0 -250.5 47t-191.5 143q-70 91 -91.5 190.5t-21.5 250.5v397h261v-343q0 -112 14.5 -190t59.5 -137q86 -109 258 -109q195 0 293 90v689z" />
    <glyph glyph-name="uni0428" unicode="&#x428;" horiz-adv-x="2020" 
d="M1613 1536h258v-1536h-1722v1536h256v-1295h476v1295h258v-1295h474v1295z" />
    <glyph glyph-name="uni0429" unicode="&#x429;" horiz-adv-x="2126" 
d="M1871 228h171v-416h-259v188h-1634v1536h256v-1295h476v1295h258v-1295h474v1295h258v-1308z" />
    <glyph glyph-name="uni042A" unicode="&#x42a;" horiz-adv-x="1386" 
d="M1201 853q64 -66 101 -158.5t36 -195.5q-2 -117 -38 -205t-116 -164q-69 -65 -153.5 -97.5t-207.5 -32.5h-635v1335h-209v201h467v-538h377q239 0 378 -145zM1075 499q3 100 -55 169q-35 43 -86.5 66t-103.5 23h-384v-514h384q123 0 185 71q60 71 60 185z" />
    <glyph glyph-name="uni042B" unicode="&#x42b;" horiz-adv-x="1836" 
d="M1163 853q63 -65 99.5 -157.5t36.5 -196.5q-2 -117 -38.5 -205t-117.5 -164q-67 -65 -151 -97.5t-207 -32.5h-636v1536h256v-538h380q239 0 378 -145zM1429 1536h258v-1536h-258v1536zM1037 499q0 103 -56 169q-35 43 -86.5 66t-103.5 23h-386v-514h386q122 0 184 71
q62 70 62 185z" />
    <glyph glyph-name="uni042C" unicode="&#x42c;" horiz-adv-x="1363" 
d="M1163 853q63 -65 99.5 -157.5t36.5 -196.5q-2 -117 -38.5 -205t-117.5 -164q-67 -65 -151 -97.5t-207 -32.5h-636v1536h256v-538h380q239 0 378 -145zM1037 499q0 103 -56 169q-35 43 -86.5 66t-103.5 23h-386v-514h386q122 0 184 71q62 70 62 185z" />
    <glyph glyph-name="uni042D" unicode="&#x42d;" horiz-adv-x="1606" 
d="M1348 1321q173 -207 173 -553q0 -324 -175 -550q-94 -121 -235 -185.5t-309 -64.5q-292 0 -469 154q-148 126 -209 332l251 62q27 -81 73 -143q123 -165 337 -162q110 2 203.5 42.5t150.5 119.5q80 100 103 267h-544v256h546q-22 163 -105 267q-58 80 -152 122t-202 40
q-216 -3 -337 -162q-52 -71 -77 -158l-258 36q56 230 222 371q177 156 467 156q167 0 307 -62t239 -185z" />
    <glyph glyph-name="uni042E" unicode="&#x42e;" horiz-adv-x="2237" 
d="M1978 1321q172 -215 175 -553q-3 -337 -175 -550q-100 -123 -247 -186.5t-312 -63.5q-169 0 -316.5 64t-242.5 186q-140 170 -171 422h-284v-640h-256v1536h256v-640h284q31 255 171 425q97 122 243.5 184.5t315.5 62.5q168 0 314 -63t245 -184zM1773 373
q109 147 109 395q0 251 -109 395q-59 80 -152.5 121t-201.5 41q-108 2 -203 -40t-154 -122q-112 -144 -108 -395q0 -253 108 -395q59 -80 153.5 -121t203.5 -41q107 -2 201 40t153 122z" />
    <glyph glyph-name="uni042F" unicode="&#x42f;" horiz-adv-x="1365" 
d="M1216 1536v-1536h-256v538h-365l-260 -538h-292l288 591q-65 29 -128 92q-64 65 -100 158t-35 196q2 118 38 206t116 163q67 65 152 97.5t208 32.5h634zM574 779h386v514h-386q-122 0 -184 -71q-61 -72 -61 -185q0 -100 55 -169q35 -43 87 -66t103 -23z" />
    <glyph glyph-name="uni0430" unicode="&#x430;" horiz-adv-x="1228" 
d="M1101 0h-224v151q-83 -102 -177.5 -142.5t-234.5 -40.5q-173 0 -276.5 96.5t-103.5 257.5q0 234 203 329q41 19 93 34.5t118.5 27.5t112 19.5t125.5 18.5t108 15q-11 83 -73 129t-168 46q-179 0 -299 -120l-151 171q189 192 471 192q90 0 178 -34t151 -88
q147 -124 147 -369v-693zM806 333q19 32 28.5 74.5t11 72t1.5 83.5q-186 -32 -318 -62q-84 -17 -137 -57t-53 -103q0 -69 53 -113.5t133 -44.5q91 0 165 40.5t116 109.5z" />
    <glyph glyph-name="uni0431" unicode="&#x431;" horiz-adv-x="1275" 
d="M668 1079q117 0 220 -44.5t172 -129.5q64 -77 97 -179t33 -208q3 -112 -36 -214t-113 -182q-80 -80 -186.5 -118.5t-225.5 -35.5q-115 0 -221 46t-180 131q-128 148 -138 390q-13 233 17 448q45 297 243 436q169 117 491 117q123 0 256 -23v-237q-138 18 -256 21
q-120 2 -208 -11t-144 -55q-64 -44 -92.5 -114.5t-40.5 -167.5q62 61 144 94.5t168 35.5zM640 851q-138 0 -211 -89q-68 -77 -68 -224q0 -152 68 -229q71 -87 211 -87t211 87q68 77 68 226q0 150 -68 227q-73 89 -211 89z" />
    <glyph glyph-name="uni0432" unicode="&#x432;" horiz-adv-x="1252" 
d="M149 1148l574 4q163 0 260 -83q124 -100 124 -256q0 -89 -42 -162q-18 -28 -37 -47q58 -43 92 -103q47 -74 47 -162q0 -75 -34.5 -145t-93.5 -117q-41 -34 -100 -55.5t-109 -21.5h-681v1148zM410 949v-275h313q67 0 100 51q27 40 24 88q-4 53 -24 85q-37 51 -100 51h-313
zM410 474v-273h369q65 0 102 49q26 38 26 89q0 48 -26 86q-20 28 -44.5 38.5t-62.5 10.5h-364z" />
    <glyph glyph-name="uni0433" unicode="&#x433;" horiz-adv-x="1024" 
d="M971 1152v-241h-566v-911h-256v1152h822z" />
    <glyph glyph-name="uni0434" unicode="&#x434;" horiz-adv-x="1369" 
d="M1165 1152v-909h98v-431h-243v188h-713v-188h-243v431q184 0 228 391l60 518h813zM922 243v681h-359l-36 -318q-28 -262 -111 -363h506z" />
    <glyph glyph-name="uni0435" unicode="&#x435;" horiz-adv-x="1284" 
d="M363 503q11 -121 64 -187q81 -107 232 -107q108 0 177 53q64 49 92 111l254 -76q-66 -153 -203 -242q-138 -87 -307 -87q-132 0 -252.5 50t-195.5 142q-139 170 -139 403q0 264 139 431q77 93 190.5 141.5t244.5 48.5q259 0 410 -181q151 -179 126 -500h-832zM659 960
q-145 0 -230 -105q-48 -64 -62 -149h570q-6 92 -54 158q-37 47 -97 71.5t-127 24.5z" />
    <glyph glyph-name="uni0436" unicode="&#x436;" horiz-adv-x="1678" 
d="M21 0l372 570l-133 251q-21 37 -41 55t-46 29q-45 16 -107 6v241q39 22 107 20.5t130 -29.5q52 -25 87.5 -69.5t72.5 -117.5l145 -280h117v476h229v-476h119l147 280q68 135 156 179q53 28 127 31t116 -14v-241q-60 13 -109 -4q-50 -13 -91 -86l-133 -251l372 -570h-288
l-293 474h-123v-474h-229v474h-123l-293 -474h-288z" />
    <glyph glyph-name="uni0437" unicode="&#x437;" horiz-adv-x="1109" 
d="M100 1001q91 77 199 125q125 58 249 58q186 0 301 -77q139 -95 139 -262q0 -138 -92 -239q60 -40 94 -111t34 -145q0 -104 -41.5 -178t-127.5 -127q-112 -77 -307 -77q-172 0 -305 77q-57 33 -112.5 85.5t-83.5 97.5l203 135q60 -68 108 -101q89 -53 209 -53q71 0 122 30
q73 45 73 128q0 45 -30.5 77t-82.5 42q-42 7 -156 7h-81v202h81q89 0 132 13q100 17 100 107q0 73 -59 107q-43 23 -109 23q-97 0 -196 -47q-60 -28 -116 -75z" />
    <glyph glyph-name="uni0438" unicode="&#x438;" horiz-adv-x="1299" 
d="M1150 1152v-1152h-245v745l-549 -745h-207v1152h246v-723l550 723h205z" />
    <glyph glyph-name="uni0439" unicode="&#x439;" horiz-adv-x="1299" 
d="M804 1604h201q0 -134 -94.5 -229t-227.5 -95q-134 0 -229.5 95t-95.5 229h201q0 -51 36.5 -87t87.5 -36t86 36t35 87zM1150 1152v-1152h-245v745l-549 -745h-207v1152h246v-723l550 723h205z" />
    <glyph glyph-name="uni043A" unicode="&#x43a;" horiz-adv-x="1173" 
d="M412 452v-452h-263l2 1152h261v-457h132l303 457h288l-380 -574l418 -578h-294l-331 452h-136z" />
    <glyph glyph-name="uni043B" unicode="&#x43b;" horiz-adv-x="1309" 
d="M314 1152h847v-1152h-244v911h-399l-61 -525q-25 -218 -122.5 -316t-291.5 -70v228q37 0 64.5 5.5t46 20t30 29t19.5 43.5t12 51.5t9 64.5z" />
    <glyph glyph-name="uni043C" unicode="&#x43c;" horiz-adv-x="1510" 
d="M1175 1152h186v-1152h-245v670l-295 -465h-132l-294 465v-670h-246v1152h186l420 -629z" />
    <glyph glyph-name="uni043D" unicode="&#x43d;" horiz-adv-x="1329" 
d="M924 1152h256v-1152h-256v457h-519v-457h-256v1152h256v-454h519v454z" />
    <glyph glyph-name="uni043E" unicode="&#x43e;" horiz-adv-x="1318" 
d="M659 -32q-130 0 -243.5 49.5t-191.5 142.5q-139 169 -139 416q0 251 139 418q75 91 190.5 140.5t244.5 49.5t243.5 -48.5t191.5 -141.5q139 -170 139 -418q0 -243 -139 -416q-79 -94 -191.5 -143t-243.5 -49zM962 576q0 167 -72 262q-37 51 -98.5 78t-132.5 27
q-153 0 -230 -105q-71 -90 -71 -262q0 -170 71 -260q38 -52 98 -79.5t132 -27.5q71 0 132 28t99 79q72 95 72 260z" />
    <glyph glyph-name="uni043F" unicode="&#x43f;" horiz-adv-x="1299" 
d="M1150 1152v-1152h-256v911h-489v-911h-256v1152h1001z" />
    <glyph glyph-name="uni0440" unicode="&#x440;" horiz-adv-x="1341" 
d="M1124 1001q133 -170 133 -425q0 -256 -133 -425q-71 -87 -177 -135t-222 -48q-187 0 -318 96v-576h-258v1664h229v-87q146 119 339 119q121 0 228 -46.5t179 -136.5zM919 309q64 90 64 267q0 172 -68 267q-74 111 -237 111q-141 0 -217 -92q-83 -100 -83 -286
q0 -190 83 -284q81 -94 226 -94q158 0 232 111z" />
    <glyph glyph-name="uni0441" unicode="&#x441;" horiz-adv-x="1228" 
d="M1163 817l-256 -70q-30 92 -96 143q-69 53 -160 53q-145 0 -222 -105q-71 -90 -71 -262q0 -170 71 -260q78 -107 222 -107q101 0 164 51q57 45 85 130l263 -57q-24 -81 -72.5 -152t-113.5 -119q-74 -52 -147.5 -73t-178.5 -21q-281 0 -427 190q-139 176 -139 418
q0 251 139 418q81 97 185 143.5t244 46.5q94 0 161 -16.5t137 -60.5q169 -105 212 -290z" />
    <glyph glyph-name="uni0442" unicode="&#x442;" horiz-adv-x="1134" 
d="M1082 1152v-228h-387v-924h-256v924h-386v228h1029z" />
    <glyph glyph-name="uni0443" unicode="&#x443;" horiz-adv-x="1209" 
d="M932 1152h256l-499 -1325q-40 -107 -79 -176t-94 -110q-48 -35 -106.5 -44t-174.5 -9v245q106 -3 149 28q32 23 57 66t60 139l-458 1186h258l318 -858z" />
    <glyph glyph-name="uni0444" unicode="&#x444;" horiz-adv-x="1542" 
d="M1237 1047q211 -168 220 -471q-6 -305 -220 -474q-132 -105 -352 -130v-452h-228v452q-213 22 -352 130q-105 84 -162.5 207t-57.5 267q0 140 56.5 262.5t163.5 208.5q130 106 352 131v341h228v-341q221 -26 352 -131zM478 286q60 -48 179 -71v719q-113 -19 -179 -70
q-130 -98 -130 -288q0 -187 130 -290zM1065 286q129 104 132 290q-2 89 -34.5 164.5t-97.5 123.5q-63 51 -180 70v-719q111 18 180 71z" />
    <glyph glyph-name="uni0445" unicode="&#x445;" horiz-adv-x="1198" 
d="M1167 1152l-412 -570l423 -582h-312l-264 382l-269 -382h-312l423 582l-414 570h311l261 -369l253 369h312z" />
    <glyph glyph-name="uni0446" unicode="&#x446;" horiz-adv-x="1457" 
d="M1150 228h222v-416h-256v188h-967v1152h256v-911h489v911h256v-924z" />
    <glyph glyph-name="uni0447" unicode="&#x447;" 
d="M926 1152h260v-1152h-260v343q-107 -83 -267 -83q-96 0 -187.5 30t-157.5 88q-100 87 -132.5 201t-32.5 289v284h261v-284q0 -103 19.5 -176.5t71.5 -119.5q32 -31 86 -47.5t106 -14.5q146 0 233 77v565z" />
    <glyph glyph-name="uni0448" unicode="&#x448;" horiz-adv-x="1653" 
d="M149 0v1152h246v-924h322v924h220v-924h320v924h247v-1152h-1355z" />
    <glyph glyph-name="uni0449" unicode="&#x449;" horiz-adv-x="1708" 
d="M1504 228h119v-416h-256v188h-1218v1152h246v-924h322v924h220v-924h320v924h247v-924z" />
    <glyph glyph-name="uni044A" unicode="&#x44a;" horiz-adv-x="1164" 
d="M969 663q53 -51 81.5 -125.5t28.5 -155.5q0 -78 -28.5 -152t-81.5 -125q-108 -105 -278 -105h-542v951h-166v201h427v-384h281q170 0 278 -105zM779 286q40 40 40 96q0 53 -38 96q-44 47 -98 47h-273v-284h273q57 3 96 45z" />
    <glyph glyph-name="uni044B" unicode="&#x44b;" horiz-adv-x="1578" 
d="M149 1152h261v-384h253q78 0 150.5 -26t125.5 -79q55 -51 84 -125.5t29 -155.5q0 -78 -29 -152t-84 -125q-53 -53 -125.5 -79t-150.5 -26h-514v1152zM1173 1152h256v-1152h-256v1152zM410 525v-284h243q59 3 98 45q38 38 38 96q0 55 -36 96q-44 47 -100 47h-243z" />
    <glyph glyph-name="uni044C" unicode="&#x44c;" horiz-adv-x="1164" 
d="M149 1152h261v-384h281q170 0 278 -105q53 -51 81.5 -125.5t28.5 -155.5q0 -78 -28.5 -152t-81.5 -125q-108 -105 -278 -105h-542v1152zM410 525v-284h273q57 3 96 45q40 40 40 96q0 53 -38 96q-44 47 -98 47h-273z" />
    <glyph glyph-name="uni044D" unicode="&#x44d;" horiz-adv-x="1230" 
d="M1007 994q136 -163 139 -418q-3 -246 -139 -418q-149 -190 -427 -190q-106 0 -179.5 21t-146.5 73q-65 48 -113.5 119t-72.5 152l261 57q33 -88 85 -130q63 -51 166 -51q144 0 222 107q46 61 64 160h-386v202h384q-15 97 -62 160q-76 105 -222 105q-91 0 -160 -53
q-66 -51 -96 -143l-256 70q43 188 211 290q70 44 137 60.5t160 16.5q272 0 431 -190z" />
    <glyph glyph-name="uni044E" unicode="&#x44e;" horiz-adv-x="1817" 
d="M1591 994q141 -169 141 -418q0 -240 -141 -416q-79 -95 -191 -143.5t-244 -48.5q-207 0 -350.5 127.5t-178.5 352.5h-222v-448h-256v1152h256v-448h222q35 226 179 353t350 127q131 0 244.5 -48.5t190.5 -141.5zM1389 316q70 92 70 260q0 170 -70 262q-37 51 -99 78
t-134 27q-150 0 -225.5 -98.5t-75.5 -268.5q0 -171 77.5 -269t223.5 -98q72 0 133.5 27.5t99.5 79.5z" />
    <glyph glyph-name="uni044F" unicode="&#x44f;" horiz-adv-x="1228" 
d="M474 1152h605v-1152h-260v384h-256l-185 -384h-293l207 422q-54 27 -94 67q-55 51 -84 125.5t-29 155.5q0 78 29 152t84 125q53 53 125.5 79t150.5 26zM819 627v284h-335q-59 -3 -98 -45q-38 -38 -38 -96q0 -55 36 -96q44 -47 100 -47h335z" />
    <glyph glyph-name="uni0450" unicode="&#x450;" horiz-adv-x="1284" 
d="M1045 1478l-66 -187l-572 204l67 188zM363 503q11 -121 64 -187q81 -107 232 -107q108 0 177 53q64 49 92 111l254 -76q-66 -153 -203 -242q-138 -87 -307 -87q-132 0 -252.5 50t-195.5 142q-139 170 -139 403q0 264 139 431q77 93 190.5 141.5t244.5 48.5
q259 0 410 -181q151 -179 126 -500h-832zM659 960q-145 0 -230 -105q-48 -64 -62 -149h570q-6 92 -54 158q-37 47 -97 71.5t-127 24.5z" />
    <glyph glyph-name="uni0451" unicode="&#x451;" horiz-adv-x="1284" 
d="M555 1564v-235h-235v235h235zM996 1564v-235h-234v235h234zM363 503q11 -121 64 -187q81 -107 232 -107q108 0 177 53q64 49 92 111l254 -76q-66 -153 -203 -242q-138 -87 -307 -87q-132 0 -252.5 50t-195.5 142q-139 170 -139 403q0 264 139 431q77 93 190.5 141.5
t244.5 48.5q259 0 410 -181q151 -179 126 -500h-832zM659 960q-145 0 -230 -105q-48 -64 -62 -149h570q-6 92 -54 158q-37 47 -97 71.5t-127 24.5z" />
    <glyph glyph-name="uni0452" unicode="&#x452;" 
d="M1067 1067q48 -44 78 -102t42.5 -132.5t16 -131.5t3.5 -144v-747q0 -120 -54.5 -195t-151.5 -95q-107 -21 -246 11v183q81 -6 113 4q79 24 79 145v683q0 245 -92 331q-72 69 -192 66q-91 -3 -151 -53q-68 -52 -92 -160q-13 -65 -13 -229v-501h-258v1244h-117v200h117v92
h229v-92h224v-200h-224v-220q10 15 23 28q55 62 133.5 94.5t160.5 35.5q235 16 372 -115z" />
    <glyph glyph-name="uni0453" unicode="&#x453;" horiz-adv-x="1024" 
d="M277 1291l570 204l-64 188l-574 -205zM971 1152v-241h-566v-911h-256v1152h822z" />
    <glyph glyph-name="uni0454" unicode="&#x454;" horiz-adv-x="1230" 
d="M817 260q52 42 85 130l261 -57q-24 -81 -72.5 -152t-113.5 -119q-73 -52 -146 -73t-180 -21q-278 0 -427 190q-137 173 -137 418q0 254 137 418q159 190 431 190q92 0 159 -16.5t137 -60.5q169 -103 212 -290l-256 -70q-30 95 -96 143q-69 53 -160 53q-145 0 -222 -105
q-47 -63 -62 -160h384v-202h-386q18 -99 64 -160q78 -107 222 -107q103 0 166 51z" />
    <glyph glyph-name="uni0455" unicode="&#x455;" horiz-adv-x="1160" 
d="M1067 849l-241 -60q-66 166 -261 173q-80 3 -143.5 -28.5t-63.5 -82.5q0 -42 34 -62.5t107 -39.5l220 -62q166 -46 261 -136.5t95 -224.5q0 -85 -43 -160.5t-117 -120.5q-119 -77 -305 -77q-267 0 -401 149q-89 96 -124 235l231 62q27 -91 74 -141q81 -81 224 -81
q45 0 97 11t78 32q54 35 54 89q0 27 -13 47.5t-40 34.5t-51.5 22.5t-64.5 19.5q-10 3 -15 4q-256 73 -279 81q-138 58 -192 122q-31 35 -46.5 88.5t-15.5 99.5q0 101 56.5 179.5t146.5 118.5q98 43 249 43q133 0 245 -58q83 -39 148 -113.5t96 -163.5z" />
    <glyph glyph-name="uni0456" unicode="&#x456;" horiz-adv-x="597" 
d="M171 1559h256v-236h-256v236zM171 1152h256v-1152h-256v1152z" />
    <glyph glyph-name="uni0457" unicode="&#x457;" horiz-adv-x="597" 
d="M-38 1564h234v-235h-234v235zM403 1564h235v-235h-235v235zM171 1152h256v-1152h-256v1152z" />
    <glyph glyph-name="uni0458" unicode="&#x458;" horiz-adv-x="614" 
d="M205 1532h258v-235h-258v235zM0 -303v-241q250 -17 369 130q52 64 73 140.5t21 188.5v1237h-258v-1207q0 -82 -10.5 -127t-47.5 -80q-28 -27 -73 -36t-74 -5z" />
    <glyph glyph-name="uni0459" unicode="&#x459;" horiz-adv-x="1915" 
d="M1717 663q55 -51 84 -125.5t29 -155.5q0 -78 -29 -152t-84 -125q-108 -105 -277 -105h-540l-2 911h-380l-61 -525q-25 -218 -122.5 -316t-291.5 -70v228q37 0 64.5 5.5t46 20t30 29t19.5 43.5t12 51.5t9 64.5l90 710h847v-384h279q169 0 277 -105zM1527 286q41 41 41 96
q0 53 -38 96q-39 47 -99 47h-270v-284h270q62 3 96 45z" />
    <glyph glyph-name="uni045A" unicode="&#x45a;" horiz-adv-x="1937" 
d="M1741 663q54 -51 82.5 -125.5t28.5 -155.5q0 -77 -29 -151.5t-82 -125.5q-108 -105 -278 -105h-541v525h-517v-525h-256v1152h256v-384h517v384h260v-384h281q170 0 278 -105zM1551 286q40 40 40 96q0 53 -38 96q-44 47 -98 47h-273v-284h273q57 3 96 45z" />
    <glyph glyph-name="uni045B" unicode="&#x45b;" 
d="M1067 1067q48 -44 78 -102t42.5 -132.5t16 -131.5t3.5 -144v-557h-260v546q0 245 -92 331q-72 69 -192 66q-91 -3 -151 -53q-68 -52 -92 -160q-13 -65 -13 -229v-501h-258v1244h-117v200h117v92h229v-92h224v-200h-224v-220q10 15 23 28q55 62 133.5 94.5t160.5 35.5
q235 16 372 -115z" />
    <glyph glyph-name="uni045C" unicode="&#x45c;" horiz-adv-x="1173" 
d="M320 1291l572 204l-66 188l-572 -205zM412 452v-452h-263l2 1152h261v-457h132l303 457h288l-380 -574l418 -578h-294l-331 452h-136z" />
    <glyph glyph-name="uni045D" unicode="&#x45d;" horiz-adv-x="1299" 
d="M958 1291l66 187l-572 205l-66 -188zM1150 1152v-1152h-245v745l-549 -745h-207v1152h246v-723l550 723h205z" />
    <glyph glyph-name="uni045E" unicode="&#x45e;" horiz-adv-x="1209" 
d="M742 1604h201q0 -134 -94 -229t-228 -95t-229 95t-95 229h200q0 -51 36.5 -87t87.5 -36t86 36t35 87zM932 1152h256l-499 -1325q-40 -107 -79 -176t-94 -110q-48 -35 -106.5 -44t-174.5 -9v245q106 -3 149 28q32 23 57 66t60 139l-458 1186h258l318 -858z" />
    <glyph glyph-name="uni045F" unicode="&#x45f;" horiz-adv-x="1299" 
d="M894 1152h256v-1152h-356v-256h-256v256h-389v1152h256v-911h489v911z" />
    <glyph glyph-name="uni0490" unicode="&#x490;" horiz-adv-x="1184" 
d="M1163 1724v-416h-22v-13h-736v-1295h-256v1536h758v188h256z" />
    <glyph glyph-name="uni0491" unicode="&#x491;" horiz-adv-x="1024" 
d="M715 1340h256v-429h-566v-911h-256v1152h566v188z" />
    <glyph glyph-name="uni04AE" unicode="&#x4ae;" horiz-adv-x="1305" 
d="M1005 1536h301l-523 -907v-629h-260v629l-523 907h301l352 -612z" />
    <glyph glyph-name="uni04AF" unicode="&#x4af;" horiz-adv-x="1181" 
d="M1139 1152l-420 -1152h-19v-384h-254v405h8l-411 1131h258l290 -834l290 834h258z" />
    <glyph glyph-name="uni04BA" unicode="&#x4ba;" horiz-adv-x="1442" 
d="M407 0h-258v1536h258v-608q132 100 331 100q135 0 251 -47t193 -143q70 -89 90.5 -188t20.5 -251v-399h-260v343q0 111 -15 189t-60 138q-84 109 -258 109q-192 0 -293 -90v-689z" />
    <glyph glyph-name="uni04BB" unicode="&#x4bb;" 
d="M1024 774q99 -87 130.5 -200.5t31.5 -289.5v-284h-260v284q0 103 -20 176.5t-72 119.5q-32 31 -85.5 47.5t-106.5 16.5q-79 -1 -132.5 -20t-99.5 -59v-565h-259v1152h259v-343q107 83 266 83q96 0 188.5 -30t159.5 -88z" />
    <glyph glyph-name="uni04E8" unicode="&#x4e8;" horiz-adv-x="1640" 
d="M1380 1321q172 -215 175 -553q-3 -337 -175 -550q-100 -123 -247 -186.5t-312 -63.5q-169 0 -316.5 64t-242.5 186q-177 216 -177 550q0 337 177 553q97 122 243.5 184.5t315.5 62.5q168 0 314 -63t245 -184zM821 1325q-108 2 -202 -40t-154 -122q-80 -104 -102 -267h913
q-22 165 -101 267q-59 80 -152.5 121t-201.5 41zM821 211q107 -2 201 40t153 122q81 113 101 267h-911q22 -163 100 -267q59 -80 153 -121t203 -41z" />
    <glyph glyph-name="uni04E9" unicode="&#x4e9;" horiz-adv-x="1318" 
d="M1094 994q139 -170 139 -418q0 -243 -139 -416q-79 -94 -191.5 -143t-243.5 -49q-130 0 -243.5 49.5t-191.5 142.5q-139 169 -139 416q0 251 139 418q75 91 190.5 140.5t244.5 49.5t243.5 -48.5t191.5 -141.5zM659 943q-153 0 -230 -105q-49 -62 -64 -160h589
q-18 99 -64 160q-37 51 -98.5 78t-132.5 27zM659 209q71 0 132 28t99 79q50 66 64 160h-589q15 -98 64 -160q38 -52 98 -79.5t132 -27.5z" />
    <glyph glyph-name="Wgrave" unicode="&#x1e80;" horiz-adv-x="2082" 
d="M1325 1675l66 187l-572 205l-66 -188zM1788 1536h269l-448 -1536h-254l-316 1092l-312 -1092h-253l-448 1536h268l305 -1109l306 1107l268 2l308 -1109z" />
    <glyph glyph-name="wgrave" unicode="&#x1e81;" horiz-adv-x="1710" 
d="M1101 1291l66 187l-572 205l-66 -188zM1417 1152h251l-352 -1152h-215l-246 794l-260 -794h-200l-352 1154l254 -2l226 -738l226 738h215l229 -738z" />
    <glyph glyph-name="Wacute" unicode="&#x1e82;" horiz-adv-x="2082" 
d="M749 1675l569 204l-64 188l-573 -205zM1788 1536h269l-448 -1536h-254l-316 1092l-312 -1092h-253l-448 1536h268l305 -1109l306 1107l268 2l308 -1109z" />
    <glyph glyph-name="wacute" unicode="&#x1e83;" horiz-adv-x="1710" 
d="M563 1291l572 204l-66 188l-572 -205zM1417 1152h251l-352 -1152h-215l-246 794l-260 -794h-200l-352 1154l254 -2l226 -738l226 738h215l229 -738z" />
    <glyph glyph-name="Wdieresis" unicode="&#x1e84;" horiz-adv-x="2082" 
d="M704 2027h235v-235h-235v235zM1146 2027h234v-235h-234v235zM1788 1536h269l-448 -1536h-254l-316 1092l-312 -1092h-253l-448 1536h268l305 -1109l306 1107l268 2l308 -1109z" />
    <glyph glyph-name="wdieresis" unicode="&#x1e85;" horiz-adv-x="1710" 
d="M518 1564h235v-235h-235v235zM960 1564h235v-235h-235v235zM1417 1152h251l-352 -1152h-215l-246 794l-260 -794h-200l-352 1154l254 -2l226 -738l226 738h215l229 -738z" />
    <glyph glyph-name="Ygrave" unicode="&#x1ef2;" horiz-adv-x="1305" 
d="M945 1675l66 187l-572 205l-66 -188zM1005 1536h301l-523 -907v-629h-260v629l-523 907h301l352 -612z" />
    <glyph glyph-name="ygrave" unicode="&#x1ef3;" horiz-adv-x="1209" 
d="M885 1291l66 187l-571 205l-66 -188zM932 1152h256l-499 -1325q-40 -107 -79 -176t-94 -110q-48 -35 -106.5 -44t-174.5 -9v245q106 -3 149 28q32 23 57 66t60 139l-458 1186h258l318 -858z" />
    <glyph glyph-name="uni2011" unicode="&#x2011;" horiz-adv-x="896" 
d="M128 774h640v-202h-640v202z" />
    <glyph glyph-name="endash" unicode="&#x2013;" horiz-adv-x="1152" 
d="M128 774h896v-202h-896v202z" />
    <glyph glyph-name="emdash" unicode="&#x2014;" horiz-adv-x="1664" 
d="M128 774h1408v-202h-1408v202z" />
    <glyph glyph-name="quoteleft" unicode="&#x2018;" horiz-adv-x="605" 
d="M162 1252v284h263v-273h-137q-9 -77 21 -121.5t101 -40.5l15 -111q-130 -21 -196.5 49t-66.5 213z" />
    <glyph glyph-name="quoteright" unicode="&#x2019;" horiz-adv-x="605" 
d="M444 1252q0 -143 -66.5 -213t-196.5 -49l15 111q71 -4 101.5 40.5t20.5 121.5h-137v273h263v-284z" />
    <glyph glyph-name="quotesinglbase" unicode="&#x201a;" horiz-adv-x="646" 
d="M390 -11q0 -143 -66 -212.5t-196 -47.5l15 109q71 -4 101.5 41t20.5 121h-137v273h262v-284z" />
    <glyph glyph-name="quotedblleft" unicode="&#x201c;" horiz-adv-x="1088" 
d="M297 1254v286h264v-275h-136q-10 -76 20 -121t99 -39l17 -111q-129 -22 -196.5 48.5t-67.5 211.5zM655 1254v286h262v-275h-136q-10 -76 20.5 -121t100.5 -39l15 -111q-129 -22 -195.5 48t-66.5 212z" />
    <glyph glyph-name="quotedblright" unicode="&#x201d;" horiz-adv-x="1088" 
d="M433 1254q0 -142 -66.5 -212t-195.5 -48l15 111q70 -6 100.5 39t20.5 121h-136v275h262v-286zM791 1254q0 -142 -66.5 -212t-195.5 -48l15 111q70 -6 99.5 39t19.5 121h-134v275h262v-286z" />
    <glyph glyph-name="quotedblbase" unicode="&#x201e;" horiz-adv-x="1194" 
d="M433 258q0 -143 -66 -212.5t-196 -47.5l15 109q71 -4 101 41t20 121h-136v273h262v-284zM791 258q0 -143 -66 -212.5t-196 -47.5l15 109q70 -4 99.5 41t19.5 121h-134v273h262v-284z" />
    <glyph glyph-name="bullet" unicode="&#x2022;" horiz-adv-x="1499" 
d="M757 369q-130 0 -219.5 87.5t-89.5 215.5q0 129 89.5 216t219.5 87q121 0 208 -87.5t87 -215.5q0 -127 -87 -215t-208 -88z" />
    <glyph glyph-name="ellipsis" unicode="&#x2026;" horiz-adv-x="1514" 
d="M171 262h262v-262h-262v262zM625 262h265v-262h-265v262zM1082 262h262v-262h-262v262z" />
    <glyph glyph-name="guilsinglleft" unicode="&#x2039;" horiz-adv-x="1358" 
d="M811 160l-512 512l512 512l121 -124l-388 -388l388 -388z" />
    <glyph glyph-name="guilsinglright" unicode="&#x203a;" horiz-adv-x="1361" 
d="M548 160l-121 124l388 388l-388 388l121 124l512 -512z" />
    <glyph glyph-name="fraction" unicode="&#x2044;" horiz-adv-x="1536" 
d="M171 0l-171 171l1365 1365l171 -173z" />
    <glyph glyph-name="uni2060" unicode="&#x2060;" horiz-adv-x="0" 
 />
    <glyph glyph-name="Euro" unicode="&#x20ac;" horiz-adv-x="1459" 
d="M992 211q152 -3 267 79l134 -211q-173 -111 -401 -111q-169 0 -316.5 65.5t-242.5 184.5q-96 121 -139 271h-209v202h173q-4 52 -4 77q0 23 4 75h-173v202h207q44 158 141 276q97 122 243.5 184.5t315.5 62.5q226 0 401 -109l-136 -213q-115 81 -265 81
q-109 0 -202.5 -42t-151.5 -122q-39 -51 -66 -118h522v-202h-563q-4 -52 -4 -75q0 -25 4 -77h563v-202h-520q25 -69 64 -116q58 -80 152 -122t202 -40z" />
    <glyph glyph-name="uni20B4" unicode="&#x20b4;" horiz-adv-x="1429" 
d="M1193 1024h108v-203h-1171l-2 203h774l5 6q27 41 27 99q0 80 -51 128q-60 68 -162 68q-101 0 -175 -96q-30 -42 -40 -100h-271q13 140 98 249q67 91 169.5 140.5t220.5 49.5q206 0 344 -124q63 -58 100.5 -144.5t37.5 -173.5q0 -57 -12 -102zM1301 715v-201h-783
q-42 -42 -42 -107q0 -93 70 -142q64 -52 175 -52q122 0 203 116q20 25 36 78h265q-13 -116 -82 -217q-67 -106 -182.5 -164t-252.5 -58q-76 0 -156 20t-136 53q-98 55 -154.5 153.5t-56.5 204.5q0 66 15 115h-92v201h1173z" />
    <glyph glyph-name="uni20BD" unicode="&#x20bd;" horiz-adv-x="1459" 
d="M1250 1393q64 -64 104 -160.5t41 -195.5q0 -195 -121 -337q-119 -141 -384 -141h-335v-147h505v-203h-505v-209h-256v209h-150v203h150v147h-150v220h150v757h591q100 0 196 -37.5t164 -105.5zM1084 866q49 63 49 171q0 107 -62 175q-33 37 -84 59t-100 22h-332v-514h324
q139 0 205 87z" />
    <glyph glyph-name="uni2116" unicode="&#x2116;" horiz-adv-x="2414" 
d="M1924 800q-159 0 -271.5 112.5t-112.5 271.5q0 156 115 270t269 114q159 0 271.5 -112.5t112.5 -271.5t-112.5 -271.5t-271.5 -112.5zM410 1536l712 -1082v1082h260v-1536h-260l-712 1084v-1084h-261v1536h261zM1924 1020q66 0 115.5 48.5t49.5 115.5t-49.5 115.5
t-115.5 48.5q-68 0 -116 -48t-48 -116t48 -116t116 -48zM1604 706h640v-200h-640v200z" />
    <glyph glyph-name="trademark" unicode="&#x2122;" horiz-adv-x="1962" 
d="M128 1372v164h715v-164h-267v-636h-181v636h-267zM1690 1536h145v-800h-173v461l-199 -318h-100l-196 318v-461h-175v800h147l275 -431z" />
    <glyph glyph-name="arrowleft" unicode="&#x2190;" horiz-adv-x="2158" 
d="M1860 774v-202h-1216l288 -288l-121 -124l-512 512l512 512l121 -124l-288 -288z" />
    <glyph glyph-name="arrowup" unicode="&#x2191;" horiz-adv-x="1536" 
d="M1280 1047l-122 -121l-290 290l2 -1216h-202v1216l-288 -290l-124 121l512 515z" />
    <glyph glyph-name="arrowright" unicode="&#x2192;" horiz-adv-x="2158" 
d="M1348 1184l512 -512l-512 -512l-121 124l288 288h-1216v202l1216 -2l-288 288z" />
    <glyph glyph-name="arrowdown" unicode="&#x2193;" horiz-adv-x="1536" 
d="M1158 610l122 -121l-512 -515l-512 515l124 121l288 -290v1216h202l-2 -1216z" />
    <glyph glyph-name="carriagereturn" unicode="&#x21b5;" horiz-adv-x="1747" 
d="M1419 1536h200v-966h-973l286 -286l-121 -124l-512 512l512 512l121 -124l-286 -286h773v762z" />
    <glyph glyph-name="minus" unicode="&#x2212;" horiz-adv-x="1152" 
d="M128 870h896v-202h-896v202z" />
    <glyph glyph-name="notequal" unicode="&#x2260;" horiz-adv-x="1600" 
d="M1344 868h-343l-148 -200h491v-203h-640l-177 -241l-164 117l91 124h-198v203h348l147 200h-495v203h644l177 241l162 -117l-91 -124h196v-203z" />
    <glyph glyph-name="lessequal" unicode="&#x2264;" horiz-adv-x="1600" 
d="M1344 356l-1088 335v158l1088 335v-203l-730 -211l730 -211v-203zM256 203v-203h1088v203h-1088z" />
    <glyph glyph-name="greaterequal" unicode="&#x2265;" horiz-adv-x="1600" 
d="M256 356v203l730 211l-730 211v203l1088 -335v-158zM1344 203h-1088v-203h1088v203z" />
    <glyph glyph-name="i.loclTRK" horiz-adv-x="597" 
d="M171 1559h256v-236h-256v236zM171 1152h256v-1152h-256v1152z" />
    <glyph glyph-name="uni0414.loclBGR" horiz-adv-x="1632" 
d="M1404 241h130v-429h-243v188h-969v-188h-241v429h130l408 1295h377zM476 241h663l-335 1045z" />
    <glyph glyph-name="uni0416.loclBGR" horiz-adv-x="2178" 
d="M21 0l521 800l-203 384q-39 73 -106 98q-52 20 -137 15l-21 239q49 23 127 21t148 -34q65 -30 111.5 -83.5t86.5 -131.5l214 -408h196v636h262v-636h199l211 408q40 78 86.5 131.5t111.5 83.5q70 32 149 34t126 -21l-19 -239q-87 5 -138 -15q-64 -24 -107 -98l-203 -384
l521 -800h-312l-437 698h-188v-698h-262v698h-188l-437 -698h-312z" />
    <glyph glyph-name="uni041A.loclBGR" horiz-adv-x="1403" 
d="M1404 0h-327l-514 653h-153v-653h-261v1536h261v-642h151l469 642h318l-550 -759z" />
    <glyph glyph-name="uni041B.loclBGR" horiz-adv-x="1367" 
d="M495 1536h378l484 -1536h-265l-411 1286l-406 -1286h-264z" />
    <glyph glyph-name="uni0432.loclBGR" horiz-adv-x="1307" 
d="M625 1568q175 0 301 -92q82 -60 129.5 -152.5t47.5 -188.5q0 -93 -43 -171q-30 -64 -87 -115q107 -59 166 -128q88 -106 88 -269q0 -207 -154 -345q-152 -139 -390 -139q-128 0 -239 39t-184 121q-56 64 -83.5 150t-27.5 174v700q0 94 47 183t128 146q124 87 301 87z
M625 1327q-80 0 -139 -43q-35 -24 -55.5 -64t-20.5 -77v-691q0 -126 68 -181q76 -64 211 -64q63 0 120.5 24.5t97.5 67.5q62 74 62 155q0 62 -35 112.5t-89 79.5q-100 50 -220 56v224q113 23 169 81q49 52 49 124q0 45 -22 85.5t-57 67.5q-63 43 -139 43z" />
    <glyph glyph-name="uni0433.loclBGR" horiz-adv-x="1162" 
d="M94 849q33 89 97.5 163.5t145.5 113.5q112 58 245 58q152 0 250 -43q91 -40 148 -118.5t57 -179.5q0 -45 -16.5 -99t-47.5 -89q-57 -66 -192 -122q-29 -10 -278 -81q-104 -29 -136 -48q-49 -30 -49 -80q0 -53 53 -89q28 -21 79.5 -32t95.5 -11q143 0 224 81q48 48 75 141
l230 -62q-31 -135 -121 -235q-134 -149 -401 -149q-189 0 -308 77q-74 45 -117 120.5t-43 160.5q0 134 96 224.5t263 136.5q51 15 127.5 36.5t89.5 25.5q74 19 108.5 39.5t34.5 62.5q0 51 -63.5 82.5t-143.5 28.5q-196 -7 -262 -173z" />
    <glyph glyph-name="uni0434.loclBGR" horiz-adv-x="1339" 
d="M964 1152h226v-1207q0 -145 -48.5 -243t-153.5 -161q-139 -83 -337 -83q-69 0 -142 20t-127 55q-57 28 -107 73t-81 100l237 115q18 -31 58 -64q30 -27 76 -41.5t88 -14.5q128 0 200 60q46 36 63.5 78.5t15.5 109.5v113q-128 -94 -318 -94q-115 0 -220.5 48t-175.5 135
q-133 166 -133 425q0 255 133 425q70 90 177 136.5t230 46.5q94 0 182.5 -32t156.5 -90v90zM655 198q145 0 226 94q83 94 83 284q0 186 -83 286q-79 92 -218 92q-162 0 -236 -111q-69 -97 -69 -267q0 -177 64 -267q38 -56 99.5 -83.5t133.5 -27.5z" />
    <glyph glyph-name="uni0436.loclBGR" horiz-adv-x="1678" 
d="M1286 570l372 -570h-288l-293 474h-123v-474h-229v474h-123l-293 -474h-288l372 570l-133 251q-21 37 -41 55t-46 29q-45 16 -107 6v241q39 22 107 20.5t130 -29.5q52 -25 87.5 -69.5t72.5 -117.5l145 -280h117v860h229v-860h119l147 280q68 135 156 179q53 28 127 31
t116 -14v-241q-60 13 -109 -4q-50 -13 -91 -86z" />
    <glyph glyph-name="uni0437.loclBGR" horiz-adv-x="1408" 
d="M143 951q84 84 220 156q155 77 345 77q249 0 401 -113q83 -59 128 -148.5t45 -190.5q0 -45 -15 -98.5t-38 -89.5q-25 -59 -83 -124q60 -48 111 -130q66 -93 66 -243q0 -104 -55 -199.5t-146 -154.5q-82 -56 -191.5 -82.5t-217.5 -26.5q-232 0 -376 81q-167 94 -252 248
l192 147q65 -108 173 -171q115 -64 258 -64q172 0 271 79q74 68 71 145q3 111 -71 171q-84 68 -226 68h-232v243h232q118 0 190 56q68 52 64 143q0 88 -73 149q-81 64 -230 64q-114 0 -239 -60q-93 -48 -162 -117z" />
    <glyph glyph-name="uni0438.loclBGR" 
d="M926 1152h260v-1152h-228v130q-8 -8 -26 -30q-53 -62 -131.5 -94.5t-162.5 -35.5q-231 -16 -371 115q-48 44 -78 102t-42 132.5t-15.5 131t-3.5 144.5v557h260v-546q0 -248 92 -331q69 -69 192 -66q84 3 151 53q70 56 90 160q13 55 13 227v2v501z" />
    <glyph glyph-name="uni0439.loclBGR" 
d="M657 1280q-134 0 -229 95t-95 229h200q0 -51 36.5 -87t87.5 -36t86.5 36t35.5 87h200q0 -134 -94 -229t-228 -95zM926 1152h260v-1152h-228v130q-8 -8 -26 -30q-53 -62 -131.5 -94.5t-162.5 -35.5q-231 -16 -371 115q-48 44 -78 102t-42 132.5t-15.5 131t-3.5 144.5v557
h260v-546q0 -248 92 -331q69 -69 192 -66q84 3 151 53q70 56 90 160q13 55 13 227v2v501z" />
    <glyph glyph-name="uni045D.loclBGR" horiz-adv-x="1326" 
d="M1011 1478l-68 -187l-570 204l64 188zM926 1152h260v-1152h-228v130q-8 -8 -26 -30q-53 -62 -131.5 -94.5t-162.5 -35.5q-231 -16 -371 115q-48 44 -78 102t-42 132.5t-15.5 131t-3.5 144.5v557h260v-546q0 -248 92 -331q69 -69 192 -66q84 3 151 53q70 56 90 160
q13 55 13 227v2v501z" />
    <glyph glyph-name="uni043A.loclBGR" horiz-adv-x="1173" 
d="M412 467v-467h-263l2 1536h261v-828h134l303 444h288l-382 -563l418 -589h-294l-333 467h-134z" />
    <glyph glyph-name="uni043B.loclBGR" horiz-adv-x="1181" 
d="M881 0l-290 836l-290 -836h-258l420 1152h256l420 -1152h-258z" />
    <glyph glyph-name="uni043D.loclBGR" horiz-adv-x="1329" 
d="M924 1152h256v-1152h-256v457h-519v-457h-256v1152h256v-454h519v454z" />
    <glyph glyph-name="uni043F.loclBGR" 
d="M1069 1067q39 -35 66 -83.5t40.5 -93.5t21 -110t9 -109t1.5 -114v-557h-260v546q0 248 -92 331q-69 69 -192 66q-88 -3 -151 -53q-70 -56 -90 -160q-12 -51 -12 -227v-2v-501h-259v1152h227v-130q3 3 25 30q53 62 132 94.5t163 35.5q233 16 371 -115z" />
    <glyph glyph-name="uni0442.loclBGR" horiz-adv-x="1926" 
d="M1681 1079q73 -72 95 -157t22 -218l-2 -704h-258v687q0 74 -14 120t-52 83q-57 61 -151 61q-48 0 -91.5 -19t-71.5 -53q-55 -62 -55 -171v-4v-704h-260v687q0 74 -13.5 120t-50.5 83q-57 61 -154 61q-99 0 -162 -72q-56 -63 -56 -171v-708h-258v1152h229v-122
q59 70 146 110t182 40q78 0 154.5 -25t127.5 -76q40 -40 62 -81q59 86 152.5 134t199.5 48q78 0 154 -25t125 -76z" />
    <glyph glyph-name="uni0447.loclBGR" 
d="M926 1152h260v-1152h-260v343q-107 -83 -267 -83q-96 0 -187.5 30t-157.5 88q-100 87 -132.5 201t-32.5 289v284h261v-284q0 -103 19.5 -176.5t71.5 -119.5q32 -31 86 -47.5t106 -14.5q146 0 233 77v565z" />
    <glyph glyph-name="uni0446.loclBGR" horiz-adv-x="1448" 
d="M1186 228h177v-416h-256v188h-149v130q-8 -8 -26 -30q-53 -62 -131.5 -94.5t-162.5 -35.5q-231 -16 -371 115q-48 44 -78 102t-42 132.5t-15.5 131t-3.5 144.5v557h260v-546q0 -248 92 -331q69 -69 192 -66q84 3 151 53q70 56 90 160q13 55 13 227v2v501h260v-924z" />
    <glyph glyph-name="uni0448.loclBGR" horiz-adv-x="1926" 
d="M1519 1152h258v-1152h-226v126q-59 -73 -146.5 -113.5t-184.5 -40.5q-78 0 -154 25t-125 76q-34 32 -64 81q-56 -85 -150.5 -133.5t-201.5 -48.5q-76 0 -152.5 25t-127.5 76q-73 72 -94 156t-21 219v704h258v-687q0 -74 14 -120t52 -83q57 -61 152 -61q104 0 162 72
q55 62 55 171v4v704h261v-687q0 -74 13.5 -120t50.5 -83q57 -61 153 -61q99 0 162 72q56 63 56 171v708z" />
    <glyph glyph-name="uni0449.loclBGR" horiz-adv-x="2039" 
d="M1777 228h177v-416h-256v188h-149v124q-59 -72 -146 -112t-183 -40q-78 0 -154 25t-127 76q-40 40 -62 81q-59 -86 -153 -134t-199 -48q-78 0 -154.5 25t-127.5 76q-73 72 -94 156t-21 219v704h260v-687q0 -74 13.5 -120t50.5 -83q57 -61 154 -61q99 0 162 72
q55 62 55 171v4v704h261l-2 -687q0 -74 14 -120t52 -83q57 -61 151 -61q101 0 164 72q54 64 54 171v708h260v-924z" />
    <glyph glyph-name="uni044C.loclBGR" horiz-adv-x="1164" 
d="M149 1152h261v-384h281q170 0 278 -105q53 -51 81.5 -125.5t28.5 -155.5q0 -78 -28.5 -152t-81.5 -125q-108 -105 -278 -105h-542v1152zM410 525v-284h273q57 3 96 45q40 40 40 96q0 53 -38 96q-44 47 -98 47h-273z" />
    <glyph glyph-name="uni044E.loclBGR" horiz-adv-x="1809" 
d="M1591 994q141 -169 141 -418q0 -240 -141 -416q-79 -95 -191 -143.5t-244 -48.5q-207 0 -350.5 127.5t-178.5 352.5h-222v-448h-256v1536h256v-832h222q35 226 179 353t350 127q131 0 244.5 -48.5t190.5 -141.5zM1389 316q70 92 70 260q0 170 -70 262q-37 51 -99 78
t-134 27q-150 0 -225.5 -98.5t-75.5 -268.5q0 -171 77.5 -269t223.5 -98q72 0 133.5 27.5t99.5 79.5z" />
    <glyph glyph-name="uni0431.loclSRB" horiz-adv-x="1275" 
d="M668 1079q117 0 220 -44.5t172 -129.5q64 -77 97 -179t33 -208q3 -112 -36 -214t-113 -182q-80 -80 -186.5 -118.5t-225.5 -35.5q-115 0 -221 46t-180 131q-128 148 -138 390q-13 233 17 448q45 297 243 436q169 117 491 117q123 0 256 -23v-237q-138 18 -256 21
q-120 2 -208 -11t-144 -55q-64 -44 -92.5 -114.5t-40.5 -167.5q62 61 144 94.5t168 35.5zM640 851q-138 0 -211 -89q-68 -77 -68 -224q0 -152 68 -229q71 -87 211 -87t211 87q68 77 68 226q0 150 -68 227q-73 89 -211 89z" />
    <glyph glyph-name="zero.tf" horiz-adv-x="1322" 
d="M661 -30q123 0 235 45t190 134q73 92 100.5 184.5t27.5 223.5v424q0 132 -27 224t-103 186q-74 85 -186.5 132.5t-236.5 44.5q-120 3 -232 -42.5t-190 -134.5q-75 -89 -102.5 -182t-27.5 -228v-424q0 -131 27 -226t103 -182q78 -88 187 -133.5t235 -45.5zM661 1325
q74 1 142.5 -38t107.5 -103q40 -68 40 -203v-424q0 -48 -1.5 -76t-12 -66.5t-30.5 -68.5q-42 -62 -108 -98t-138 -35q-74 -1 -140 35.5t-105 99.5q-30 43 -37.5 86.5t-7.5 122.5v424q0 71 6.5 112t32.5 89q39 66 107 105t144 38z" />
    <glyph glyph-name="one.tf" horiz-adv-x="1322" 
d="M617 1536h262v-1536h-262v1257l-288 -178v284z" />
    <glyph glyph-name="two.tf" horiz-adv-x="1322" 
d="M139 1060q0 241 172 389q140 119 365 119q111 0 213.5 -42t175.5 -122q63 -67 95.5 -158.5t32.5 -189.5q0 -65 -12 -119t-30 -94t-55.5 -85t-71.5 -77.5t-96 -87.5l-395 -348h660v-243h-1056v224l657 587q136 120 136 245q0 113 -68 184q-70 83 -190 83q-111 0 -183 -66
q-41 -37 -64 -90.5t-22 -108.5h-264z" />
    <glyph glyph-name="three.tf" horiz-adv-x="1322" 
d="M1056 796q104 -138 98 -316q-3 -109 -46 -209t-120 -169q-143 -127 -357 -130q-97 -3 -190.5 32t-167.5 101q-105 92 -145 232l247 68q24 -76 75 -121q74 -71 179 -71q111 3 182 71q83 77 83 196q0 123 -81 198q-71 71 -184 71q-62 0 -132 -36l-117 202l441 378h-633v243
h941v-243l-346 -333q163 -33 273 -164z" />
    <glyph glyph-name="four.tf" horiz-adv-x="1322" 
d="M1075 495h143v-241h-143v-254h-260v254h-681v241l491 1041h294l-492 -1041h388v399h260v-399z" />
    <glyph glyph-name="five.tf" horiz-adv-x="1322" 
d="M243 1536h834v-241h-606l-23 -380q110 71 239 71q90 0 178 -32.5t157 -91.5q160 -142 160 -378q-1 -103 -44 -200.5t-116 -168.5q-149 -140 -371 -143q-99 -3 -196 34.5t-169 106.5q-103 97 -143 235l247 66q21 -76 75 -124q78 -75 186 -75q112 0 192 77q79 79 79 192
t-84 194q-75 72 -187 75q-146 2 -235 -100l-220 70z" />
    <glyph glyph-name="six.tf" horiz-adv-x="1322" 
d="M1097 1404l-186 -182q-42 48 -100.5 75.5t-121.5 27.5q-82 0 -153 -44t-105 -116q-38 -69 -38 -190v-107q133 120 307 120q90 0 179.5 -33.5t159.5 -94.5q157 -150 154 -376q-1 -104 -43.5 -201t-116.5 -168q-72 -70 -170.5 -108t-201.5 -35q-101 -3 -199.5 35.5
t-171.5 111.5q-92 89 -126 193.5t-34 250.5v412q0 131 30 228.5t105 185.5q151 174 424 177q246 3 408 -162zM661 213q113 0 194 84q77 74 77 187t-79 192q-82 79 -190 79q-113 0 -194 -81q-76 -76 -76 -190t76 -187q78 -81 192 -84z" />
    <glyph glyph-name="seven.tf" horiz-adv-x="1322" 
d="M335 0l527 1293h-670v243h945v-243l-525 -1293h-277z" />
    <glyph glyph-name="eight.tf" horiz-adv-x="1322" 
d="M175 1133q10 224 164 339q123 96 320 96q201 0 324 -96q77 -58 118.5 -148t41.5 -191q0 -118 -53 -201q-23 -50 -79 -106q82 -69 120 -154q58 -100 55 -218q-7 -237 -164 -367q-140 -119 -363 -119q-100 0 -195 30t-163 89q-79 66 -121.5 163.5t-42.5 203.5
q-3 114 53 218q44 91 119 154q-55 55 -81 106q-56 100 -53 201zM659 1327q-100 -3 -153 -51q-58 -48 -58 -143q-3 -93 58 -141q55 -49 153 -49q99 0 158 49q52 44 56 141q3 92 -58 143q-61 54 -156 51zM659 698q-118 0 -185 -64t-67 -180q0 -115 67 -179q70 -64 185 -64
q119 0 186 64q68 62 68 179q0 118 -68 180q-64 64 -186 64z" />
    <glyph glyph-name="nine.tf" horiz-adv-x="1322" 
d="M226 134l186 180q42 -48 100.5 -75.5t121.5 -27.5q82 0 154 44t104 116q23 40 30.5 83t7.5 107v107q-131 -118 -305 -118q-92 0 -181.5 33t-159.5 95q-157 147 -154 374q1 104 43.5 201t116.5 168t171.5 108.5t199.5 34.5q103 3 201 -35.5t171 -111.5q92 -89 126 -193.5
t34 -250.5v-412q0 -131 -30 -228.5t-105 -185.5q-151 -174 -424 -177q-247 -3 -408 164zM661 1323q-110 3 -194 -84q-77 -74 -77 -187q0 -110 79 -192q82 -79 190 -79q113 0 194 81q77 77 77 190t-77 190q-75 78 -192 81z" />
    <glyph glyph-name="colon.case" horiz-adv-x="731" 
d="M237 1205h262v-262h-262v262zM235 593h262v-262h-262v262z" />
    <glyph glyph-name="exclamdown.case" horiz-adv-x="768" 
d="M256 1299v237h256v-237h-256zM256 0v1152h256v-1152h-256z" />
    <glyph glyph-name="questiondown.case" horiz-adv-x="1179" 
d="M751 1536v-282h-271v282h271zM107 397q0 196 168 367q19 22 81.5 81.5t82.5 93.5q29 46 35 78.5t6 102.5h273q0 -162 -62 -271q-26 -49 -60 -83.5t-87.5 -78.5t-93.5 -85q-70 -81 -70 -199q0 -77 34 -119q53 -71 177 -71q100 0 151 45q63 50 60 145h271
q-10 -107 -57.5 -198t-125.5 -145q-122 -90 -291 -90q-265 0 -394 156q-46 55 -72 126t-26 145z" />
    <glyph glyph-name="periodcentered.case" horiz-adv-x="1337" 
d="M672 612q-68 0 -114 44.5t-46 111.5t46 111.5t114 44.5q63 0 108.5 -45t45.5 -111t-45.5 -111t-108.5 -45z" />
    <glyph glyph-name="parenleft.case" horiz-adv-x="966" 
d="M879 1737l-190 140q-185 -216 -289.5 -513t-100.5 -596q-5 -298 100 -595.5t290 -513.5l190 140q-184 221 -265 460t-83 509q2 271 83 509.5t265 459.5z" />
    <glyph glyph-name="parenright.case" horiz-adv-x="966" 
d="M87 1737q185 -220 265.5 -458.5t82.5 -510.5q-2 -270 -83 -509t-265 -460l190 -140q187 215 291.5 512.5t99.5 596.5q5 300 -99.5 597t-291.5 512z" />
    <glyph glyph-name="braceleft.case" horiz-adv-x="957" 
d="M870 -416v241h-125q-32 0 -53.5 22.5t-21.5 54.5v623q0 97 -58 181l-47 62l47 62q58 84 58 181v623q0 31 21.5 53t53.5 22h125v243h-145q-137 0 -217.5 -81.5t-80.5 -217.5v-642q0 -21 -13 -40l-94 -135q-21 -31 -21 -67.5t21 -68.5l94 -135q13 -16 13 -40v-642
q0 -137 80.5 -218t217.5 -81h145z" />
    <glyph glyph-name="braceright.case" horiz-adv-x="957" 
d="M87 -416h146q137 0 217.5 81t80.5 218v642q0 24 13 40l94 135q22 32 22 68.5t-22 67.5l-94 135q-13 19 -13 40v642q0 136 -80.5 217.5t-217.5 81.5h-146v-243h128q31 0 52 -22t21 -53v-623q0 -94 60 -181l45 -62l-45 -62q-60 -87 -60 -181v-623q0 -32 -21 -54.5
t-52 -22.5h-128v-241z" />
    <glyph glyph-name="bracketleft.case" horiz-adv-x="904" 
d="M766 1724h-239v-1912h239v-228h-467v2368h467v-228z" />
    <glyph glyph-name="bracketright.case" horiz-adv-x="904" 
d="M606 1952v-2368h-465v228h237v1912h-237v228h465z" />
    <glyph glyph-name="hyphen.case" horiz-adv-x="896" 
d="M128 870h640v-202h-640v202z" />
    <glyph glyph-name="endash.case" horiz-adv-x="1152" 
d="M128 870h896v-202h-896v202z" />
    <glyph glyph-name="emdash.case" horiz-adv-x="1664" 
d="M128 870h1408v-202h-1408v202z" />
    <glyph glyph-name="guillemotleft.case" horiz-adv-x="1250" 
d="M546 297l137 106l-290 365l290 365l-137 109l-375 -474zM981 297l139 106l-292 365l292 365l-139 109l-375 -474z" />
    <glyph glyph-name="guillemotright.case" horiz-adv-x="1250" 
d="M269 297l375 471l-375 474l-137 -109l290 -365l-290 -365zM704 297l375 471l-375 474l-137 -109l291 -365l-291 -365z" />
    <glyph glyph-name="guilsinglleft.case" horiz-adv-x="1358" 
d="M811 256l-512 512l512 512l121 -124l-388 -388l388 -388z" />
    <glyph glyph-name="guilsinglright.case" horiz-adv-x="1358" 
d="M548 256l-121 124l388 388l-388 388l121 124l512 -512z" />
    <glyph glyph-name="greater.case" horiz-adv-x="1358" 
d="M548 256l-121 124l388 388l-388 388l121 124l512 -512z" />
    <glyph glyph-name="less.case" horiz-adv-x="1358" 
d="M811 256l-512 512l512 512l121 -124l-388 -388l388 -388z" />
    <glyph glyph-name="arrowright.case" horiz-adv-x="2158" 
d="M1348 1201l512 -514l-512 -512l-121 124l288 288l-1216 2v200h1214l-286 288z" />
    <glyph glyph-name="arrowleft.case" horiz-adv-x="2158" 
d="M1860 789v-200l-1216 -2l288 -288l-121 -124l-512 512l512 514l121 -124l-286 -288h1214z" />
    <glyph glyph-name="at.case" horiz-adv-x="1954" 
d="M1783 768q-7 -258 -140 -373q-36 -33 -87 -52t-101 -19q-106 0 -184 51q-49 29 -78 75q-98 -75 -237 -75q-71 0 -139.5 24t-118.5 68q-121 107 -128 301q6 191 128 301q112 92 262 92q56 0 115 -17.5t103 -49.5v37h157l-2 -455q0 -75 28 -113q27 -36 85 -36q47 0 75 38
q49 64 45 203q3 221 -98 373q-78 110 -208 167t-281 57q-234 0 -394 -121q-105 -77 -154.5 -210t-44.5 -289q7 -242 128 -384q84 -98 206 -144t263 -46q142 0 256 49l69 -192q-149 -60 -333 -60q-193 0 -354 65t-271 197q-172 198 -179 508q-9 201 66.5 382t223.5 290
q99 75 233 116.5t268 41.5q220 0 393 -77t283 -230q138 -202 145 -493zM1143 768q0 75 -23 119q-19 33 -58.5 52t-84.5 19q-85 3 -139 -45q-54 -54 -51 -145q-3 -92 51 -143q50 -47 133 -47q108 0 149 71q23 44 23 119z" />
    <glyph glyph-name="copyright.case" horiz-adv-x="1932" 
d="M966 47q180 0 343.5 70t281 188t187 281t69.5 342t-69.5 342t-187 281t-281 188t-343.5 70q-179 0 -342 -70t-281 -188t-188 -281t-70 -342t70 -342t188 -281t281 -188t342 -70zM966 288q-130 0 -248.5 50.5t-204.5 136.5t-136.5 204.5t-50.5 248.5t50.5 248.5
t136.5 204.5t204.5 136.5t248.5 50.5t248.5 -50.5t204.5 -136.5t136.5 -204.5t50.5 -248.5t-50.5 -248.5t-136.5 -204.5t-204.5 -136.5t-248.5 -50.5zM1370 1107l-197 -53q-23 68 -70 104q-49 43 -120 43q-103 0 -162 -79q-51 -66 -51 -194q0 -126 51 -192q57 -77 162 -77
q81 0 124 36q38 33 62 99l201 -43q-44 -136 -141 -205q-56 -40 -111 -56t-135 -16q-208 0 -317 140q-105 132 -105 314q0 192 105 311q120 146 322 146q68 0 117.5 -13t104.5 -45q126 -77 160 -220z" />
    </font>
</defs>
</svg>
